<?xml version="1.0" encoding="UTF-8" standalone="no"?>
<!-- Created with Inkscape (http://www.inkscape.org/) -->

<svg
   width="48"
   height="48"
   viewBox="0 0 48.000001 48"
   version="1.1"
   id="svg1387"
   xml:space="preserve"
   xmlns="http://www.w3.org/2000/svg"
   xmlns:svg="http://www.w3.org/2000/svg"><defs
     id="FlatIconDefs"><style
       id="FlatIconStlyle"><![CDATA[.IconOutline { stroke:#f5f4f4;  fill:none;  stroke-width:1.5; }
.ThinDotOutline { stroke-dasharray:0.1, 2.5;  stroke-linecap:round; }
.ThickDotOutline { stroke-dasharray:0.1, 5;  stroke-linecap:round;  stroke-width:3; }
.ThickOutline { stroke-linejoin:miter;  stroke-miterlimit:3;  stroke-width:3; }
.CornerButton { stroke-width: 8;  stroke-linejoin: round; }
.OutlineAsFill { fill: #f5f4f4; }
.MeshFillArea { fill:#7950f2; }
.MeshFillAreaDark { fill:#6b4cc8; }
.DynDataFillArea { fill:#aea72c; }
.PartFillArea { fill:#3769ff }
.BgFillArea { fill: #495057; }
.AdditiveFillArea { fill: #40c057 }
.SubtractArea { fill: #f03e3e; }
.IntersectArea { fill: #4c6ef5; }
.ImportArrow { fill:#40c057; }
.ExportArrow { fill:#f03e3e; }
.GenericArrow { fill:#F5F4F4; }
.SketchFill { fill: #f5f4f4; }
.SketckOutline { stroke:#f03e3e; }
.SpreadsheetFill { fill: #868e96; }
.SpreadsheetLines { stroke:#495057; }
]]></style></defs><g
     id="CopyProperty"
     transform="translate(-392.2596,-0.96573727)"><path
       id="rect795-7-6-6-9"
       d="m 404.89066,9.308409 c -5.08264,11.132041 1.73581,19.57911 -2.75781,32.980469 l 25.22145,-1.647931 c 4.49362,-13.401359 -2.32483,-21.848428 2.75781,-32.980469 z"
       class="DynDataFillArea" /><path
       id="rect795-6-5-2-7-7"
       d="m 404.89066,9.308409 c -5.08264,11.132041 1.73581,19.57911 -2.75781,32.980469 l 25.22145,-1.647931 c 4.49362,-13.401359 -2.32482,-21.848428 2.75782,-32.980469 z"
       class="IconOutline  ThickOutline"
       style="fill:none;stroke:#f5f4f4;stroke-width:3;stroke-linejoin:miter;stroke-miterlimit:3" /><path
       id="rect795-6-5-3-9-5-7"
       d="m 407.61666,13.35577 c -3.35914,10.786896 1.86839,11.89424 -0.72352,25.025391"
       class="IconOutline  ThinDotOutline"
       style="fill:none;stroke:#f5f4f4;stroke-width:1.5;stroke-linecap:round;stroke-dasharray:0.1, 2.5" /><g
       id="g10799"
       transform="translate(-16.799511,0.74061792)"><path
         id="rect795-7-6-9-6"
         d="m 220.77532,-88.951379 -10.34538,0.675951 c -1.12304,6.39291 0.78683,12.248748 0.44922,19.302735 l 10.34538,-0.673997 c 0.33805,-7.054945 -1.57246,-12.911096 -0.44922,-19.304689 z"
         transform="translate(217.2747,102.22865)"
         class="IconOutline"
         style="fill:none;stroke:#f5f4f4;stroke-width:1.5" /><path
         id="rect795-7-6-9-6-7"
         d="m 223.44491,-85.898297 -10.34539,0.674761 c -0.23113,6.121788 1.56858,12.015329 0.46289,19.304689 l 10.34539,-0.676715 c 1.10564,-7.288997 -0.6938,-13.181274 -0.46289,-19.302735 z"
         transform="translate(217.2747,102.22865)"
         class="IconOutline  DynDataFillArea" /></g></g></svg>
