<?xml version="1.0" encoding="UTF-8" standalone="no"?>
<!-- Created with Inkscape (http://www.inkscape.org/) -->

<svg
   width="48"
   height="48"
   viewBox="0 0 48.000001 48"
   version="1.1"
   id="svg1387"
   xml:space="preserve"
   xmlns="http://www.w3.org/2000/svg"
   xmlns:svg="http://www.w3.org/2000/svg"><defs
     id="FlatIconDefs"><style
       id="FlatIconStlyle"><![CDATA[.IconOutline { stroke:#f5f4f4;  fill:none;  stroke-width:1.5; }
.ThinDotOutline { stroke-dasharray:0.1, 2.5;  stroke-linecap:round; }
.ThickDotOutline { stroke-dasharray:0.1, 5;  stroke-linecap:round;  stroke-width:3; }
.ThickOutline { stroke-linejoin:miter;  stroke-miterlimit:3;  stroke-width:3; }
.CornerButton { stroke-width: 8;  stroke-linejoin: round; }
.OutlineAsFill { fill: #f5f4f4; }
.MeshFillArea { fill:#7950f2; }
.MeshFillAreaDark { fill:#6b4cc8; }
.DynDataFillArea { fill:#aea72c; }
.PartFillArea { fill:#3769ff }
.BgFillArea { fill: #495057; }
.AdditiveFillArea { fill: #40c057 }
.SubtractArea { fill: #f03e3e; }
.IntersectArea { fill: #4c6ef5; }
.ImportArrow { fill:#40c057; }
.ExportArrow { fill:#f03e3e; }
.GenericArrow { fill:#F5F4F4; }
.SketchFill { fill: #f5f4f4; }
.SketckOutline { stroke:#f03e3e; }
.SpreadsheetFill { fill: #868e96; }
.SpreadsheetLines { stroke:#495057; }
]]></style></defs><g
     id="layer2"
     style="display:inline"
     transform="translate(594.9954,-741.90526)"><g
       id="Settings"
       style="display:inline"
       transform="translate(-614.16689,622.93956)"><path
         id="rect795-7-6-4-8"
         d="m 95.890656,127.30841 c -5.08264,11.13204 1.73581,19.57911 -2.75781,32.98047 l 25.221454,-1.64793 c 4.49362,-13.40136 -2.32483,-21.84843 2.75781,-32.98047 z"
         class="DynDataFillArea"
         transform="translate(-64.088135)" /><path
         id="rect795-6-5-2-0-1"
         d="m 95.890656,127.30841 c -5.08264,11.13204 1.73581,19.57911 -2.75781,32.98047 l 25.221454,-1.64793 c 4.49362,-13.40136 -2.32482,-21.84843 2.75782,-32.98047 z"
         class="IconOutline  ThickOutline"
         style="fill:none;stroke:#f5f4f4;stroke-width:3;stroke-linejoin:miter;stroke-miterlimit:3"
         transform="translate(-64.088135)" /><path
         id="rect795-6-5-3-9-594-2"
         d="m 98.616661,131.35577 c -3.359139,10.7869 1.868389,11.89424 -0.723527,25.02539"
         class="IconOutline  ThinDotOutline"
         style="fill:none;stroke:#f5f4f4;stroke-width:1.5;stroke-linecap:round;stroke-dasharray:0.1, 2.5"
         transform="translate(-64.088135)" /><path
         id="path61380-7-7-3-0"
         style="display:inline;fill:#f2f2f2;fill-opacity:1;stroke-width:3;stroke-miterlimit:1"
         d="m 51.656654,135.24415 -1.06079,1.83725 -0.28398,0.4919 -1.46576,2.53874 h -3.49769 l -1.74881,-3.02911 1.46568,-2.53867 0.28406,-0.49189 1.05994,-1.83589 a 5.685278,5.685278 0 0 0 -4.70365,2.83401 5.685278,5.685278 0 0 0 0.0323,5.71372 l -1.82428,3.1597 -3.70807,6.4226 c -1.03178,1.78713 3.8267,4.57417 4.85068,2.80061 l 3.70815,-6.4227 1.82419,-3.15962 a 5.685278,5.685278 0 0 0 4.96227,-2.82824 5.685278,5.685278 0 0 0 0.10558,-5.49241 z" /></g></g></svg>
