<?xml version="1.0" encoding="UTF-8" standalone="no"?>
<!-- Created with Inkscape (http://www.inkscape.org/) -->

<svg
   width="48"
   height="48"
   viewBox="0 0 48.000001 48"
   version="1.1"
   id="svg1387"
   xml:space="preserve"
   xmlns="http://www.w3.org/2000/svg"
   xmlns:svg="http://www.w3.org/2000/svg"><defs
     id="FlatIconDefs"><style
       id="FlatIconStlyle"><![CDATA[.IconOutline { stroke:#f5f4f4;  fill:none;  stroke-width:1.5; }
.ThinDotOutline { stroke-dasharray:0.1, 2.5;  stroke-linecap:round; }
.ThickDotOutline { stroke-dasharray:0.1, 5;  stroke-linecap:round;  stroke-width:3; }
.ThickOutline { stroke-linejoin:miter;  stroke-miterlimit:3;  stroke-width:3; }
.CornerButton { stroke-width: 8;  stroke-linejoin: round; }
.OutlineAsFill { fill: #f5f4f4; }
.MeshFillArea { fill:#7950f2; }
.MeshFillAreaDark { fill:#6b4cc8; }
.DynDataFillArea { fill:#aea72c; }
.PartFillArea { fill:#3769ff }
.BgFillArea { fill: #495057; }
.AdditiveFillArea { fill: #40c057 }
.SubtractArea { fill: #f03e3e; }
.IntersectArea { fill: #4c6ef5; }
.ImportArrow { fill:#40c057; }
.ExportArrow { fill:#f03e3e; }
.GenericArrow { fill:#F5F4F4; }
.SketchFill { fill: #f5f4f4; }
.SketckOutline { stroke:#f03e3e; }
.SpreadsheetFill { fill: #868e96; }
.SpreadsheetLines { stroke:#495057; }
]]></style></defs><g
     id="layer2"
     style="display:inline"
     transform="translate(586.76396,-139.99993)"><g
       id="CreateConfiguration"
       transform="translate(-605.93546,21.034192)"
       style="display:inline"><path
         id="rect795-7-6-4-6"
         d="m 95.890656,127.30841 c -5.08264,11.13204 1.73581,19.57911 -2.75781,32.98047 l 25.221454,-1.64793 c 4.49362,-13.40136 -2.32483,-21.84843 2.75781,-32.98047 z"
         class="DynDataFillArea"
         transform="translate(-64.088135)" /><path
         id="rect795-6-5-2-0-2"
         d="m 95.890656,127.30841 c -5.08264,11.13204 1.73581,19.57911 -2.75781,32.98047 l 25.221454,-1.64793 c 4.49362,-13.40136 -2.32482,-21.84843 2.75782,-32.98047 z"
         class="IconOutline  ThickOutline"
         style="fill:none;stroke:#f5f4f4;stroke-width:3;stroke-linejoin:miter;stroke-miterlimit:3"
         transform="translate(-64.088135)" /><path
         id="rect795-6-5-3-9-594-5"
         d="m 98.616661,131.35577 c -3.359139,10.7869 1.868389,11.89424 -0.723527,25.02539"
         class="IconOutline  ThinDotOutline"
         style="fill:none;stroke:#f5f4f4;stroke-width:1.5;stroke-linecap:round;stroke-dasharray:0.1, 2.5"
         transform="translate(-64.088135)" /><path
         id="path61380-7-7-8"
         style="display:inline;fill:#e6e6e6;fill-opacity:1;stroke-width:3;stroke-miterlimit:1"
         d="m 46.671145,132.14149 c 1.20759,-2.09161 5.92215,0.60899 4.70536,2.71655 l -9.81239,16.99554 -4.69046,2.69091 -0.0149,-5.40746 z" /></g></g><g
     id="g5"
     transform="translate(-948.09127,287.88357)"><path
       id="rect4-3-5-4-6"
       d="m 984.09127,-243.88359 c 2.66666,0 5.33332,0 8,0 0,-2.66667 0,-5.33335 0,-8 -2.66668,0 -5.33334,0 -8,0 0,2.66665 0,5.33333 0,8 z"
       class="IconOutline CornerButton"
       style="fill:none;stroke:#f5f4f4;stroke-width:8;stroke-linejoin:round" /><path
       id="rect517-4-2-7-6-4-2"
       class="BgFillArea"
       d="m 983.69903,-248.98162 h 8.78447 v 2.19612 h -8.78447 z"
       style="fill:#495057" /><path
       id="rect517-4-3-2-2-2-4-8"
       class="BgFillArea"
       d="m 986.99319,-243.4914 v -8.78446 h 2.19612 v 8.78446 z"
       style="fill:#495057" /></g></svg>
