<?xml version="1.0" encoding="UTF-8" standalone="no"?>
<!-- Created with Inkscape (http://www.inkscape.org/) -->

<svg
   width="48"
   height="48"
   viewBox="0 0 48.000001 48"
   version="1.1"
   id="svg1387"
   xml:space="preserve"
   xmlns="http://www.w3.org/2000/svg"
   xmlns:svg="http://www.w3.org/2000/svg"><defs
     id="FlatIconDefs"><style
       id="FlatIconStlyle"><![CDATA[.IconOutline { stroke:#f5f4f4;  fill:none;  stroke-width:1.5; }
.ThinDotOutline { stroke-dasharray:0.1, 2.5;  stroke-linecap:round; }
.ThickDotOutline { stroke-dasharray:0.1, 5;  stroke-linecap:round;  stroke-width:3; }
.ThickOutline { stroke-linejoin:miter;  stroke-miterlimit:3;  stroke-width:3; }
.CornerButton { stroke-width: 8;  stroke-linejoin: round; }
.OutlineAsFill { fill: #f5f4f4; }
.MeshFillArea { fill:#7950f2; }
.MeshFillAreaDark { fill:#6b4cc8; }
.DynDataFillArea { fill:#aea72c; }
.PartFillArea { fill:#3769ff }
.BgFillArea { fill: #495057; }
.AdditiveFillArea { fill: #40c057 }
.SubtractArea { fill: #f03e3e; }
.IntersectArea { fill: #4c6ef5; }
.ImportArrow { fill:#40c057; }
.ExportArrow { fill:#f03e3e; }
.GenericArrow { fill:#F5F4F4; }
.SketchFill { fill: #f5f4f4; }
.SketckOutline { stroke:#f03e3e; }
.SpreadsheetFill { fill: #868e96; }
.SpreadsheetLines { stroke:#495057; }
]]></style></defs><g
     id="RemoveProperty"
     transform="translate(-14.725324,102.22862)"><path
       id="rect795-7-6-1-3"
       d="m 27.356348,-93.885961 c -5.08264,11.132041 1.73581,19.57911 -2.75781,32.980469 l 25.22145,-1.647931 c 4.49362,-13.401359 -2.32483,-21.848428 2.75781,-32.980469 z"
       class="SubtractArea" /><path
       id="rect795-6-5-2-1-1"
       d="m 27.356348,-93.885961 c -5.08264,11.132041 1.73581,19.57911 -2.75781,32.980469 l 25.22145,-1.647931 c 4.49362,-13.401359 -2.32482,-21.848428 2.75782,-32.980469 z"
       class="IconOutline  ThickOutline" /><path
       id="rect795-6-5-3-9-59-7"
       d="m 30.082353,-89.8386 c -3.359139,10.786896 1.86839,11.89424 -0.723527,25.025391"
       class="IconOutline  ThinDotOutline" /><path
       d="m 32.726051,-88.303554 8.3132,-0.54317"
       id="path3177-84-5"
       class="IconOutline" /><path
       d="m 43.996523,-89.039948 2.733504,-0.178602"
       id="path3177-2-8-9"
       class="IconOutline" /><path
       d="m 32.106303,-84.992093 8.3132,-0.54317"
       id="path3177-7-1-6"
       class="IconOutline" /><path
       d="m 43.376775,-85.728487 2.733504,-0.178602"
       id="path3177-2-0-03-2"
       class="IconOutline" /><path
       d="m 32.044106,-81.680637 8.3132,-0.54317"
       id="path3177-7-6-0-1"
       class="IconOutline" /><path
       d="m 43.314578,-82.417031 2.733504,-0.178602"
       id="path3177-2-0-0-4-7"
       class="IconOutline" /><path
       id="rect4-3-5-4-8"
       d="m 50.725297,-58.22865 c 2.66666,0 5.33332,0 8,0 0,-2.66667 0,-5.33335 0,-8 -2.66668,0 -5.33334,0 -8,0 0,2.66665 0,5.33333 0,8 z"
       class="IconOutline CornerButton" /><path
       id="rect517-4-2-7-6-4-5"
       class="BgFillArea"
       d="m 50.333057,-63.32668 h 8.78447 v 2.19612 h -8.78447 z" /></g></svg>
