<?xml version="1.0" encoding="UTF-8" standalone="no"?>
<!-- Created with Inkscape (http://www.inkscape.org/) -->

<svg
   width="48"
   height="48"
   viewBox="0 0 48.000001 48"
   version="1.1"
   id="svg1387"
   xml:space="preserve"
   xmlns="http://www.w3.org/2000/svg"
   xmlns:svg="http://www.w3.org/2000/svg"><defs
     id="defs1384"><style
       id="style5037"><![CDATA[
.MeshFillArea {
  display:inline;
  fill:#40c057;
  fill-opacity:1;
  stroke:#f5f4f4;
  stroke-dasharray:0.166358, 2.49537;
  stroke-dashoffset:0;
  stroke-linecap:round;
  stroke-linejoin:round;
  stroke-miterlimit:1;
  stroke-opacity:1;
  stroke-width:1.66358;
}

.ThickOutline {
  display:inline;
  fill:none;
  fill-opacity:1;
  stroke:#f5f4f4;
  stroke-dasharray:none;
  stroke-dashoffset:0;
  stroke-linecap:round;
  stroke-linejoin:miter;
  stroke-miterlimit:5;
  stroke-opacity:1;
  stroke-width:3
;
}
]]></style></defs><g
     id="layer2"
     style="display:inline"
     transform="translate(229.23865,-662.87104)"><path
       id="path1390-2-3-3-7-1-0-2-7-0-6-1-1-6-0-8"
       style="display:inline;fill:#4c6ef5;fill-opacity:1;stroke:none;stroke-width:3;stroke-linecap:square;stroke-dasharray:none;stroke-opacity:1;paint-order:markers fill stroke"
       d="m -225.2365,667.88466 v 16.5214 l 7.4038,3.1591 16.5803,-0.013 v -15.8968 l -7.4036,-3.771 z" /><path
       id="path1390-2-3-3-7-1-0-2-7-0-4-6-3-0-8"
       style="display:inline;fill:none;fill-opacity:1;stroke:#f5f4f4;stroke-width:1.5;stroke-linecap:square;stroke-dasharray:none;stroke-opacity:1;paint-order:markers fill stroke"
       d="m -225.2365,667.88466 v 16.5214 l 7.4038,3.7574 16.5803,-0.013 v -16.495 l -7.4036,-3.771 z" /><path
       style="fill:none;stroke:#f5f4f4;stroke-width:1.5;stroke-linecap:butt;stroke-linejoin:miter;stroke-dasharray:none;stroke-opacity:1"
       d="m -225.2365,667.88466 7.4039,3.7705 -10e-5,16.5083"
       id="path104545-1-6" /><path
       style="fill:none;stroke:#f5f4f4;stroke-width:1.5;stroke-linecap:butt;stroke-linejoin:miter;stroke-dasharray:none;stroke-opacity:1"
       d="m -217.8326,671.65516 16.5802,4e-4"
       id="path69084-5-8-4-0-8" /><path
       id="path1-5-4-2-3-1"
       style="fill:#ced4da;fill-opacity:1;fill-rule:evenodd;stroke:none;stroke-width:3;stroke-linecap:round;stroke-linejoin:round;stroke-dasharray:0.03, 6.00001;stroke-dashoffset:2.70001;paint-order:markers fill stroke"
       d="m -191.13566,682.72177 -6.9498,-6.88751 4.36374,-0.005 0.013,-7.00419 h 5.19041 l -0.009,6.99685 4.29603,-0.005 z" /><path
       id="path1390-2-3-3-7-1-0-2-7-0-6-1-1-6-0-6"
       style="display:inline;fill:#40c057;fill-opacity:1;stroke:none;stroke-width:2.99999;stroke-linecap:square;stroke-dasharray:none;stroke-opacity:1;paint-order:markers fill stroke"
       d="m -210.9289,685.88186 v 16.2744 l 7.2936,3.7011 16.334,-0.013 v -16.2483 l -7.2937,-3.7146 z" /><path
       style="fill:#319745;fill-opacity:1;stroke:none;stroke-width:1px;stroke-linecap:butt;stroke-linejoin:miter;stroke-opacity:1"
       d="m -210.9289,702.15626 h 16.3339 l 7.2937,3.6881 -16.334,0.013 z"
       id="path17055" /><path
       id="path1390-2-3-3-7-1-0-2-7-0-4-6-3-0-6"
       style="display:inline;fill:none;fill-opacity:1;stroke:#f5f4f4;stroke-width:1.5;stroke-linecap:square;stroke-dasharray:none;stroke-opacity:1;paint-order:markers fill stroke"
       d="m -210.9289,685.88186 v 16.2744 l 7.2936,3.7011 16.334,-0.013 v -16.2484 l -7.2937,-3.7146 z" /><path
       style="fill:none;stroke:#f5f4f4;stroke-width:1.5;stroke-linecap:butt;stroke-linejoin:miter;stroke-dasharray:none;stroke-opacity:1"
       d="m -210.9289,685.88186 7.2938,3.7141 -2e-4,16.2614"
       id="path104545-1-1" /><path
       style="fill:none;stroke:#f5f4f4;stroke-width:1.5;stroke-linecap:butt;stroke-linejoin:miter;stroke-dasharray:none;stroke-opacity:1"
       d="m -203.6351,689.59596 16.3338,4e-4"
       id="path69084-5-8-4-0-1" /><path
       style="fill:none;stroke:#f5f4f4;stroke-width:1.5;stroke-linecap:round;stroke-linejoin:miter;stroke-dasharray:0.15, 2.25;stroke-dashoffset:0.6;stroke-opacity:1"
       d="m -210.9289,702.15626 h 16.334 l 7.2936,3.6881"
       id="path16724" /><path
       style="fill:none;stroke:#f5f4f4;stroke-width:1.5;stroke-linecap:round;stroke-linejoin:miter;stroke-dasharray:0.15, 2.25;stroke-dashoffset:0.15;stroke-opacity:1"
       d="m -194.5949,702.15626 v -16.2748"
       id="path16726" /><path
       id="path1390-2-3-3-7-1-0-2-7-0-6-1-1-6-0-8-2"
       style="display:inline;opacity:1;fill:none;fill-opacity:1;stroke:#f5f4f4;stroke-width:3;stroke-linecap:square;stroke-dasharray:none;stroke-opacity:1;paint-order:markers fill stroke"
       d="m -225.98633,667.88477 c 0,5.67252 0,11.34505 0,17.01757 2.70397,1.12256 5.38488,2.35443 8.10195,3.41211 2.06889,-0.002 4.13777,-0.004 6.20665,-0.006 0,4.76953 0,9.53907 0,14.3086 2.62188,1.32851 5.24265,2.65924 7.86328,3.99023 5.75455,-0.004 11.50911,-0.0104 17.26367,-0.0137 0,-5.81901 0,-11.63802 0,-17.45703 -2.62099,-1.3355 -5.24256,-2.66984 -7.86328,-4.00586 -2.0293,0 -4.0586,0 -6.08789,0 0,-4.64518 0,-9.29037 0,-13.93555 -2.658,-1.35392 -5.31683,-2.7062 -7.97461,-4.06054 -5.83659,0 -11.67318,0 -17.50977,0 0,0.25 0,0.5 0,0.75 z" /></g></svg>
