<?xml version="1.0" encoding="UTF-8" standalone="no"?>
<!-- Created with Inkscape (http://www.inkscape.org/) -->

<svg
   width="48.000015"
   height="48"
   viewBox="0 0 48.000016 48"
   version="1.1"
   id="svg1387"
   xml:space="preserve"
   xmlns="http://www.w3.org/2000/svg"
   xmlns:svg="http://www.w3.org/2000/svg"><defs
     id="defs1384" /><g
     id="layer2"
     style="display:inline"
     transform="translate(34.372641,-655.53135)"><g
       id="g111895"
       transform="matrix(0.90173179,0,0,0.90161035,-1433.1524,-398.96496)"
       style="display:inline;stroke-width:1.10905"><path
         id="path110304-1"
         style="display:inline;fill:#495057;fill-opacity:1;stroke:#f5f4f4;stroke-width:3.32716;stroke-linecap:round;stroke-linejoin:round;stroke-miterlimit:1;stroke-dasharray:none;stroke-dashoffset:0.25;stroke-opacity:1"
         d="m 1584.1906,1175.1548 a 14.673633,14.632992 0 0 0 -14.541,12.9453 14.673633,14.632992 0 0 0 -12.8516,14.4903 14.673633,14.632992 0 0 0 14.6738,14.6327 14.673633,14.632992 0 0 0 14.5411,-12.9453 14.673633,14.632992 0 0 0 12.8496,-14.4902 14.673633,14.632992 0 0 0 -14.6719,-14.6328 z" /><path
         id="path110304-2"
         style="display:inline;fill:#40c057;fill-opacity:1;stroke:#f5f4f4;stroke-width:1.66358;stroke-linecap:round;stroke-linejoin:round;stroke-miterlimit:1;stroke-dasharray:0.166358, 2.49537;stroke-dashoffset:0;stroke-opacity:1"
         d="m 1571.4718,1187.9575 a 14.673633,14.632992 0 0 0 -1.8222,0.1426 14.673633,14.632992 0 0 0 -0.1329,1.6875 14.673633,14.632992 0 0 0 14.6739,14.6328 14.673633,14.632992 0 0 0 1.8223,-0.1426 14.673633,14.632992 0 0 0 0.1327,-1.6874 14.673633,14.632992 0 0 0 -14.6738,-14.6329 z" /></g></g></svg>
