<?xml version="1.0" encoding="UTF-8" standalone="no"?>
<!-- Created with Inkscape (http://www.inkscape.org/) -->

<svg
   width="48"
   height="48"
   viewBox="0 0 48.000001 48"
   version="1.1"
   id="svg1387"
   xml:space="preserve"
   xmlns="http://www.w3.org/2000/svg"
   xmlns:svg="http://www.w3.org/2000/svg"><defs
     id="defs1384" /><g
     id="layer2"
     style="display:inline"
     transform="translate(229.23865,-758.87104)"><g
       id="g20581"
       transform="translate(68.627603,0.309032)"><g
         id="g20367"
         transform="matrix(0.95265044,0,0,0.95286072,59.178603,111.72826)"
         style="stroke-width:1.04959"><path
           id="ellipse13930-6-4"
           style="display:inline;fill:#37b24d;stroke:none;stroke-width:3.14876;stroke-linecap:round;stroke-miterlimit:2;stroke-dasharray:none;stroke-opacity:1"
           d="m -340.55515,682.35865 a 11.189256,4.4288485 0 0 0 -11.18815,4.42969 v 23.10043 a 11.189256,4.4288485 0 0 0 11.18815,4.42968 11.189256,4.4288485 0 0 0 11.18969,-4.42968 v -23.10043 a 11.189256,4.4288485 0 0 0 -11.18969,-4.42969 z" /><path
           id="ellipse13930-2-1-5"
           style="display:inline;fill:#319745;fill-opacity:1;stroke-width:1.57438;stroke-linecap:round;stroke-miterlimit:2;stroke-dasharray:0.157438, 2.36157"
           d="m -329.36546,709.88877 a 11.189256,4.4288485 0 0 1 -11.18926,4.42884 11.189256,4.4288485 0 0 1 -11.1893,-4.42884 11.189256,4.4288485 0 0 1 11.1893,-4.42886 11.189256,4.4288485 0 0 1 11.18926,4.42886 z" /><path
           id="ellipse13930-4-03"
           style="display:inline;fill:none;stroke:#f2f2f2;stroke-width:1.57438;stroke-linecap:round;stroke-miterlimit:2;stroke-dasharray:0.157438, 2.36157;stroke-dashoffset:1.10207;stroke-opacity:1"
           d="m -329.36546,709.88877 a 11.189256,4.4288485 0 0 1 -11.18923,4.42885 11.189256,4.4288485 0 0 1 -11.18927,-4.42885 11.189256,4.4288485 0 0 1 11.18927,-4.42886 11.189256,4.4288485 0 0 1 11.18923,4.42886 z" /><path
           id="ellipse13930-4-0-6"
           style="display:inline;fill:none;stroke:#f2f2f2;stroke-width:1.57438;stroke-linecap:round;stroke-miterlimit:2;stroke-dasharray:none;stroke-opacity:1"
           d="m -329.36669,686.78751 a 11.189256,4.4288485 0 0 1 -11.18918,4.42885 11.189256,4.4288485 0 0 1 -11.18928,-4.42885 11.189256,4.4288485 0 0 1 11.18928,-4.42886 11.189256,4.4288485 0 0 1 11.18918,4.42886 z" /><path
           id="ellipse13930-6-2-1"
           style="display:inline;fill:none;stroke:#ececec;stroke-width:1.57438;stroke-linecap:round;stroke-miterlimit:2;stroke-dasharray:none;stroke-opacity:1"
           d="m -340.55519,682.35865 a 11.189256,4.4288485 0 0 0 -11.18815,4.42969 v 23.10043 a 11.189256,4.4288485 0 0 0 11.18815,4.42968 11.189256,4.4288485 0 0 0 11.18973,-4.42968 v -23.10043 a 11.189256,4.4288485 0 0 0 -11.18973,-4.42969 z" /></g><g
         id="g20360"
         transform="matrix(0.95265044,0,0,0.95286072,44.017493,181.13036)"
         style="stroke-width:1.04959"><path
           style="display:inline;fill:#37b24d;fill-opacity:1;stroke:none;stroke-width:3.09183;stroke-linecap:square;stroke-dasharray:none;stroke-opacity:1;paint-order:markers fill stroke"
           d="m -326.27929,652.80767 v -21.26376 l -6.39002,-6.44506 h -21.26195 v 21.04948 l 6.63517,6.69231 z"
           id="path1390-81-9" /><path
           style="fill:#319745;fill-opacity:1;stroke:none;stroke-width:1.04958px;stroke-linecap:butt;stroke-linejoin:miter;stroke-opacity:1"
           d="m -353.93126,646.14833 6.63517,6.69231 21.0168,-0.0329 -7.23281,-6.65934 z"
           id="path11729-7" /><path
           style="fill:#89b4fa;fill-opacity:0.8;stroke:#f2f2f2;stroke-width:1.57438;stroke-linecap:square;stroke-dasharray:none;stroke-opacity:1;paint-order:markers fill stroke"
           d="m -346.52822,632.8372 v 19.77232"
           id="path1807-3" /><path
           style="display:inline;fill:#89b4fa;fill-opacity:0.8;stroke:#f2f2f2;stroke-width:1.57438;stroke-linecap:round;stroke-dasharray:0.157438, 2.36157;stroke-dashoffset:3.93595;stroke-opacity:1;paint-order:markers fill stroke"
           d="m -333.5121,626.37601 v 19.77232"
           id="path1807-5-6" /><path
           style="fill:#89b4fa;fill-opacity:0.8;stroke:#f2f2f2;stroke-width:1.57438;stroke-linecap:round;stroke-dasharray:none;stroke-opacity:1;paint-order:markers fill stroke"
           d="m -353.93126,625.09885 7.3935,6.74179"
           id="path1809-12" /><path
           style="display:inline;fill:#89b4fa;fill-opacity:0.8;stroke:#f2f2f2;stroke-width:1.57438;stroke-linecap:round;stroke-dasharray:0.157438, 2.36157;stroke-dashoffset:0.944628;stroke-opacity:1;paint-order:markers fill stroke"
           d="m -333.6728,646.06588 7.39351,6.74179"
           id="path1809-6-9" /><path
           style="fill:#89b4fa;fill-opacity:0.8;stroke:#f2f2f2;stroke-width:1.57438;stroke-linecap:round;stroke-dasharray:none;stroke-opacity:1;paint-order:markers fill stroke"
           d="m -326.12368,631.84064 h -20.41915"
           id="path1811-3" /><path
           style="display:inline;fill:#89b4fa;fill-opacity:0.8;stroke:#f2f2f2;stroke-width:1.57438;stroke-linecap:round;stroke-dasharray:0.157438, 2.36157;stroke-dashoffset:0.629752;stroke-opacity:1;paint-order:markers fill stroke"
           d="m -333.5121,646.14833 h -20.41916"
           id="path1811-6-1" /><path
           style="fill:#1c7ed6;stroke:#f2f2f2;stroke-width:0;stroke-linecap:square;stroke-linejoin:round;stroke-dasharray:none;stroke-opacity:1;paint-order:markers fill stroke"
           d="m -353.41261,625.57178 27.13332,5.97213"
           id="path1706-9" /><path
           style="fill:none;fill-opacity:1;stroke:#f2f2f2;stroke-width:1.57438;stroke-linecap:square;stroke-dasharray:none;stroke-opacity:1;paint-order:markers fill stroke"
           d="m -326.27929,652.80767 v -21.26376 l -6.39002,-6.44506 h -21.26195 v 21.04948 l 6.63517,6.69231 z"
           id="path1390-4" /></g><path
         id="path1390-81-9-0"
         style="display:inline;fill:none;fill-opacity:1;stroke:#f2f2f2;stroke-width:3;stroke-linecap:square;stroke-dasharray:none;stroke-opacity:1;paint-order:markers fill stroke"
         d="m -266.74805,761.21289 c -3.16152,0.26174 -6.60612,0.73533 -9.04807,2.95237 -1.01547,1.02442 -0.90957,2.53896 -0.86404,3.86169 0,2.66159 0,5.32318 0,7.98477 -5.74869,0 -11.49739,0 -17.24609,0 0,7.03906 0,14.07812 0,21.11719 2.25252,2.27222 4.50526,4.54421 6.75781,6.8164 7.0293,-0.0103 14.0586,-0.0207 21.08789,-0.0332 0.004,-3.59961 -0.0233,-7.19946 0.0293,-10.79883 3.70984,0.0243 7.67794,-0.33062 10.81445,-2.5 1.03088,-0.7798 1.58318,-2.09765 1.37489,-3.37617 -0.0118,-7.18778 0.0401,-14.3758 -0.0468,-21.56328 -0.53771,-2.00138 -2.61785,-2.91532 -4.40943,-3.51151 -2.71799,-0.8777 -5.61163,-1.06011 -8.44995,-0.94943 z" /></g></g></svg>
