<?xml version="1.0" encoding="UTF-8" standalone="no"?>
<!-- Created with Inkscape (http://www.inkscape.org/) -->

<svg
   width="48"
   height="48.000008"
   viewBox="0 0 48.000001 48.000008"
   version="1.1"
   id="svg1387"
   xml:space="preserve"
   xmlns="http://www.w3.org/2000/svg"
   xmlns:svg="http://www.w3.org/2000/svg"><defs
     id="defs1384"><style
       id="style5037"><![CDATA[
.MeshFillArea {
  display:inline;
  fill:#40c057;
  fill-opacity:1;
  stroke:#f5f4f4;
  stroke-dasharray:0.166358, 2.49537;
  stroke-dashoffset:0;
  stroke-linecap:round;
  stroke-linejoin:round;
  stroke-miterlimit:1;
  stroke-opacity:1;
  stroke-width:1.66358;
}

.ThickOutline {
  display:inline;
  fill:none;
  fill-opacity:1;
  stroke:#f5f4f4;
  stroke-dasharray:none;
  stroke-dashoffset:0;
  stroke-linecap:round;
  stroke-linejoin:miter;
  stroke-miterlimit:5;
  stroke-opacity:1;
  stroke-width:3
;
}
]]></style></defs><g
     id="layer2"
     style="display:inline"
     transform="translate(36.138312,-567.16318)"><g
       id="g111864"
       transform="matrix(0.90171156,0,0,0.90158723,-1280.7979,-496.33701)"><path
         id="path110304-88"
         d="m 1413.3045,1185.1712 a 14.673633,14.632992 0 0 0 -14.5411,12.9473 14.673633,14.632992 0 0 0 -12.8496,14.4902 14.673633,14.632992 0 0 0 14.6719,14.6328 14.673633,14.632992 0 0 0 14.5411,-12.9472 14.673633,14.632992 0 0 0 12.8515,-14.4903 14.673633,14.632992 0 0 0 -14.6738,-14.6328 z"
         class="MeshFillArea" /><path
         id="path110304-2-3"
         style="display:inline;fill:#40c057;fill-opacity:1;stroke:#f5f4f4;stroke-width:1.66362;stroke-linecap:round;stroke-linejoin:round;stroke-miterlimit:1;stroke-dasharray:0.166362, 2.49542;stroke-dashoffset:0;stroke-opacity:1"
         d="m 1400.5856,1197.9759 a 14.673633,14.632992 0 0 0 -1.8222,0.1426 14.673633,14.632992 0 0 0 -0.1328,1.6874 14.673633,14.632992 0 0 0 14.6738,14.6329 14.673633,14.632992 0 0 0 1.8223,-0.1426 14.673633,14.632992 0 0 0 0.1328,-1.6875 14.673633,14.632992 0 0 0 -14.6739,-14.6328 z" /><path
         id="path110304-88-3"
         d="m 1413.3061,1185.1713 a 14.673633,14.632992 0 0 0 -14.5411,12.9473 14.673633,14.632992 0 0 0 -12.8496,14.4902 14.673633,14.632992 0 0 0 14.6719,14.6328 14.673633,14.632992 0 0 0 14.5411,-12.9472 14.673633,14.632992 0 0 0 12.8515,-14.4903 14.673633,14.632992 0 0 0 -14.6738,-14.6328 z"
         class="ThickOutline" /></g></g></svg>
