<?xml version="1.0" encoding="UTF-8" standalone="no"?>
<!-- Created with Inkscape (http://www.inkscape.org/) -->

<svg
   width="48"
   height="48.000031"
   viewBox="0 0 48.000001 48.000031"
   version="1.1"
   id="svg1387"
   xml:space="preserve"
   xmlns="http://www.w3.org/2000/svg"
   xmlns:svg="http://www.w3.org/2000/svg"><defs
     id="defs1384"><clipPath
       clipPathUnits="userSpaceOnUse"
       id="clipPath306"><g
         id="g310"
         style="stroke-width:1"
         transform="rotate(45)"><rect
           width="40.71373"
           height="40.71373"
           fill="#4d4d4d"
           id="rect308"
           x="-4.3670888"
           y="-4.8910847"
           style="stroke-width:1" /></g></clipPath></defs><g
     id="layer2"
     style="display:inline"
     transform="translate(-910.76133,-746.87104)"><g
       id="g14526"
       transform="matrix(0.5919014,0.5919014,-0.5919014,0.5919014,859.07392,-340.41768)"
       style="stroke-width:1.19464"><path
         id="ellipse2485"
         clip-path="url(#clipPath306)"
         style="fill:#37b24d;fill-opacity:1;stroke:#f2f2f2;stroke-width:2.38927;stroke-dasharray:none"
         transform="matrix(0,-1.5,1.5,0,968.71713,874.76517)"
         d="M 16.510757,22.642336 A 16.539953,10.743896 0 0 1 -0.02919645,33.386231 16.539953,10.743896 0 0 1 -16.56915,22.642336 16.539953,10.743896 0 0 1 -0.02919645,11.89844 16.539953,10.743896 0 0 1 16.510757,22.642336 Z" /><path
         style="fill:none;fill-opacity:1;stroke:#f2f2f2;stroke-width:1.79195;stroke-linecap:square;stroke-linejoin:round;stroke-opacity:0.992085;paint-order:markers fill stroke"
         d="m 986.56479,874.98875 c 0,0 11.89897,9.51917 32.23161,2e-5"
         id="path1637" /><path
         style="fill:none;fill-opacity:1;stroke:#f2f2f2;stroke-width:1.79195;stroke-linecap:round;stroke-linejoin:round;stroke-dasharray:0.179195, 2.68793;stroke-dashoffset:0;stroke-opacity:0.992085;paint-order:markers fill stroke"
         d="m 986.56479,874.98875 c 0,0 12.94036,-8.86774 32.23161,2e-5"
         id="path1734" /></g><g
       id="g14404-9-8"
       style="display:inline"
       transform="translate(-7.4769015,97.487396)"><path
         d="m 950.41245,684.43529 c 0,-1.5892 1.2882,-2.87742 2.8774,-2.87742 h 10.071 c 1.5892,0 2.8774,1.28822 2.8774,2.87742 v 10.07095 c 0,1.5892 -1.2882,2.87742 -2.8774,2.87742 h -10.071 c -1.5892,0 -2.8774,-1.28822 -2.8774,-2.87742 z"
         fill="#f2f2f2"
         id="path12-71-0-8"
         style="display:inline;stroke-width:1.51825" /><rect
         x="953.93311"
         y="688.37268"
         width="8.7844658"
         height="2.1961164"
         id="rect517-6-3-5"
         style="display:inline;fill:#343a40;stroke-width:1.63179" /><rect
         x="685.07849"
         y="-959.42334"
         width="8.7844658"
         height="2.1961164"
         id="rect517-6-6-4-1"
         style="display:inline;fill:#343a40;stroke-width:1.63179"
         transform="rotate(90)" /></g></g></svg>
