<?xml version="1.0" encoding="UTF-8" standalone="no"?>
<!-- Created with Inkscape (http://www.inkscape.org/) -->

<svg
   width="48"
   height="48"
   viewBox="0 0 48.000001 48"
   version="1.1"
   id="svg1387"
   xml:space="preserve"
   xmlns="http://www.w3.org/2000/svg"
   xmlns:svg="http://www.w3.org/2000/svg"><defs
     id="defs1384" /><g
     id="layer2"
     style="display:inline"
     transform="translate(-161.32607,-829.92744)"><g
       id="g6726"
       transform="translate(-64.267781,874.04182)"><g
         id="g5056"
         transform="translate(97.498829,19.815625)"><path
           id="path110304-29-6-9-5-9-6"
           style="display:inline;fill:#40c057;fill-opacity:1;stroke:#f5f4f4;stroke-width:1.5;stroke-linecap:round;stroke-linejoin:round;stroke-miterlimit:1;stroke-dasharray:none;stroke-dashoffset:0.25;stroke-opacity:1"
           d="m 142.3696,-48.13658 v 23.009766 a 10.383399,2.8244003 0 0 0 10.38357,2.824855 10.383399,2.8244003 0 0 0 10.38348,-2.824855 V -48.13658 Z" /><path
           id="path127368-6-8-3-8"
           style="display:inline;fill:#4c6ef5;fill-opacity:1;stroke:#f5f4f4;stroke-width:1.49999;stroke-linecap:round;stroke-linejoin:miter;stroke-dasharray:none;stroke-opacity:1"
           d="m 138.45591,-47.474071 -4.68873,14.981394 33.56012,0.238725 3.18764,-14.780683 z" /><path
           id="path110304-29-6-9-5-9"
           style="display:inline;fill:#40c057;fill-opacity:1;stroke:#f5f4f4;stroke-width:1.5;stroke-linecap:round;stroke-linejoin:round;stroke-miterlimit:1;stroke-dasharray:none;stroke-dashoffset:0.25;stroke-opacity:1"
           d="m 142.36959,-54.733441 v 14.286413 c -9.2e-4,1.560068 4.64826,2.82488 10.38357,2.824855 5.73528,1.2e-5 10.3844,-1.264796 10.38348,-2.824855 v -14.286413 z" /><ellipse
           style="display:inline;fill:#40c057;fill-opacity:1;stroke:#f5f4f4;stroke-width:1.5;stroke-linecap:round;stroke-linejoin:round;stroke-miterlimit:1;stroke-dasharray:none;stroke-dashoffset:0.25;stroke-opacity:1"
           id="path110304-29-0-1-0"
           cx="152.75279"
           cy="-54.733574"
           rx="10.383398"
           ry="2.8244002" /></g><path
         id="path110304-29-6-9-5-9-6-9"
         style="display:inline;fill:none;fill-opacity:1;stroke:#f5f4f4;stroke-width:3;stroke-linecap:round;stroke-linejoin:miter;stroke-miterlimit:3;stroke-dasharray:none;stroke-dashoffset:0.25;stroke-opacity:1"
         d="m 248.75977,-38.464844 c -2.84876,0.178869 -5.83411,0.395488 -8.39454,1.767578 -0.82125,0.45002 -1.38961,1.321341 -1.24609,2.279297 0,2.017578 0,4.035157 0,6.052735 -1.23763,-0.01696 -2.47526,-0.03349 -3.71289,-0.05078 -1.71785,5.494625 -3.43883,10.988273 -5.1582,16.482422 2.95702,0.02229 5.91406,0.04148 8.87109,0.0625 0.0341,2.2806369 -0.0681,4.5791548 0.0509,6.8486547 0.31802,1.3521761 1.84165,1.8532737 3.00969,2.2743924 4.08016,1.1485903 8.40383,1.2013145 12.59305,0.7333436 2.0629,-0.319122 4.27184,-0.6359655 5.96554,-1.9540467 0.95923,-0.8530443 0.56775,-2.2137611 0.64649,-3.3417969 0,-1.4667968 0,-2.9335941 0,-4.4003911 1.34895,0.0091 2.69791,0.0187 4.04687,0.02734 1.16641,-5.425092 2.33894,-10.848872 3.50781,-16.273437 -2.51825,-0.03274 -5.03645,-0.06923 -7.55468,-0.103516 -0.0336,-2.379024 0.0673,-4.775649 -0.0507,-7.143607 -0.31354,-1.35582 -1.84151,-1.856097 -3.0098,-2.278268 -3.09247,-0.906172 -6.36007,-1.068989 -9.56445,-0.982422 z" /></g></g></svg>
