<?xml version="1.0" encoding="UTF-8" standalone="no"?>
<!-- Created with Inkscape (http://www.inkscape.org/) -->

<svg
   width="48"
   height="48.000031"
   viewBox="0 0 48.000001 48.000031"
   version="1.1"
   id="svg1387"
   xml:space="preserve"
   xmlns="http://www.w3.org/2000/svg"
   xmlns:svg="http://www.w3.org/2000/svg"><defs
     id="defs1384"><style
       id="style5037"><![CDATA[
.MeshFillArea {
  display:inline;
  fill:#40c057;
  fill-opacity:1;
  stroke:#f5f4f4;
  stroke-dasharray:0.166358, 2.49537;
  stroke-dashoffset:0;
  stroke-linecap:round;
  stroke-linejoin:round;
  stroke-miterlimit:1;
  stroke-opacity:1;
  stroke-width:1.66358;
}

.ThickOutline {
  display:inline;
  fill:none;
  fill-opacity:1;
  stroke:#f5f4f4;
  stroke-dasharray:none;
  stroke-dashoffset:0;
  stroke-linecap:round;
  stroke-linejoin:miter;
  stroke-miterlimit:5;
  stroke-opacity:1;
  stroke-width:3
;
}
]]></style></defs><g
     id="layer2"
     style="display:inline"
     transform="translate(-790.76133,-806.87104)"><path
       id="path129531"
       style="display:inline;opacity:1;fill:#35b24d;fill-opacity:0.992157;stroke:#f3f1f1;stroke-width:3;stroke-linecap:round;stroke-miterlimit:1.6;stroke-dasharray:none"
       d="m 814.74511,808.72697 c -3.21132,1.5e-4 -5.81461,2.6215 -5.81472,5.85526 0.006,2.16675 1.19974,4.15296 3.10316,5.16341 h -3.68562 -9.34342 v 8.5729 c 0.0607,-0.12624 0.12489,-0.24979 0.19367,-0.37013 0.0686,-0.12004 0.14295,-0.2363 0.21914,-0.35023 2.1e-4,-2.9e-4 -2.2e-4,-10e-4 0,-10e-4 0.0762,-0.11393 0.15692,-0.22421 0.24033,-0.33172 2.3e-4,-2.9e-4 -2.2e-4,-10e-4 0,-10e-4 0.0834,-0.10743 0.16991,-0.21086 0.26014,-0.31174 2.2e-4,-2.2e-4 -2.4e-4,-10e-4 0,-10e-4 0.0902,-0.10087 0.18472,-0.19796 0.28133,-0.29184 1.06557,-1.03567 2.50535,-1.64239 4.03764,-1.64283 1.60595,-3.6e-4 3.06005,0.65439 4.11258,1.71397 0.52597,0.52953 0.9526,1.16052 1.24692,1.86069 1.7e-4,3.6e-4 -1.7e-4,7.3e-4 0,10e-4 0.0734,0.17478 0.1386,0.35372 0.1951,0.53667 1.3e-4,4.4e-4 -1.3e-4,7.3e-4 0,10e-4 0.1133,0.3667 0.19212,0.74798 0.23185,1.14172 0.0198,0.19687 0.0297,0.39717 0.0297,0.59936 -10e-6,0.20212 -0.01,0.40242 -0.0297,0.59929 -0.0397,0.39374 -0.11855,0.77502 -0.23185,1.14172 -1.3e-4,4.4e-4 1.3e-4,7.3e-4 0,10e-4 -0.0565,0.18295 -0.12169,0.36196 -0.1951,0.53668 -1.7e-4,4.3e-4 1.7e-4,7.3e-4 0,10e-4 -0.29432,0.7001 -0.72095,1.33109 -1.24692,1.86062 -1.05253,1.05965 -2.50663,1.71434 -4.11258,1.71404 -1.53229,-5.1e-4 -2.97207,-0.60723 -4.03764,-1.64282 -0.0966,-0.094 -0.19106,-0.19105 -0.28133,-0.29185 -2.5e-4,-2.9e-4 2.3e-4,-0.001 0,-0.001 -0.0902,-0.1008 -0.17667,-0.2043 -0.26014,-0.31174 -2.3e-4,-2.9e-4 2.3e-4,-10e-4 0,-10e-4 -0.0834,-0.10744 -0.16409,-0.21779 -0.24033,-0.33164 -2.3e-4,-3.6e-4 2.2e-4,-7.3e-4 0,-10e-4 -0.0762,-0.11385 -0.15054,-0.23018 -0.21914,-0.35023 -2e-4,-3.6e-4 2.1e-4,-7.2e-4 0,-10e-4 -0.0685,-0.12005 -0.13314,-0.24287 -0.19367,-0.36875 v 8.5729 h 9.34342 3.68562 c -1.90342,1.01045 -3.09737,2.99666 -3.10316,5.16341 1.1e-4,3.23376 2.6034,5.85511 5.81472,5.85526 0.005,0 0.0105,7e-5 0.0156,0 h 0.0169 c 3.21133,-1.5e-4 5.81462,-2.6215 5.81473,-5.85526 -0.006,-2.16675 -1.19976,-4.15296 -3.10317,-5.16341 h 3.68421 9.34484 v -8.5729 c -0.0605,0.12588 -0.12512,0.2487 -0.19369,0.36875 -2.1e-4,3.6e-4 2.1e-4,7.3e-4 0,10e-4 -0.13739,0.24039 -0.29238,0.46809 -0.45947,0.68333 -2.3e-4,2.9e-4 2.4e-4,0.001 0,0.001 -0.0834,0.10744 -0.16989,0.21094 -0.26012,0.31174 -2.5e-4,2.9e-4 2.4e-4,10e-4 0,10e-4 -0.0903,0.1008 -0.18471,0.19789 -0.28133,0.29185 -1.06558,1.03559 -2.50536,1.64231 -4.03765,1.64282 -1.60594,3e-4 -3.06004,-0.65439 -4.11258,-1.71404 -0.52597,-0.52953 -0.9526,-1.16052 -1.24692,-1.86062 -0.0737,-0.17558 -0.13838,-0.35569 -0.1951,-0.53959 -0.1133,-0.3667 -0.19213,-0.74798 -0.23185,-1.14172 -0.0198,-0.19687 -0.0298,-0.39717 -0.0297,-0.59929 10e-6,-0.20219 0.01,-0.40249 0.0297,-0.59936 0.0397,-0.39374 0.11855,-0.77502 0.23185,-1.14172 0.0567,-0.1839 0.12136,-0.36393 0.1951,-0.53952 0.29432,-0.70016 0.72095,-1.33116 1.24692,-1.86069 1.05254,-1.05958 2.50664,-1.71433 4.11258,-1.71397 1.53229,4.4e-4 2.97207,0.60716 4.03765,1.64283 0.0966,0.0939 0.19107,0.19097 0.28133,0.29185 2.2e-4,2.1e-4 -2.3e-4,10e-4 0,10e-4 0.0902,0.10088 0.17668,0.20431 0.26012,0.31175 0.0839,0.10809 0.16371,0.22005 0.24034,0.33455 0.0762,0.11393 0.15056,0.23019 0.21913,0.35023 2e-4,3.7e-4 -2e-4,7.3e-4 0,0.001 0.0686,0.11997 0.13317,0.24279 0.19369,0.36867 v -8.5729 h -9.34484 -3.68421 c 1.90341,-1.01045 3.09737,-2.99666 3.10317,-5.16341 -1.1e-4,-3.23376 -2.6034,-5.85511 -5.81473,-5.85526 -0.006,0 -0.0112,0.001 -0.0169,0.001 -0.005,-7e-5 -0.0103,-0.001 -0.0156,-0.001 z" /></g></svg>
