<?xml version="1.0" encoding="UTF-8" standalone="no"?>
<!-- Created with Inkscape (http://www.inkscape.org/) -->

<svg
   width="48"
   height="48"
   viewBox="0 0 48.000001 48"
   version="1.1"
   id="svg1387"
   xml:space="preserve"
   xmlns="http://www.w3.org/2000/svg"
   xmlns:svg="http://www.w3.org/2000/svg"><defs
     id="defs1384"><style
       id="style5037"><![CDATA[
.MeshFillArea {
  display:inline;
  fill:#40c057;
  fill-opacity:1;
  stroke:#f5f4f4;
  stroke-dasharray:0.166358, 2.49537;
  stroke-dashoffset:0;
  stroke-linecap:round;
  stroke-linejoin:round;
  stroke-miterlimit:1;
  stroke-opacity:1;
  stroke-width:1.66358;
}

.ThickOutline {
  display:inline;
  fill:none;
  fill-opacity:1;
  stroke:#f5f4f4;
  stroke-dasharray:none;
  stroke-dashoffset:0;
  stroke-linecap:round;
  stroke-linejoin:miter;
  stroke-miterlimit:5;
  stroke-opacity:1;
  stroke-width:3
;
}
]]></style></defs><g
     id="layer2"
     style="display:inline"
     transform="translate(-790.76133,-746.87104)"><g
       id="g6251"
       transform="matrix(1.1634133,0,0,1.1678691,209.17879,-357.47334)"
       style="stroke-width:0.857898"><path
         id="path428-3-6-5-6-1-3"
         style="display:inline;fill:#319745;fill-opacity:1;stroke:#ffffff;stroke-width:1.28685;stroke-linecap:round;stroke-miterlimit:1.9;stroke-dasharray:none;stroke-dashoffset:0;paint-order:markers fill stroke"
         d="m 534.60147,956.7936 c -3.83061,2.1762 -8.8597,3.3895 -14.08594,3.3984 -5.21021,-0.01 -10.22471,-1.216 -14.05078,-3.3808 l -0.0293,0.016 c -1.81377,2.7688 -2.78266,6.0115 -2.78711,9.3281 0.004,3.3166 0.97334,6.5593 2.78711,9.3281 l 0.0371,0.018 c 0.0234,0.012 0.0468,0.025 0.0703,0.037 0.53207,0.2955 1.08881,0.5738 1.66796,0.834 0.2139,0.095 0.43073,0.1874 0.65039,0.2773 0.43763,0.183 0.88653,0.3556 1.34571,0.5176 0.22477,0.081 0.45202,0.1602 0.68164,0.2364 0.60819,0.1972 1.23201,0.3758 1.86914,0.5351 0.0734,0.021 0.14694,0.041 0.2207,0.061 0.026,0.01 0.0521,0.011 0.0781,0.016 0.67851,0.1594 1.37021,0.297 2.07226,0.4121 0.25853,0.042 0.51835,0.08 0.7793,0.1152 0.51621,0.073 1.03678,0.1333 1.56055,0.1817 0.25514,0.026 0.51104,0.048 0.76757,0.068 0.75909,0.056 1.52262,0.086 2.28711,0.09 0.76906,0 1.53717,-0.034 2.30079,-0.09 0.23887,-0.019 0.47718,-0.04 0.71484,-0.064 0.57002,-0.052 1.13626,-0.1184 1.69726,-0.1992 0.2104,-0.029 0.42007,-0.059 0.62891,-0.092 0.75448,-0.1215 1.49719,-0.2688 2.22461,-0.4414 0.71827,-0.1764 1.41988,-0.3773 2.10156,-0.6016 0.20373,-0.068 0.40559,-0.1385 0.60547,-0.2109 0.4954,-0.1739 0.97889,-0.3603 1.44922,-0.5586 0.19096,-0.078 0.37979,-0.1583 0.56641,-0.2403 0.62589,-0.2794 1.22579,-0.58 1.79687,-0.9004 1.81377,-2.7688 2.78266,-6.0115 2.78711,-9.3281 -3.2e-4,-3.3287 -0.97221,-6.584 -2.79492,-9.3613 z" /><path
         id="path428-3-6-5-6-1-2"
         style="display:inline;fill:#34b24d;fill-opacity:0.992157;stroke:#ffffff;stroke-width:1.28685;stroke-linecap:round;stroke-linejoin:round;stroke-miterlimit:0;stroke-dasharray:none;stroke-dashoffset:0;paint-order:markers fill stroke"
         d="m 523.41782,953.5645 4.78515,6.2207 -3.97851,7.1856 3.39257,5.9277 c 2.58718,0.5704 4.96378,1.4494 6.99219,2.5859 1.81377,-2.7688 2.78266,-6.0115 2.78711,-9.3281 -3.2e-4,-3.3287 -0.97221,-6.584 -2.79492,-9.3613 -3.10627,-1.7462 -7.00671,-2.8729 -11.18359,-3.2305 z m -6.68555,0.1094 c -3.84899,0.4371 -7.41818,1.5305 -10.29688,3.1543 -1.81377,2.7688 -2.78266,6.0115 -2.78711,9.3281 0.004,3.3166 0.97334,6.5593 2.78711,9.3281 l 0.0371,0.018 c 3.60389,-2.0293 8.2623,-3.2148 13.1543,-3.3476 l -2.36719,-5.2774 3.25586,-5.7578 z" /><path
         id="path428-3-6-5-6-1-3-7"
         style="display:inline;fill:none;fill-opacity:1;stroke:#ffffff;stroke-width:2.5737;stroke-linecap:round;stroke-miterlimit:1.9;stroke-dasharray:none;stroke-dashoffset:0;paint-order:markers fill stroke"
         d="m 522.77539,953.56445 c 0.0726,0.62607 0.73938,1.04952 1.04745,1.59514 0.97181,1.26321 1.94363,2.52642 2.91544,3.78963 -2.07199,0.41154 -4.18495,0.60961 -6.29687,0.61133 -1.11342,-2.18939 -2.22573,-4.37933 -3.33985,-6.56836 -3.8705,0.40769 -7.71554,1.43829 -11.11914,3.35937 -3.22166,4.76742 -3.89067,11.135 -1.67349,16.45138 0.48471,1.11983 1.01026,2.28712 1.77176,3.22406 5.59965,3.05246 12.20274,3.9916 18.49306,3.23925 3.66157,-0.42101 7.26124,-1.50139 10.48875,-3.29359 3.22729,-4.77838 3.88872,-11.1567 1.67284,-16.48433 -0.46654,-1.17434 -1.08636,-2.28061 -1.77831,-3.33599 -0.91189,-0.27421 -1.75778,-0.87082 -2.68481,-1.18319 -3.01941,-1.23357 -6.25381,-1.862 -9.49683,-2.11368 0,0.23633 0,0.47266 0,0.70898 z" /></g></g></svg>
