<?xml version="1.0" encoding="UTF-8" standalone="no"?>
<!-- Created with Inkscape (http://www.inkscape.org/) -->

<svg
   width="48"
   height="48"
   viewBox="0 0 48.000001 48"
   version="1.1"
   id="svg1387"
   xml:space="preserve"
   xmlns="http://www.w3.org/2000/svg"
   xmlns:svg="http://www.w3.org/2000/svg"><defs
     id="defs1384"><style
       id="style5037"><![CDATA[
.MeshFillArea {
  display:inline;
  fill:#40c057;
  fill-opacity:1;
  stroke:#f5f4f4;
  stroke-dasharray:0.166358, 2.49537;
  stroke-dashoffset:0;
  stroke-linecap:round;
  stroke-linejoin:round;
  stroke-miterlimit:1;
  stroke-opacity:1;
  stroke-width:1.66358;
}

.ThickOutline {
  display:inline;
  fill:none;
  fill-opacity:1;
  stroke:#f5f4f4;
  stroke-dasharray:none;
  stroke-dashoffset:0;
  stroke-linecap:round;
  stroke-linejoin:miter;
  stroke-miterlimit:5;
  stroke-opacity:1;
  stroke-width:3
;
}
]]></style><clipPath
       clipPathUnits="userSpaceOnUse"
       id="clipPath4296"><path
         id="path4298"
         style="color:#000000;display:none;opacity:0.534274;fill:#00ffff;stroke-width:1;stroke-linecap:round;stroke-linejoin:round;stroke-miterlimit:1.9;stroke-dashoffset:0.6;-inkscape-stroke:none"
         d="m 1388.0748,732.07208 c -2.4999,0.17838 -4.8499,1.18412 -6.7234,2.76118 -3.8999,3.3298 -5.1781,9.35945 -2.7934,13.93291 2.1811,4.46407 7.4819,7.16084 12.3654,6.21295 1.403,2.6778 3.008,5.2686 4.4943,7.90992 0.961,1.54515 1.7449,3.22514 2.8743,4.65122 1.9086,1.91747 5.6135,1.11333 6.4929,-1.47035 0.7838,-1.86271 -0.3429,-3.74521 -1.3299,-5.27583 -1.8868,-3.26876 0.5398,-6.02425 -1.3469,-9.29301 3.5735,-4.17414 1.1636,-13.38408 -2.5799,-17.44415 -2.3373,-2.68241 -7.9082,-2.24429 -11.4534,-1.98484 z m 1.2569,5.97607 c 3.3448,0.15064 5.9163,3.7999 4.9621,7.00616 -0.7976,3.1864 -4.727,5.08855 -7.6987,3.62382 -2.8817,-1.28454 -4.2168,-5.21384 -2.478,-7.91077 1.0512,-1.78219 3.1496,-2.88158 5.2146,-2.71921 z" /><path
         id="lpe_path-effect4300"
         style="color:#000000;display:inline;opacity:0.534274;fill:#00ffff;stroke-width:1;stroke-linecap:round;stroke-linejoin:round;stroke-miterlimit:1.9;stroke-dashoffset:0.6;-inkscape-stroke:none"
         class="powerclip"
         d="m 1354.8516,729.95702 h 47.2246 v 47.33882 h -47.2246 z m 33.2232,2.11506 c -2.4999,0.17838 -4.8499,1.18412 -6.7234,2.76118 -3.8999,3.3298 -5.1781,9.35945 -2.7934,13.93291 2.1811,4.46407 7.4819,7.16084 12.3654,6.21295 1.403,2.6778 3.008,5.2686 4.4943,7.90992 0.961,1.54515 1.7449,3.22514 2.8743,4.65122 1.9086,1.91747 5.6135,1.11333 6.4929,-1.47035 0.7838,-1.86271 -0.3429,-3.74521 -1.3299,-5.27583 -1.8868,-3.26876 0.5398,-6.02425 -1.3469,-9.29301 3.5735,-4.17414 1.1636,-13.38408 -2.5799,-17.44415 -2.3373,-2.68241 -7.9082,-2.24429 -11.4534,-1.98484 z m 1.2569,5.97607 c -2.065,-0.16237 -4.1634,0.93702 -5.2146,2.71921 -1.7388,2.69693 -0.4037,6.62623 2.478,7.91077 2.9717,1.46473 6.9011,-0.43742 7.6987,-3.62382 0.9542,-3.20626 -1.6173,-6.85552 -4.9621,-7.00616 z" /></clipPath></defs><g
     id="layer2"
     style="display:inline"
     transform="translate(-1357.7068,-728.8111)"><g
       id="g4317"
       transform="translate(1.4628718,-0.47499812)"><g
         id="g27456"
         transform="translate(-1.4546546,0.36596278)"
         clip-path="url(#clipPath4296)"><path
           style="display:inline;fill:#37b24d;fill-opacity:1;stroke:none;stroke-width:2.94576;stroke-linecap:square;stroke-dasharray:none;stroke-opacity:1;paint-order:markers fill stroke"
           d="M 1362.1011,770.00663 V 744.8362 l 7.5624,-7.62917 h 25.1627 v 24.91678 l -7.8525,7.92184 z"
           id="path1390-81-9-7" /><path
           style="fill:#319745;fill-opacity:1;stroke:none;stroke-width:0.999993px;stroke-linecap:butt;stroke-linejoin:miter;stroke-opacity:1"
           d="m 1394.8262,762.12381 -7.8525,7.92184 -24.8726,-0.0389 8.5598,-7.88282 z"
           id="path11729-7-6" /><path
           style="fill:#89b4fa;fill-opacity:0.8;stroke:#f2f2f2;stroke-width:1.5;stroke-linecap:square;stroke-dasharray:none;stroke-opacity:1;paint-order:markers fill stroke"
           d="m 1386.065,746.3671 v 23.40497"
           id="path1807-3-5" /><path
           style="display:inline;fill:#89b4fa;fill-opacity:0.8;stroke:#f2f2f2;stroke-width:1.5;stroke-linecap:round;stroke-dasharray:0.15, 2.25;stroke-dashoffset:3.75;stroke-opacity:1;paint-order:markers fill stroke"
           d="m 1370.6609,738.71884 v 23.40497"
           id="path1807-5-6-6" /><path
           style="fill:#89b4fa;fill-opacity:0.8;stroke:#f2f2f2;stroke-width:1.5;stroke-linecap:round;stroke-dasharray:none;stroke-opacity:1;paint-order:markers fill stroke"
           d="m 1394.8262,737.20703 -8.7499,7.98042"
           id="path1809-12-9" /><path
           style="display:inline;fill:#89b4fa;fill-opacity:0.8;stroke:#f2f2f2;stroke-width:1.5;stroke-linecap:round;stroke-dasharray:0.15, 2.25;stroke-dashoffset:0.9;stroke-opacity:1;paint-order:markers fill stroke"
           d="m 1370.8511,762.02621 -8.75,7.98042"
           id="path1809-6-9-3" /><path
           style="fill:#89b4fa;fill-opacity:0.8;stroke:#f2f2f2;stroke-width:1.5;stroke-linecap:round;stroke-dasharray:none;stroke-opacity:1;paint-order:markers fill stroke"
           d="m 1361.917,745.18745 h 24.1653"
           id="path1811-3-7" /><path
           style="display:inline;fill:#89b4fa;fill-opacity:0.8;stroke:#f2f2f2;stroke-width:1.5;stroke-linecap:round;stroke-dasharray:0.15, 2.25;stroke-dashoffset:0.599999;stroke-opacity:1;paint-order:markers fill stroke"
           d="m 1370.6609,762.12381 h 24.1653"
           id="path1811-6-1-4" /><path
           style="fill:#1c7ed6;stroke:#f2f2f2;stroke-width:0;stroke-linecap:square;stroke-linejoin:round;stroke-dasharray:none;stroke-opacity:1;paint-order:markers fill stroke"
           d="m 1394.2124,737.76685 -32.1113,7.06935"
           id="path1706-9-5" /><path
           style="fill:none;fill-opacity:1;stroke:#f2f2f2;stroke-width:1.5;stroke-linecap:square;stroke-dasharray:none;stroke-opacity:1;paint-order:markers fill stroke"
           d="M 1362.1011,770.00663 V 744.8362 l 7.5624,-7.62917 h 25.1627 v 24.91678 l -7.8525,7.92184 z"
           id="path1390-4-2" /><path
           id="path1390-81-9-7-3"
           style="display:inline;fill:none;fill-opacity:1;stroke:#ffffff;stroke-width:3;stroke-linecap:square;stroke-dasharray:none;stroke-opacity:1;paint-order:markers fill stroke"
           d="m 1369.1309,736.67969 c -2.5931,2.61589 -5.1863,5.23172 -7.7793,7.84765 0,8.74219 0,17.48438 0,26.22657 8.6451,0.015 17.2903,0.0281 25.9355,0.041 2.7631,-2.78774 5.5261,-5.57551 8.2891,-8.36328 0,-8.6582 0,-17.31641 0,-25.97461 -8.7416,0 -17.4831,0 -26.2246,0 -0.074,0.0742 -0.1472,0.14844 -0.2207,0.22266 z" /></g><path
         id="path26598-6"
         style="color:#000000;fill:#f2f2f2;stroke-width:1;stroke-linecap:round;stroke-linejoin:round;stroke-miterlimit:1.9;stroke-dashoffset:0.6;-inkscape-stroke:none"
         d="m 1382.422,735.25384 c -4.7968,2.76955 -6.4519,8.9461 -3.6825,13.74299 2.3449,4.06117 7.1309,5.87011 11.4551,4.64923 0.037,0.10112 0.081,0.19928 0.1301,0.29479 l 7.1018,12.30065 c 0.6908,1.19446 2.2188,1.60336 3.4139,0.91347 1.1957,-0.69035 1.6054,-2.21933 0.9151,-3.41504 l -7.1018,-12.30067 c -0.055,-0.0929 -0.118,-0.1804 -0.1816,-0.2673 3.2105,-3.1354 4.034,-8.18091 1.692,-12.23744 -2.7695,-4.79686 -8.9478,-6.45092 -13.7447,-3.68151 z m 1.5,2.59806 c 3.3928,-1.95887 7.6877,-0.80942 9.6466,2.58357 1.9588,3.39279 0.8087,7.69041 -2.5855,9.6489 -3.3928,1.95877 -7.6879,0.80498 -9.6469,-2.58748 -1.9589,-3.39277 -0.8085,-7.68599 2.5843,-9.64487 z" /></g></g></svg>
