<?xml version="1.0" encoding="UTF-8" standalone="no"?>
<!-- Created with Inkscape (http://www.inkscape.org/) -->

<svg
   width="48"
   height="48"
   viewBox="0 0 48.000001 48"
   version="1.1"
   id="svg1387"
   xml:space="preserve"
   xmlns="http://www.w3.org/2000/svg"
   xmlns:svg="http://www.w3.org/2000/svg"><defs
     id="MeshDefs"><style
       id="GR-Mesh"><![CDATA[.IconOutline {
  stroke:#f5f4f4;
  fill:none;
  stroke-width:1.5;
}

.ThinDotOutline {
  stroke-dasharray:0.1, 2.5;
  stroke-linecap:round;
  stroke-width:1.5;
}

.ThickDotOutline {
  stroke-dasharray:0.1, 5;
  stroke-linecap:round;
  stroke-width:3;
}
.ThickOutline {
  stroke-linejoin:miter;
  stroke-miterlimit:3;
  stroke-opacity:1;
  stroke-width:3;
}

.MeshFillArea {
  display:inline;
  fill:#7950f2;
  fill-opacity:1;
}

.MeshFillAreaDark {
  display:inline;
  fill:#6b4cc8;
  fill-opacity:1;
}

.BgFillArea {
  fill: #495057;
 }

.ImportArrow {
  fill:#40c057;
  fill-opacity:1;
  stroke:none;
}
.ExportArrow {
  fill:#f03e3e;
  fill-opacity:1;
  stroke:none;
}
.GenericArrow {
  fill:#F5F4F4;
  fill-opacity:1;
  stroke:none;
}
]]></style></defs><g
     id="layer2"
     style="display:inline"
     transform="translate(-58.761345,-710.87104)"><path
       id="path1390-2-3-3-7-1-0-2-7-0-4-6-3-0-7-8-0-7"
       style="display:inline;fill:#495057;fill-opacity:1;stroke:#f5f4f4;stroke-width:1.5;stroke-linecap:square;stroke-dasharray:none;stroke-opacity:1;paint-order:markers fill stroke"
       d="m 100.98709,722.21096 v 19.57023 l -7.987964,4.02526 -19.77225,-3.48468 V 722.7829 l 7.98786,-4.04143 z" /><path
       style="fill:none;stroke:#f2f2f2;stroke-width:1.5;stroke-linecap:round;stroke-linejoin:miter;stroke-dasharray:none;stroke-dashoffset:1.05001;stroke-opacity:1"
       d="m 100.98709,722.21096 -6.981144,3.53157 2.2e-4,19.5545"
       id="path104545-1-11-6" /><path
       id="rect23330"
       style="opacity:1;fill:#f03e3e;stroke:#f2f2f2;stroke-width:1.5;stroke-dashoffset:2.70002"
       d="m 68.084876,718.5816 27.59465,4.84215 -0.22805,28.20341 -27.3666,-4.80206 z" /><path
       id="path1390-2-3-3-7-1-0-2-7-0-4-6-3-0-7-8-0"
       d="m 91.538896,726.99049 v 19.57023 l -7.98796,4.02526 -19.77225,-3.48468 v -19.53887 l 7.98786,-4.04143 z"
       class="MeshFillArea" /><path
       d="m 63.778686,727.56243 v 19.53887 l 19.77225,3.48468 z"
       id="path10710"
       class="MeshFillAreaDark" /><path
       d="m 83.550726,731.03149 2.1e-4,19.55449 7.98796,-4.02526 z"
       id="path10710-3"
       class="MeshFillAreaDark"
       style="display:inline;fill:#6b4cc8;fill-opacity:1" /><path
       d="m 63.778686,727.56243 27.76021,-0.57194 -19.77235,-3.46949 z"
       id="path10710-3-8"
       class="MeshFillAreaDark"
       style="display:inline;fill:#6b4cc8;fill-opacity:1" /><path
       style="fill:none;stroke:#f5f4f4;stroke-width:1.49999;stroke-linecap:butt;stroke-linejoin:miter;stroke-dasharray:none;stroke-opacity:1"
       d="m 91.538896,726.99049 -7.98817,4.041 2.1e-4,19.55449"
       id="path104545-1-11-6-3" /><path
       style="fill:none;stroke:#f5f4f4;stroke-width:1.49999;stroke-linecap:butt;stroke-linejoin:miter;stroke-dasharray:none;stroke-opacity:1"
       d="m 83.550726,731.03149 -19.77204,-3.46906"
       id="path69084-5-8-4-0-7-6-5" /><path
       id="path1390-2-3-3-7-1-0-2-7-0-4-6-3-0-7-8-0-3"
       d="m 91.538896,726.99049 v 19.57023 l -7.98796,4.02526 -19.77225,-3.48468 v -19.53887 l 7.98786,-4.04143 z"
       class="IconOutline" /><path
       id="path1390-2-3-3-7-1-0-2-7-0-4-6-3-0-7-8-0-7-6"
       class="IconOutline ThickOutline"
       d="m 67.335938,718.58008 c -10e-7,2.11393 -10e-7,4.22786 0,6.3418 -1.435476,0.72605 -2.871601,1.45082 -4.306641,2.17773 0,6.8763 0,13.7526 0,20.62891 6.878861,1.21314 13.757679,2.42654 20.636719,3.63867 0.735537,-0.28065 1.404953,-1.00095 2.232425,-0.65631 3.431574,0.60325 6.863732,1.2032 10.294918,1.80865 0.02158,-2.50454 0.0402,-5.00911 0.06055,-7.51367 1.827977,-0.92217 3.657239,-1.84179 5.484371,-2.76563 0,-6.88606 0,-13.77213 0,-20.6582 -6.879425,-1.20841 -13.75917,-2.41502 -20.638668,-3.62305 -1.086456,0.50195 -2.145889,1.17508 -3.246931,1.57451 -3.505579,-0.61533 -7.011169,-1.23061 -10.51674,-1.84599 0,0.29753 0,0.59505 0,0.89258 z" /></g></svg>
