<?xml version="1.0" encoding="UTF-8" standalone="no"?>
<!-- Created with Inkscape (http://www.inkscape.org/) -->

<svg
   width="48"
   height="47.999985"
   viewBox="0 0 48.000001 47.999985"
   version="1.1"
   id="svg1387"
   xml:space="preserve"
   xmlns="http://www.w3.org/2000/svg"
   xmlns:svg="http://www.w3.org/2000/svg"><defs
     id="MeshDefs"><style
       id="GR-Mesh"><![CDATA[.IconOutline {
  stroke:#f5f4f4;
  fill:none;
  stroke-width:1.5;
}

.ThinDotOutline {
  stroke-dasharray:0.1, 2.5;
  stroke-linecap:round;
  stroke-width:1.5;
}

.ThickDotOutline {
  stroke-dasharray:0.1, 5;
  stroke-linecap:round;
  stroke-width:3;
}
.ThickOutline {
  stroke-linejoin:miter;
  stroke-miterlimit:3;
  stroke-opacity:1;
  stroke-width:3;
}

.MeshFillArea {
  display:inline;
  fill:#7950f2;
  fill-opacity:1;
}

.MeshFillAreaDark {
  display:inline;
  fill:#6b4cc8;
  fill-opacity:1;
}

.BgFillArea {
  fill: #495057;
 }

.ImportArrow {
  fill:#40c057;
  fill-opacity:1;
  stroke:none;
}
.ExportArrow {
  fill:#f03e3e;
  fill-opacity:1;
  stroke:none;
}
.GenericArrow {
  fill:#F5F4F4;
  fill-opacity:1;
  stroke:none;
}
]]></style></defs><g
     id="layer2"
     style="display:inline"
     transform="translate(-202.76134,-638.87104)"><path
       id="path306-3-6-3"
       d="m 213.96768,644.97871 -4.08368,33.80335 27.38284,-14.26778 z"
       class="MeshFillArea IconOutline ThickOutline" /><path
       id="path1-5-4-2-3-1-3-7"
       d="m 221.11698,654.97938 6.9498,6.8875 -4.36374,0.005 -0.013,7.00418 h -5.19041 l 0.009,-6.99685 -4.29603,0.005 z"
       class="GenericArrow" /><path
       id="path1-5-4-2-3-1-3-7-3"
       d="m 246.07429,651.49522 -9.78321,0.0449 v 9.76562 l 3.03321,-3.04297 0.57617,-0.57812 c 2.34873,2.07289 3.50598,4.67519 3.40039,7.3164 -0.10863,2.71715 -1.55411,5.35509 -4.2207,7.33399 l 2.38281,3.21289 c 3.49516,-2.59378 5.67429,-6.34352 5.83594,-10.38672 0.1541,-3.85433 -1.55472,-7.56197 -4.57032,-10.3125 l 0.26368,-0.26367 z"
       class="GenericArrow" /></g></svg>
