<?xml version="1.0" encoding="UTF-8" standalone="no"?>
<!-- Created with Inkscape (http://www.inkscape.org/) -->

<svg
   width="48"
   height="48"
   viewBox="0 0 48.000001 48"
   version="1.1"
   id="svg1387"
   xml:space="preserve"
   xmlns="http://www.w3.org/2000/svg"
   xmlns:svg="http://www.w3.org/2000/svg"><defs
     id="MeshDefs"><style
       id="GR-Mesh"><![CDATA[.IconOutline {
  stroke:#f5f4f4;
  fill:none;
  stroke-width:1.5;
}

.ThinDotOutline {
  stroke-dasharray:0.1, 2.5;
  stroke-linecap:round;
  stroke-width:1.5;
}

.ThickDotOutline {
  stroke-dasharray:0.1, 5;
  stroke-linecap:round;
  stroke-width:3;
}
.ThickOutline {
  stroke-linejoin:miter;
  stroke-miterlimit:3;
  stroke-opacity:1;
  stroke-width:3;
}

.MeshFillArea {
  display:inline;
  fill:#7950f2;
  fill-opacity:1;
}

.MeshFillAreaDark {
  display:inline;
  fill:#6b4cc8;
  fill-opacity:1;
}

.BgFillArea {
  fill: #495057;
 }

.ImportArrow {
  fill:#40c057;
  fill-opacity:1;
  stroke:none;
}
.ExportArrow {
  fill:#f03e3e;
  fill-opacity:1;
  stroke:none;
}
.GenericArrow {
  fill:#F5F4F4;
  fill-opacity:1;
  stroke:none;
}
]]></style></defs><g
     id="layer2"
     style="display:inline"
     transform="translate(-778.76142,-854.87104)"><path
       d="m 816.86843,892.85427 v -21.25642 l -6.51311,-6.9862 h -21.6712 v 21.45498 l 6.7629,6.82125 z"
       id="path1390-81-6-9"
       class="MeshFillArea"
       style="display:inline;fill:#7950f2;fill-opacity:1;stroke-width:0.999998" /><path
       id="path11729-2-2-1"
       class="MeshFillAreaDark"
       d="m 795.44701,892.88788 21.42142,-0.0336 -21.43632,-21.13535 z m -6.76289,-28.27623 6.74799,7.10725 14.92321,-7.10725 z m 0,21.45498 6.7629,6.82125 -6.7629,-28.27623 z"
       style="display:inline;fill:#6b4cc8;fill-opacity:1;stroke-width:0.999998" /><path
       id="path1807-9-3-1-2"
       class="IconOutline"
       d="m 795.41721,871.83996 -6.21935,-6.62521 m 27.65569,6.50416 -21.42144,-1e-5 m 0,0 v 21.29003 m 21.42133,-0.0336 v -21.25645 l -6.513,-6.9862 h -21.67123 v 21.45498 l 6.7629,6.82125 z"
       style="display:inline;fill:none;stroke:#f5f4f4;stroke-width:1.5" /><path
       id="path1390-81-6-1-7"
       style="display:inline;fill:none;stroke:#f5f4f4;stroke-width:3;stroke-linejoin:miter;stroke-miterlimit:3;stroke-opacity:1"
       class="IconOutline ThickOutline"
       d="m 787.93359,864.61133 c 0,7.25456 0,14.50911 0,21.76367 2.40031,2.42131 4.80084,4.84239 7.20118,7.26367 7.49479,-0.0116 14.98958,-0.0235 22.48437,-0.0371 0,-7.43229 0,-14.86458 0,-22.29687 -2.31164,-2.48192 -4.62456,-4.96265 -6.9375,-7.44336 -7.58268,0 -15.16536,0 -22.74805,0 0,0.25 0,0.5 0,0.75 z" /><path
       d="m 782.26042,868.50822 -3e-5,-9.96219 10.01108,-0.0553"
       id="path4457"
       class="IconOutline ThickOutline" /><path
       d="m 823.26129,889.35357 3e-5,9.96219 -10.01108,0.0553"
       id="path4457-0"
       class="IconOutline ThickOutline"
       style="display:inline;fill:none;stroke:#f5f4f4;stroke-width:3;stroke-linejoin:miter;stroke-miterlimit:3;stroke-opacity:1" /></g></svg>
