<?xml version="1.0" encoding="UTF-8" standalone="no"?>
<!-- Created with Inkscape (http://www.inkscape.org/) -->

<svg
   width="48"
   height="48"
   viewBox="0 0 48.000001 48"
   version="1.1"
   id="svg1387"
   xml:space="preserve"
   xmlns="http://www.w3.org/2000/svg"
   xmlns:svg="http://www.w3.org/2000/svg"><defs
     id="MeshDefs"><style
       id="GR-Mesh"><![CDATA[.IconOutline {
  stroke:#f5f4f4;
  fill:none;
  stroke-width:1.5;
}

.ThinDotOutline {
  stroke-dasharray:0.1, 2.5;
  stroke-linecap:round;
  stroke-width:1.5;
}

.ThickDotOutline {
  stroke-dasharray:0.1, 5;
  stroke-linecap:round;
  stroke-width:3;
}
.ThickOutline {
  stroke-linejoin:miter;
  stroke-miterlimit:3;
  stroke-opacity:1;
  stroke-width:3;
}

.MeshFillArea {
  display:inline;
  fill:#7950f2;
  fill-opacity:1;
}

.MeshFillAreaDark {
  display:inline;
  fill:#6b4cc8;
  fill-opacity:1;
}

.BgFillArea {
  fill: #495057;
 }

.ImportArrow {
  fill:#40c057;
  fill-opacity:1;
  stroke:none;
}
.ExportArrow {
  fill:#f03e3e;
  fill-opacity:1;
  stroke:none;
}
.GenericArrow {
  fill:#F5F4F4;
  fill-opacity:1;
  stroke:none;
}
]]></style></defs><g
     id="layer2"
     style="display:inline"
     transform="translate(229.23865,-854.87104)"><path
       id="path1-5-4-2-3-1"
       d="m -185.90016,868.37137 -9.78445,0.044 3.08209,-3.08916 -4.94352,-4.96191 3.67018,-3.67017 4.94116,4.95388 3.03421,-3.04128 z"
       class="GenericArrow" /><path
       d="m -199.473,885.10595 v -18.44968 l -5.65334,-6.06372 h -18.81054 v 18.62201 l 5.8702,5.92057 z"
       id="path1390-81-6-5-4"
       class="MeshFillArea"
       style="display:inline;fill:#4c6ef5;fill-opacity:1;stroke-width:1" /><path
       id="path1807-9-3-1-5-4"
       class="IconOutline"
       d="m -218.09257,866.86642 -5.39837,-5.7504 m 24.00503,5.64533 h -18.59373 m 0,0 v 18.47884 m 18.59364,-0.0291 v -18.4497 l -5.65326,-6.06373 h -18.81055 v 18.62202 l 5.87017,5.92055 z"
       style="display:inline;fill:none;stroke:#f5f4f4;stroke-width:1.5" /><path
       d="m -187.22808,897.24283 v -18.44968 l -5.65335,-6.06373 h -18.81052 v 18.62202 l 5.87017,5.92056 z"
       id="path1390-81-6-5-43"
       class="MeshFillArea"
       style="display:inline;fill:#7950f2;fill-opacity:1;stroke-width:1" /><path
       id="path11729-2-2-2-0"
       class="MeshFillAreaDark"
       d="m -205.8218,897.272 18.59372,-0.0291 -18.60665,-18.3446 z m -5.87015,-24.54258 5.85722,6.1688 12.9533,-6.1688 z m 0,18.62202 5.87017,5.92056 -5.87017,-24.54258 z"
       style="display:inline;fill:#6b4cc8;fill-opacity:1;stroke-width:1" /><path
       id="path1807-9-3-1-5-7"
       class="IconOutline"
       d="m -205.84766,879.0033 -5.39837,-5.75041 m 24.00503,5.64534 -18.59373,-10e-6 m 0,0 v 18.47885 m 18.59363,-0.0292 v -18.44971 l -5.65326,-6.06373 h -18.81053 v 18.62204 l 5.87016,5.92054 z"
       style="display:inline;fill:none;stroke:#f5f4f4;stroke-width:1.5" /><path
       id="path1390-81-6-5-4-4"
       class="IconOutline ThickOutline"
       d="m -224.69727,860.69653 c 0,6.31055 0,12.6211 0,18.93164 2.10213,2.12053 4.20449,4.24083 6.30665,6.36133 1.97916,-0.002 3.95833,-0.005 5.9375,-0.008 0,1.92773 -10e-6,3.85547 0,5.7832 2.10212,2.12053 4.20448,4.24083 6.30664,6.36133 6.55208,-0.01 13.10417,-0.0195 19.65625,-0.0312 0,-6.49739 0,-12.99479 0,-19.49219 -2.02454,-2.17397 -4.05034,-4.34677 -6.07618,-6.51953 -2.05599,0 -4.11198,0 -6.16797,0 0,-1.87239 10e-6,-3.74479 0,-5.61718 -2.02453,-2.17397 -4.05033,-4.34678 -6.07617,-6.51954 -6.6289,0 -13.25781,0 -19.88672,0 0,0.25 0,0.5 0,0.75 z" /></g></svg>
