<?xml version="1.0" encoding="UTF-8" standalone="no"?>
<!-- Created with Inkscape (http://www.inkscape.org/) -->

<svg
   width="47.999969"
   height="47.999969"
   viewBox="0 0 47.99997 47.999969"
   version="1.1"
   id="svg1387"
   xml:space="preserve"
   xmlns="http://www.w3.org/2000/svg"
   xmlns:svg="http://www.w3.org/2000/svg"><defs
     id="MeshDefs"><style
       id="GR-Mesh"><![CDATA[.IconOutline {
  stroke:#f5f4f4;
  fill:none;
  stroke-width:1.5;
}

.ThinDotOutline {
  stroke-dasharray:0.1, 2.5;
  stroke-linecap:round;
  stroke-width:1.5;
}

.ThickDotOutline {
  stroke-dasharray:0.1, 5;
  stroke-linecap:round;
  stroke-width:3;
}
.ThickOutline {
  stroke-linejoin:miter;
  stroke-miterlimit:3;
  stroke-opacity:1;
  stroke-width:3;
}

.MeshFillArea {
  display:inline;
  fill:#7950f2;
  fill-opacity:1;
}

.MeshFillAreaDark {
  display:inline;
  fill:#6b4cc8;
  fill-opacity:1;
}

.BgFillArea {
  fill: #495057;
 }

.ImportArrow {
  fill:#40c057;
  fill-opacity:1;
  stroke:none;
}
.ExportArrow {
  fill:#f03e3e;
  fill-opacity:1;
  stroke:none;
}
.GenericArrow {
  fill:#F5F4F4;
  fill-opacity:1;
  stroke:none;
}
]]></style></defs><g
     id="layer2"
     style="display:inline"
     transform="translate(-58.761375,-854.87107)"><g
       id="g9909"
       transform="translate(0.04634413,2.8640912)"><path
         id="ellipse13930-4-0-7-9-2-9-6-7"
         style="display:inline;fill:#7950f2;fill-opacity:1;stroke-width:1"
         class="MeshFillArea"
         d="m 72.399326,866.5619 v 21.65628 a 10.893088,4.3235723 0 0 0 10.89332,4.32248 10.893088,4.3235723 0 0 0 10.89323,-4.32248 V 866.5619 a 10.893088,4.3235723 0 0 1 -10.89323,4.32248 10.893088,4.3235723 0 0 1 -10.89332,-4.32248 z" /><path
         id="ellipse13930-4-0-7-9-2-85-6"
         class="MeshFillAreaDark"
         d="m 72.399326,866.5619 v 1.09636 l 1.03632,0.72263 c -0.67047,-0.56701 -1.0299,-1.18716 -1.03632,-1.81899 z m 21.78655,0 c -0.01,0.86269 -0.66638,1.7047 -1.89001,2.41769 l 0.0156,0.004 v 0.002 0.12966 c 0.50906,4.60416 1.02961,9.19977 1.87473,13.55281 z m -1.87473,2.55307 c 0,-0.0337 -0.01,-0.0674 -0.0117,-0.10106 l -9.00701,23.52675 c 3.75131,2e-5 7.05907,-0.75156 9.0185,-1.89717 z m -9.0185,23.42569 v -21.65628 c -3.61034,-0.004 -6.98158,-0.71703 -9.00136,-1.90479 z m -9.00136,-23.56107 c -1.02396,5.48216 -1.37872,10.57211 -1.89196,16.05059 v 3.188 c 0.01,0.86276 0.66764,1.70477 1.89196,2.41769 z"
         style="display:inline;fill:#6b4cc8;fill-opacity:1;stroke-width:1" /><path
         id="ellipse13930-6-2-5-1-3"
         d="m 83.292436,873.01145 c -6.0165,2.2e-4 -10.89322,1.93639 -10.89206,4.3244 v 11.33372 c -8.6e-4,2.38801 4.87559,4.32416 10.89206,4.32438 6.01705,10e-5 10.89465,-1.93615 10.89352,-4.32438 v -11.33372 c 8.6e-4,-2.38823 -4.87644,-4.3245 -10.89352,-4.3244 z"
         class="IconOutline"
         style="display:inline;fill:none;stroke:#f5f4f4;stroke-width:1.5" /><path
         id="path127368-6-8-3-8-1"
         style="display:inline;fill:#f03e3e;fill-opacity:1;stroke:#f5f4f4;stroke-width:1.49999;stroke-linecap:round;stroke-linejoin:miter;stroke-dasharray:none;stroke-opacity:1"
         d="m 68.880886,871.26261 -4.68873,14.98139 34.04283,0.23873 3.187644,-14.78069 z" /><path
         id="ellipse13930-4-0-7-9-28-3-7"
         d="m 94.185686,874.14036 a 10.893088,4.3235723 0 0 1 -10.89304,4.32357 10.893088,4.3235723 0 0 1 -10.89313,-4.32357 10.893088,4.3235723 0 0 1 10.89313,-4.32357 10.893088,4.3235723 0 0 1 10.89304,4.32357 z"
         class="MeshFillArea"
         style="display:inline;fill:#7950f2;fill-opacity:1;stroke-width:1" /><path
         id="ellipse13930-4-0-7-6-5"
         class="MeshFillAreaDark"
         d="m 83.292646,869.81705 v 4.3244 l 9.0185,-2.42343 a 10.893088,4.3235723 0 0 0 -9.0185,-1.90097 z m 0,4.3244 v 4.32248 a 10.893088,4.3235723 0 0 0 9.0185,-1.90098 z m 0,0 -9.00331,-2.4196 a 10.893088,4.3235723 0 0 0 -1.89001,2.4196 10.893088,4.3235723 0 0 0 1.89196,2.41769 z"
         style="display:inline;fill:#6b4cc8;fill-opacity:1;stroke-width:1" /><path
         id="ellipse13930-4-0-7-9-2-9-6-5-9"
         style="display:inline;fill:#7950f2;fill-opacity:1;stroke-width:1"
         class="MeshFillArea"
         d="m 94.185706,869.81975 c -0.003,2.38693 -4.8788,4.32226 -10.89258,4.32227 -5.98159,-3.8e-4 -10.83835,-1.91454 -10.89062,-4.28516 v 8.6543 c 0.0364,2.37534 4.89725,4.2947 10.89062,4.29492 6.01704,1e-4 10.8937,-1.93404 10.89258,-4.32227 z" /><path
         id="ellipse13930-4-0-7-9-28-3-9-6"
         d="m 94.186056,868.16561 a 10.893088,4.3235723 0 0 1 -10.89303,4.32358 10.893088,4.3235723 0 0 1 -10.89313,-4.32358 10.893088,4.3235723 0 0 1 10.89313,-4.32357 10.893088,4.3235723 0 0 1 10.89303,4.32357 z"
         class="MeshFillArea"
         style="display:inline;fill:#7950f2;fill-opacity:1;stroke-width:1" /><path
         id="ellipse13930-4-0-7-9-2-85-8-2"
         style="display:inline;fill:#6b4cc8;fill-opacity:1;stroke-width:1"
         class="MeshFillAreaDark"
         d="m 94.185706,869.16545 c -6.2e-4,0.0539 -0.004,0.10644 -0.01,0.16016 -0.005,0.0544 -0.0134,0.10822 -0.0234,0.16211 -0.14513,0.77527 -0.80189,1.49389 -1.8418,2.10156 v 0.12891 c 0.29155,2.63684 0.58919,5.27025 0.94727,7.85742 0.59554,-0.53434 0.92802,-1.12405 0.92773,-1.74609 z m -1.875,2.55274 c 0,-0.0337 -0.01,-0.0679 -0.0117,-0.10156 l -3.83398,10.01757 c 1.54481,-0.33119 2.8641,-0.8072 3.8457,-1.38086 z m -19.9082,-2.5293 v 1.07422 l 0.92578,0.64453 c -0.51723,-0.46481 -0.83495,-0.97222 -0.90821,-1.50586 -0.006,-0.0407 -0.007,-0.0821 -0.01,-0.12304 -0.002,-0.03 -0.007,-0.0598 -0.008,-0.0898 z m 1.88867,2.40625 c -0.499,2.67415 -0.8387,5.25524 -1.11524,7.83399 0.29682,0.29544 0.67142,0.57485 1.11719,0.83398 v -8.66602 c -7.5e-4,-4.3e-4 -0.001,-0.002 -0.002,-0.002 z m 0.01,0.006 3.83399,10.03516 c 1.5357,0.32839 3.29115,0.51555 5.1582,0.51562 v -8.66601 c -0.3196,-3.6e-4 -0.63609,-0.006 -0.95117,-0.0176 -0.0967,-0.003 -0.19309,-0.007 -0.28906,-0.0117 -0.27774,-0.0129 -0.5535,-0.0296 -0.82617,-0.0508 -0.12369,-0.009 -0.24503,-0.0221 -0.36719,-0.0332 -0.148,-0.0136 -0.29533,-0.0269 -0.44141,-0.043 -0.35023,-0.038 -0.69212,-0.0836 -1.02734,-0.13477 -0.61848,-0.0944 -1.20745,-0.21014 -1.76563,-0.3457 -1.31627,-0.31967 -2.4544,-0.74364 -3.32422,-1.24805 z" /><path
         id="ellipse13930-4-0-7-6-4-1"
         class="MeshFillAreaDark"
         d="m 83.293026,863.8423 v 4.3244 l 9.0185,-2.42343 a 10.893088,4.3235723 0 0 0 -9.0185,-1.90097 z m 0,4.3244 v 4.32249 a 10.893088,4.3235723 0 0 0 9.0185,-1.90099 z m 0,0 -9.00331,-2.4196 a 10.893088,4.3235723 0 0 0 -1.89002,2.4196 10.893088,4.3235723 0 0 0 1.89197,2.41769 z"
         style="display:inline;fill:#6b4cc8;fill-opacity:1;stroke-width:1" /><path
         id="ellipse13930-4-3-1-1-7"
         d="m 94.186256,868.1667 a 10.893088,4.3235723 0 0 1 -10.89303,4.32358 10.893088,4.3235723 0 0 1 -10.89314,-4.32358 10.893088,4.3235723 0 0 1 10.89314,-4.32358 10.893088,4.3235723 0 0 1 10.89303,4.32358 z"
         class="IconOutline"
         style="display:inline;fill:none;stroke:#f5f4f4;stroke-width:1.5" /><path
         id="ellipse13930-4-0-7-9-2-9-6-5-3-8-7"
         class="IconOutline"
         d="m 94.186146,869.82077 c -0.003,2.38693 -4.87924,4.32124 -10.89302,4.32125 -6.00485,-3.8e-4 -10.87642,-1.92945 -10.89134,-4.31283 v 8.65531 c -8.6e-4,2.388 4.87487,4.32271 10.89134,4.32293 6.01704,1e-4 10.89414,-1.9347 10.89302,-4.32293 z"
         style="display:inline;fill:none;stroke:#f5f4f4;stroke-width:1.5" /><path
         id="path127368-6-8-3-8-1-4"
         style="display:inline;fill:#f03e3e;fill-opacity:1;stroke:#f5f4f4;stroke-width:1.49999;stroke-linecap:round;stroke-linejoin:miter;stroke-dasharray:none;stroke-opacity:1"
         d="m 68.880886,861.60595 -4.68873,14.98139 34.04283,0.23873 3.187644,-14.78069 z" /><path
         id="ellipse13930-4-0-7-9-28-3-7-1"
         d="m 94.185926,867.87184 a 10.893088,4.3235723 0 0 1 -10.89304,4.32357 10.893088,4.3235723 0 0 1 -10.89313,-4.32357 10.893088,4.3235723 0 0 1 10.89313,-4.32357 10.893088,4.3235723 0 0 1 10.89304,4.32357 z"
         class="MeshFillArea"
         style="display:inline;fill:#7950f2;fill-opacity:1;stroke-width:1" /><path
         id="ellipse13930-4-0-7-6-5-8"
         class="MeshFillAreaDark"
         d="m 83.292886,863.54853 v 4.3244 l 9.0185,-2.42343 a 10.893088,4.3235723 0 0 0 -9.0185,-1.90097 z m 0,4.3244 v 4.32248 a 10.893088,4.3235723 0 0 0 9.0185,-1.90098 z m 0,0 -9.00331,-2.4196 a 10.893088,4.3235723 0 0 0 -1.89001,2.4196 10.893088,4.3235723 0 0 0 1.89196,2.41769 z"
         style="display:inline;fill:#6b4cc8;fill-opacity:1;stroke-width:1" /><path
         id="ellipse13930-4-0-7-9-2-9-6-5-9-5"
         style="display:inline;fill:#7950f2;fill-opacity:1;stroke-width:1"
         class="MeshFillArea"
         d="m 94.184716,863.57765 c -0.0402,2.37429 -4.89993,4.29491 -10.89062,4.29492 -5.98159,-3.8e-4 -10.83836,-1.91453 -10.89063,-4.28515 v 6.46679 c 0.0417,2.37354 4.8986,4.29275 10.88867,4.29297 6.01704,10e-5 10.8937,-1.93599 10.89258,-4.32422 z" /><path
         id="ellipse13930-4-0-7-9-28-3-9-6-9"
         d="m 94.186296,862.89494 a 10.893088,4.3235723 0 0 1 -10.89303,4.32358 10.893088,4.3235723 0 0 1 -10.89313,-4.32358 10.893088,4.3235723 0 0 1 10.89313,-4.32357 10.893088,4.3235723 0 0 1 10.89303,4.32357 z"
         class="MeshFillArea"
         style="display:inline;fill:#7950f2;fill-opacity:1;stroke-width:1" /><path
         id="ellipse13930-4-0-7-9-2-85-8-2-7"
         style="display:inline;fill:#6b4cc8;fill-opacity:1;stroke-width:1"
         class="MeshFillAreaDark"
         d="m 94.186676,863.55226 c -0.001,0.88333 -0.67179,1.70441 -1.81836,2.38867 0.19536,1.7607 0.39921,3.51539 0.61914,5.25782 0.76453,-0.59117 1.19955,-1.26031 1.19922,-1.97071 z m -21.78321,0.0352 v 0.40625 l 0.0703,0.0488 c -0.0428,-0.14948 -0.0669,-0.30137 -0.0703,-0.45508 z m 1.78516,2.33398 c -0.31113,1.7402 -0.55536,3.44436 -0.76367,5.13672 0.2496,0.21178 0.53979,0.41411 0.86914,0.60547 v -5.67773 c -0.0362,-0.0211 -0.0701,-0.0431 -0.10547,-0.0645 z m 18.12305,0.0527 c -0.1032,0.0603 -0.20976,0.11961 -0.32032,0.17773 l -2.54101,6.64258 c 1.12276,-0.30591 2.09611,-0.69342 2.86133,-1.14063 z m -17.69336,0.18945 2.53711,6.63672 c 1.74778,0.47402 3.85954,0.75187 6.13671,0.75195 h 0.002 v -5.67969 c -3.54051,-2.2e-4 -6.68641,-0.66999 -8.67578,-1.70898 z" /><path
         id="ellipse13930-4-0-7-6-4-1-5"
         class="MeshFillAreaDark"
         d="m 83.293266,858.57163 v 4.3244 l 9.0185,-2.42343 a 10.893088,4.3235723 0 0 0 -9.0185,-1.90097 z m 0,4.3244 v 4.32249 a 10.893088,4.3235723 0 0 0 9.0185,-1.90099 z m 0,0 -9.00331,-2.4196 a 10.893088,4.3235723 0 0 0 -1.89002,2.4196 10.893088,4.3235723 0 0 0 1.89197,2.41769 z"
         style="display:inline;fill:#6b4cc8;fill-opacity:1;stroke-width:1" /><path
         id="ellipse13930-4-3-1-1-7-3"
         d="m 94.186496,862.89603 a 10.893088,4.3235723 0 0 1 -10.89303,4.32358 10.893088,4.3235723 0 0 1 -10.89314,-4.32358 10.893088,4.3235723 0 0 1 10.89314,-4.32358 10.893088,4.3235723 0 0 1 10.89303,4.32358 z"
         class="IconOutline"
         style="display:inline;fill:none;stroke:#f5f4f4;stroke-width:1.5" /><path
         id="ellipse13930-4-0-7-9-2-9-6-5-3-8-7-8-8-3-1"
         class="IconOutline"
         d="m 94.187116,862.5656 c -0.003,2.38693 -4.87924,4.32124 -10.89302,4.32125 -6.00485,-3.8e-4 -10.87642,-1.92945 -10.89134,-4.31283 v 6.65531 c -8.6e-4,2.388 4.87487,4.32271 10.89134,4.32293 6.01704,10e-5 10.89414,-1.9347 10.89302,-4.32293 z"
         style="display:inline;fill:none;stroke:#f5f4f4;stroke-width:1.5" /><path
         id="ellipse13930-4-0-7-9-2-9-6-7-9"
         class="IconOutline ThickOutline"
         d="m 81.728516,858.31836 c -2.874141,0.22137 -5.889387,0.67221 -8.329795,2.30888 -0.51258,0.26555 -0.779104,0.93992 -1.443976,0.72382 -1.207571,-0.0168 -2.415144,-0.0334 -3.622714,-0.0503 -1.717799,5.49399 -3.438907,10.98695 -5.158203,16.48047 1.005201,0.008 2.010415,0.0145 3.015625,0.0215 -1.005242,3.21158 -2.010163,6.42326 -3.015625,9.63477 2.824861,0.0214 5.649741,0.0402 8.47461,0.0606 -0.06666,1.13027 0.0044,2.39407 0.920322,3.19391 1.682266,1.67888 4.11825,2.27304 6.386234,2.69555 3.995387,0.6141 8.189416,0.48003 12.026981,-0.86534 1.560405,-0.59736 3.331135,-1.49334 3.848331,-3.2026 0.147509,-0.54239 0.09933,-1.10238 0.105241,-1.65746 1.301433,0.009 2.602859,0.019 3.904297,0.0273 1.166406,-5.42509 2.338946,-10.84887 3.507816,-16.27343 -0.69207,-0.009 -1.38412,-0.018 -2.07618,-0.0273 0.69208,-3.20963 1.384,-6.4193 2.07618,-9.6289 -2.690121,-0.0348 -5.38021,-0.0717 -8.070316,-0.10743 -1.369512,-1.6904 -3.595261,-2.34872 -5.638053,-2.82589 -2.264632,-0.49488 -4.599003,-0.62085 -6.910775,-0.50809 z" /></g></g></svg>
