<?xml version="1.0" encoding="UTF-8" standalone="no"?>
<!-- Created with Inkscape (http://www.inkscape.org/) -->

<svg
   width="48"
   height="48"
   viewBox="0 0 48.000001 48"
   version="1.1"
   id="svg1387"
   xml:space="preserve"
   xmlns="http://www.w3.org/2000/svg"
   xmlns:svg="http://www.w3.org/2000/svg"><defs
     id="MeshDefs"><style
       id="GR-Mesh"><![CDATA[.IconOutline {
  stroke:#f5f4f4;
  fill:none;
  stroke-width:1.5;
}

.ThinDotOutline {
  stroke-dasharray:0.1, 2.5;
  stroke-linecap:round;
  stroke-width:1.5;
}

.ThickDotOutline {
  stroke-dasharray:0.1, 5;
  stroke-linecap:round;
  stroke-width:3;
}
.ThickOutline {
  stroke-linejoin:miter;
  stroke-miterlimit:3;
  stroke-opacity:1;
  stroke-width:3;
}

.MeshFillArea {
  display:inline;
  fill:#7950f2;
  fill-opacity:1;
}

.MeshFillAreaDark {
  display:inline;
  fill:#6b4cc8;
  fill-opacity:1;
}

.BgFillArea {
  fill: #495057;
 }

.ImportArrow {
  fill:#40c057;
  fill-opacity:1;
  stroke:none;
}
.ExportArrow {
  fill:#f03e3e;
  fill-opacity:1;
  stroke:none;
}
.GenericArrow {
  fill:#F5F4F4;
  fill-opacity:1;
  stroke:none;
}
]]></style></defs><g
     id="layer2"
     style="display:inline"
     transform="translate(-346.7614,-782.87104)"><path
       id="path428-3-6-5-6-1-3"
       d="m 387.14127,795.93634 c -4.45658,2.54152 -10.30749,3.95849 -16.38777,3.96889 -6.06163,-0.0117 -11.89556,-1.42013 -16.34686,-3.94833 l -0.0341,0.0187 c -2.11017,3.2336 -3.23739,7.02065 -3.24256,10.894 0.005,3.87336 1.13239,7.6604 3.24256,10.894 l 0.0432,0.021 c 0.0272,0.014 0.0544,0.0292 0.0818,0.0432 0.61902,0.34511 1.26673,0.67013 1.94053,0.97401 0.24885,0.11094 0.50111,0.21885 0.75667,0.32385 0.50914,0.21372 1.0314,0.41529 1.56561,0.60449 0.26151,0.0946 0.52589,0.18709 0.79303,0.27608 0.70758,0.2303 1.43334,0.43888 2.17459,0.62493 0.0854,0.0245 0.17095,0.0479 0.25676,0.0712 0.0302,0.0117 0.0606,0.0128 0.0909,0.0187 0.78939,0.18616 1.59412,0.34686 2.4109,0.48128 0.30078,0.0491 0.60305,0.0934 0.90665,0.13454 0.60056,0.0852 1.2062,0.15568 1.81556,0.2122 0.29683,0.0304 0.59455,0.0561 0.893,0.0794 0.88314,0.0654 1.77144,0.10043 2.66086,0.1051 0.89473,0 1.78836,-0.0397 2.67677,-0.1051 0.2779,-0.0222 0.55515,-0.0467 0.83165,-0.0747 0.66317,-0.0607 1.32194,-0.13827 1.97462,-0.23264 0.24478,-0.0339 0.48871,-0.0689 0.73168,-0.10744 0.87777,-0.1419 1.74185,-0.31392 2.58814,-0.5155 0.83564,-0.20601 1.65191,-0.44064 2.44498,-0.70259 0.23702,-0.0794 0.47187,-0.16175 0.70441,-0.2463 0.57636,-0.20309 1.13886,-0.42078 1.68605,-0.65237 0.22216,-0.0911 0.44185,-0.18488 0.65896,-0.28064 0.72817,-0.3263 1.4261,-0.67737 2.09051,-1.05155 2.11016,-3.2336 3.23738,-7.02065 3.24256,-10.894 -3.7e-4,-3.88749 -1.13108,-7.68925 -3.25165,-10.93277 z"
       class="MeshFillAreaDark" /><path
       id="path428-3-6-5-6-1-2"
       d="m 374.13006,792.16517 5.56711,7.26497 -4.62865,8.39184 3.94696,6.92278 c 3.00996,0.66615 5.77493,1.69271 8.13481,3.01999 2.11016,-3.2336 3.23738,-7.02065 3.24256,-10.894 -3.7e-4,-3.88749 -1.13108,-7.68925 -3.25165,-10.93277 -3.61388,-2.03934 -8.1517,-3.35518 -13.01114,-3.77281 z m -7.77805,0.12777 c -4.47797,0.51047 -8.63041,1.78742 -11.97953,3.68381 -2.11017,3.23359 -3.23739,7.02064 -3.24256,10.894 0.005,3.87335 1.13239,7.6604 3.24256,10.894 l 0.0432,0.021 c 4.19281,-2.36996 9.61247,-3.75447 15.30389,-3.90956 l -2.75402,-6.16331 3.78791,-6.72436 z"
       class="MeshFillArea IconOutline" /><path
       id="path428-3-6-5-6-1-3-7"
       d="m 373.38265,792.16512 c 0.0845,0.73116 0.86021,1.2257 1.21862,1.86291 1.13062,1.47526 2.26124,2.95053 3.39186,4.42579 -2.41058,0.48063 -4.86883,0.71195 -7.32586,0.71396 -1.29537,-2.55693 -2.58945,-5.11449 -3.88563,-7.67099 -4.50299,0.47613 -8.97636,1.67974 -12.93615,3.92331 -3.74813,5.56772 -4.52646,13.00422 -1.94696,19.21305 0.56391,1.30782 1.17535,2.67106 2.06129,3.76528 6.5147,3.56488 14.19683,4.66167 21.51507,3.78302 4.25992,-0.49168 8.44782,-1.75342 12.20275,-3.84648 3.75467,-5.58052 4.52419,-13.02956 1.9462,-19.25154 -0.54278,-1.37147 -1.26388,-2.66345 -2.06891,-3.896 -1.0609,-0.32024 -2.04502,-1.017 -3.12354,-1.38181 -3.51282,-1.44065 -7.27577,-2.17457 -11.04874,-2.4685 0,0.276 0,0.55201 0,0.828 z"
       class="IconOutline ThickOutline" /></g></svg>
