<?xml version="1.0" encoding="UTF-8" standalone="no"?>
<!-- Created with Inkscape (http://www.inkscape.org/) -->

<svg
   width="12"
   height="12"
   viewBox="0 0 12 12"
   version="1.1"
   id="svg1387"
   sodipodi:docname="Overlay.svg"
   inkscape:version="1.3 (1:1.3+202307231459+0e150ed6c4)"
   xml:space="preserve"
   xmlns:inkscape="http://www.inkscape.org/namespaces/inkscape"
   xmlns:sodipodi="http://sodipodi.sourceforge.net/DTD/sodipodi-0.dtd"
   xmlns="http://www.w3.org/2000/svg"
   xmlns:svg="http://www.w3.org/2000/svg"><sodipodi:namedview
     id="namedview10"
     pagecolor="#505050"
     bordercolor="#ffffff"
     borderopacity="1"
     inkscape:showpageshadow="0"
     inkscape:pageopacity="0"
     inkscape:pagecheckerboard="1"
     inkscape:deskcolor="#505050"
     showgrid="false"
     inkscape:zoom="2.5455844"
     inkscape:cx="102.33406"
     inkscape:cy="57.157798"
     inkscape:window-width="1785"
     inkscape:window-height="1376"
     inkscape:window-x="72"
     inkscape:window-y="27"
     inkscape:window-maximized="0"
     inkscape:current-layer="g13"
     showguides="true"><inkscape:page
       x="0"
       y="0"
       width="12"
       height="12"
       id="page134946"
       margin="0"
       bleed="0"
       inkscape:label="taskshow" /><inkscape:grid
       id="grid14"
       units="px"
       originx="-84"
       originy="348"
       spacingx="12"
       spacingy="12"
       empcolor="#0099e5"
       empopacity="0.30196078"
       color="#0099e5"
       opacity="0.14902"
       empspacing="6"
       dotted="false"
       gridanglex="30"
       gridanglez="30"
       visible="false" /><inkscape:page
       x="22"
       y="0"
       width="12"
       height="12"
       id="page5"
       inkscape:label="autohide" /><inkscape:page
       x="44"
       y="0"
       width="12"
       height="12"
       id="page6"
       inkscape:label="close" /><inkscape:page
       x="66"
       y="0"
       width="12"
       height="12"
       id="page7"
       inkscape:label="edithide" /><inkscape:page
       x="88"
       y="0"
       width="12"
       height="12"
       id="page8"
       inkscape:label="editshow" /><inkscape:page
       x="110"
       y="0"
       width="12"
       height="12"
       id="page9"
       inkscape:label="float" /><inkscape:page
       x="132"
       y="0"
       width="12"
       height="12"
       id="page10"
       inkscape:label="mode" /><inkscape:page
       x="154"
       y="0"
       width="12"
       height="12"
       id="page11"
       inkscape:label="overlay" /><inkscape:page
       x="198"
       y="0"
       width="12"
       height="12"
       id="page13"
       inkscape:label="transparent" /></sodipodi:namedview><defs
     id="FlatIconDefs"><style
       id="FlatIconStlyle"><![CDATA[.IconOutline { stroke:#f5f4f4;  fill:none;  stroke-width:1.5; }
.ThinDotOutline { stroke-dasharray:0.1, 2.5;  stroke-linecap:round; }
.ThickDotOutline { stroke-dasharray:0.1, 5;  stroke-linecap:round;  stroke-width:3; }
.ThickOutline { stroke-linejoin:miter;  stroke-miterlimit:3;  stroke-width:3; }
.MiniOutline { stroke-width: 1;stroke-linecap: round; }
.CornerButton { stroke-width: 8;  stroke-linejoin: round; }
.OutlineAsFill { fill: #f5f4f4; }
.MeshFillArea { fill:#7950f2; }
.MeshFillAreaDark { fill:#6b4cc8; }
.DynDataFillArea { fill:#aea72c; }
.PartFillArea { fill:#3769ff }
.BgFillArea { fill: #495057; }
.AdditiveFillArea { fill: #40c057 }
.SubtractArea { fill: #f03e3e; }
.IntersectArea { fill: #4c6ef5; }
.ImportArrow { fill:#40c057; }
.ExportArrow { fill:#f03e3e; }
.GenericArrow { fill:#F5F4F4; }
.SketchFill { fill: #f5f4f4; }
.SketckOutline { stroke:#f03e3e; }
.SpreadsheetFill { fill: #868e96; }
.SpreadsheetLines { stroke:#495057; }
]]></style><clipPath
       id="clip0"><rect
         width="24"
         height="24"
         fill="#4d4d4d"
         id="rect8"
         x="0"
         y="0" /></clipPath><marker
       style="overflow:visible"
       id="Arrow2Mend-5"
       refX="0"
       refY="0"
       orient="auto"
       inkscape:stockid="Arrow2Mend"><path
         inkscape:connector-curvature="0"
         transform="scale(-0.6)"
         d="M 8.7185878,4.0337352 -2.2072895,0.01601326 8.7185884,-4.0017078 c -1.7454984,2.3720609 -1.7354408,5.6174519 -6e-7,8.035443 z"
         style="font-size:12px;fill-rule:evenodd;stroke-width:0.625;stroke-linejoin:round"
         id="path45132-1" /></marker><marker
       style="overflow:visible"
       id="DotM-00"
       refX="0"
       refY="0"
       orient="auto"
       inkscape:stockid="DotM"><path
         inkscape:connector-curvature="0"
         transform="matrix(0.4,0,0,0.4,2.96,0.4)"
         style="fill-rule:evenodd;stroke:#000000;stroke-width:1pt;marker-start:none;marker-end:none"
         d="m -2.5,-1 c 0,2.76 -2.24,5 -5,5 -2.76,0 -5,-2.24 -5,-5 0,-2.76 2.24,-5 5,-5 2.76,0 5,2.24 5,5 z"
         id="path14329-2" /></marker><marker
       style="overflow:visible"
       id="Arrow2Mend-07"
       refX="0"
       refY="0"
       orient="auto"
       inkscape:stockid="Arrow2Mend"><path
         inkscape:connector-curvature="0"
         transform="scale(-0.6)"
         d="M 8.7185878,4.0337352 -2.2072895,0.01601326 8.7185884,-4.0017078 c -1.7454984,2.3720609 -1.7354408,5.6174519 -6e-7,8.035443 z"
         style="font-size:12px;fill-rule:evenodd;stroke-width:0.625;stroke-linejoin:round"
         id="path45132-31" /></marker><marker
       style="overflow:visible"
       id="DotM-0"
       refX="0"
       refY="0"
       orient="auto"
       inkscape:stockid="DotM"><path
         inkscape:connector-curvature="0"
         transform="matrix(0.4,0,0,0.4,2.96,0.4)"
         style="fill-rule:evenodd;stroke:#000000;stroke-width:1pt;marker-start:none;marker-end:none"
         d="m -2.5,-1 c 0,2.76 -2.24,5 -5,5 -2.76,0 -5,-2.24 -5,-5 0,-2.76 2.24,-5 5,-5 2.76,0 5,2.24 5,5 z"
         id="path14329-94" /></marker><marker
       style="overflow:visible"
       id="Arrow2Mend-6"
       refX="0"
       refY="0"
       orient="auto"
       inkscape:stockid="Arrow2Mend"><path
         inkscape:connector-curvature="0"
         transform="scale(-0.6)"
         d="M 8.7185878,4.0337352 -2.2072895,0.01601326 8.7185884,-4.0017078 c -1.7454984,2.3720609 -1.7354408,5.6174519 -6e-7,8.035443 z"
         style="font-size:12px;fill-rule:evenodd;stroke-width:0.625;stroke-linejoin:round"
         id="path45132-8" /></marker><marker
       style="overflow:visible"
       id="DotM-8"
       refX="0"
       refY="0"
       orient="auto"
       inkscape:stockid="DotM"><path
         inkscape:connector-curvature="0"
         transform="matrix(0.4,0,0,0.4,2.96,0.4)"
         style="fill-rule:evenodd;stroke:#000000;stroke-width:1pt;marker-start:none;marker-end:none"
         d="m -2.5,-1 c 0,2.76 -2.24,5 -5,5 -2.76,0 -5,-2.24 -5,-5 0,-2.76 2.24,-5 5,-5 2.76,0 5,2.24 5,5 z"
         id="path14329-91" /></marker><clipPath
       clipPathUnits="userSpaceOnUse"
       id="clipPath3169-2"><rect
         style="fill:#f5f5f4;fill-opacity:1;stroke:#888a85;stroke-width:2;stroke-miterlimit:4;stroke-dasharray:none;stroke-dashoffset:0;stroke-opacity:1"
         id="rect3171-7"
         width="748.77557"
         height="428.80975"
         x="48.992397"
         y="105.34417" /></clipPath><clipPath
       id="clipPath22-7"
       clipPathUnits="userSpaceOnUse"><path
         id="path24-2"
         d="M 0,792 H 1224 V 0 H 0 Z"
         inkscape:connector-curvature="0" /></clipPath><clipPath
       clipPathUnits="userSpaceOnUse"
       id="clipPath6483-7"><rect
         style="fill:#ffffff;fill-opacity:1;stroke:none"
         id="rect6485-5"
         width="548"
         height="280"
         x="67.578148"
         y="187.65627" /></clipPath><clipPath
       id="clipPath10152"
       clipPathUnits="userSpaceOnUse"><rect
         y="754.14667"
         x="-37.134048"
         height="140.17392"
         width="718.58722"
         id="rect10154"
         style="fill:#555753;fill-opacity:1;stroke:#555753;stroke-width:1.83322;stroke-miterlimit:4;stroke-dasharray:none;stroke-dashoffset:0;stroke-opacity:1" /></clipPath><marker
       style="overflow:visible"
       id="Arrow2Mend-0"
       refX="0"
       refY="0"
       orient="auto"
       inkscape:stockid="Arrow2Mend"><path
         inkscape:connector-curvature="0"
         transform="scale(-0.6)"
         d="M 8.7185878,4.0337352 -2.2072895,0.01601326 8.7185884,-4.0017078 c -1.7454984,2.3720609 -1.7354408,5.6174519 -6e-7,8.035443 z"
         style="font-size:12px;fill-rule:evenodd;stroke-width:0.625;stroke-linejoin:round"
         id="path45132-982" /></marker><marker
       style="overflow:visible"
       id="DotM-2"
       refX="0"
       refY="0"
       orient="auto"
       inkscape:stockid="DotM"><path
         inkscape:connector-curvature="0"
         transform="matrix(0.4,0,0,0.4,2.96,0.4)"
         style="fill-rule:evenodd;stroke:#000000;stroke-width:1pt;marker-start:none;marker-end:none"
         d="m -2.5,-1 c 0,2.76 -2.24,5 -5,5 -2.76,0 -5,-2.24 -5,-5 0,-2.76 2.24,-5 5,-5 2.76,0 5,2.24 5,5 z"
         id="path14329-95" /></marker><marker
       style="overflow:visible"
       id="Arrow2Mend-2"
       refX="0"
       refY="0"
       orient="auto"
       inkscape:stockid="Arrow2Mend"><path
         inkscape:connector-curvature="0"
         transform="scale(-0.6)"
         d="M 8.7185878,4.0337352 -2.2072895,0.01601326 8.7185884,-4.0017078 c -1.7454984,2.3720609 -1.7354408,5.6174519 -6e-7,8.035443 z"
         style="font-size:12px;fill-rule:evenodd;stroke-width:0.625;stroke-linejoin:round"
         id="path45132-98" /></marker><marker
       style="overflow:visible"
       id="DotM-5"
       refX="0"
       refY="0"
       orient="auto"
       inkscape:stockid="DotM"><path
         inkscape:connector-curvature="0"
         transform="matrix(0.4,0,0,0.4,2.96,0.4)"
         style="fill-rule:evenodd;stroke:#000000;stroke-width:1pt;marker-start:none;marker-end:none"
         d="m -2.5,-1 c 0,2.76 -2.24,5 -5,5 -2.76,0 -5,-2.24 -5,-5 0,-2.76 2.24,-5 5,-5 2.76,0 5,2.24 5,5 z"
         id="path14329-1" /></marker><marker
       style="overflow:visible"
       id="Arrow2Mend-75"
       refX="0"
       refY="0"
       orient="auto"
       inkscape:stockid="Arrow2Mend"><path
         inkscape:connector-curvature="0"
         transform="scale(-0.6)"
         d="M 8.7185878,4.0337352 -2.2072895,0.01601326 8.7185884,-4.0017078 c -1.7454984,2.3720609 -1.7354408,5.6174519 -6e-7,8.035443 z"
         style="font-size:12px;fill-rule:evenodd;stroke-width:0.625;stroke-linejoin:round"
         id="path45132-9" /></marker><marker
       style="overflow:visible"
       id="DotM-466"
       refX="0"
       refY="0"
       orient="auto"
       inkscape:stockid="DotM"><path
         inkscape:connector-curvature="0"
         transform="matrix(0.4,0,0,0.4,2.96,0.4)"
         style="fill-rule:evenodd;stroke:#000000;stroke-width:1pt;marker-start:none;marker-end:none"
         d="m -2.5,-1 c 0,2.76 -2.24,5 -5,5 -2.76,0 -5,-2.24 -5,-5 0,-2.76 2.24,-5 5,-5 2.76,0 5,2.24 5,5 z"
         id="path14329-32" /></marker><marker
       style="overflow:visible"
       id="marker32938"
       refX="0"
       refY="0"
       orient="auto"
       inkscape:stockid="Arrow2Mend"><path
         inkscape:connector-curvature="0"
         transform="scale(-0.6)"
         d="M 8.7185878,4.0337352 -2.2072895,0.01601326 8.7185884,-4.0017078 c -1.7454984,2.3720609 -1.7354408,5.6174519 -6e-7,8.035443 z"
         style="font-size:12px;fill-rule:evenodd;stroke-width:0.625;stroke-linejoin:round"
         id="path32940" /></marker><marker
       style="overflow:visible"
       id="marker32934"
       refX="0"
       refY="0"
       orient="auto"
       inkscape:stockid="DotM"><path
         inkscape:connector-curvature="0"
         transform="matrix(0.4,0,0,0.4,2.96,0.4)"
         style="fill-rule:evenodd;stroke:#000000;stroke-width:1pt;marker-start:none;marker-end:none"
         d="m -2.5,-1 c 0,2.76 -2.24,5 -5,5 -2.76,0 -5,-2.24 -5,-5 0,-2.76 2.24,-5 5,-5 2.76,0 5,2.24 5,5 z"
         id="path32936" /></marker><marker
       style="overflow:visible"
       id="Arrow2Mend-7"
       refX="0"
       refY="0"
       orient="auto"
       inkscape:stockid="Arrow2Mend"><path
         inkscape:connector-curvature="0"
         transform="scale(-0.6)"
         d="M 8.7185878,4.0337352 -2.2072895,0.01601326 8.7185884,-4.0017078 c -1.7454984,2.3720609 -1.7354408,5.6174519 -6e-7,8.035443 z"
         style="font-size:12px;fill-rule:evenodd;stroke-width:0.625;stroke-linejoin:round"
         id="path45132-2" /></marker><marker
       style="overflow:visible"
       id="DotM-46"
       refX="0"
       refY="0"
       orient="auto"
       inkscape:stockid="DotM"><path
         inkscape:connector-curvature="0"
         transform="matrix(0.4,0,0,0.4,2.96,0.4)"
         style="fill-rule:evenodd;stroke:#000000;stroke-width:1pt;marker-start:none;marker-end:none"
         d="m -2.5,-1 c 0,2.76 -2.24,5 -5,5 -2.76,0 -5,-2.24 -5,-5 0,-2.76 2.24,-5 5,-5 2.76,0 5,2.24 5,5 z"
         id="path14329-9" /></marker><marker
       style="overflow:visible"
       id="Arrow2Mend-3"
       refX="0"
       refY="0"
       orient="auto"
       inkscape:stockid="Arrow2Mend"><path
         inkscape:connector-curvature="0"
         transform="scale(-0.6)"
         d="M 8.7185878,4.0337352 -2.2072895,0.01601326 8.7185884,-4.0017078 c -1.7454984,2.3720609 -1.7354408,5.6174519 -6e-7,8.035443 z"
         style="font-size:12px;fill-rule:evenodd;stroke-width:0.625;stroke-linejoin:round"
         id="path45132-3" /></marker><marker
       style="overflow:visible"
       id="DotM-42"
       refX="0"
       refY="0"
       orient="auto"
       inkscape:stockid="DotM"><path
         inkscape:connector-curvature="0"
         transform="matrix(0.4,0,0,0.4,2.96,0.4)"
         style="fill-rule:evenodd;stroke:#000000;stroke-width:1pt;marker-start:none;marker-end:none"
         d="m -2.5,-1 c 0,2.76 -2.24,5 -5,5 -2.76,0 -5,-2.24 -5,-5 0,-2.76 2.24,-5 5,-5 2.76,0 5,2.24 5,5 z"
         id="path14329-3" /></marker><marker
       style="overflow:visible"
       id="Arrow2Mend-9"
       refX="0"
       refY="0"
       orient="auto"
       inkscape:stockid="Arrow2Mend"><path
         inkscape:connector-curvature="0"
         transform="scale(-0.6)"
         d="M 8.7185878,4.0337352 -2.2072895,0.01601326 8.7185884,-4.0017078 c -1.7454984,2.3720609 -1.7354408,5.6174519 -6e-7,8.035443 z"
         style="font-size:12px;fill-rule:evenodd;stroke-width:0.625;stroke-linejoin:round"
         id="path45132-4" /></marker><marker
       style="overflow:visible"
       id="DotM-4"
       refX="0"
       refY="0"
       orient="auto"
       inkscape:stockid="DotM"><path
         inkscape:connector-curvature="0"
         transform="matrix(0.4,0,0,0.4,2.96,0.4)"
         style="fill-rule:evenodd;stroke:#000000;stroke-width:1pt;marker-start:none;marker-end:none"
         d="m -2.5,-1 c 0,2.76 -2.24,5 -5,5 -2.76,0 -5,-2.24 -5,-5 0,-2.76 2.24,-5 5,-5 2.76,0 5,2.24 5,5 z"
         id="path14329-8" /></marker><clipPath
       id="clipPath6483-5"
       clipPathUnits="userSpaceOnUse"><rect
         y="187.65627"
         x="67.578148"
         height="280"
         width="548"
         id="rect6485-2"
         style="fill:#ffffff;fill-opacity:1;stroke:none" /></clipPath><clipPath
       id="clipPath6483-1-7-3-0"
       clipPathUnits="userSpaceOnUse"><rect
         y="187.65627"
         x="67.578148"
         height="280"
         width="548"
         id="rect6485-6-4-5-6"
         style="fill:#ffffff;fill-opacity:1;stroke:none" /></clipPath><marker
       style="overflow:visible"
       id="Arrow2Lend-0"
       refX="0"
       refY="0"
       orient="auto"
       inkscape:stockid="Arrow2Lend"><path
         transform="matrix(-1.1,0,0,-1.1,-1.1,0)"
         d="M 8.7185878,4.0337352 -2.2072895,0.01601326 8.7185884,-4.0017078 c -1.7454984,2.3720609 -1.7354408,5.6174519 -6e-7,8.035443 z"
         style="font-size:12px;fill-rule:evenodd;stroke-width:0.625;stroke-linejoin:round"
         id="path45126-6"
         inkscape:connector-curvature="0" /></marker><clipPath
       id="clipPath6483-1-7-3-9"
       clipPathUnits="userSpaceOnUse"><rect
         y="187.65627"
         x="67.578148"
         height="280"
         width="548"
         id="rect6485-6-4-5-8"
         style="fill:#ffffff;fill-opacity:1;stroke:none" /></clipPath><clipPath
       id="clipPath6483-1-7-3"
       clipPathUnits="userSpaceOnUse"><rect
         y="187.65627"
         x="67.578148"
         height="280"
         width="548"
         id="rect6485-6-4-5"
         style="fill:#ffffff;fill-opacity:1;stroke:none" /></clipPath><clipPath
       id="clipPath6483-1-7"
       clipPathUnits="userSpaceOnUse"><rect
         y="187.65627"
         x="67.578148"
         height="280"
         width="548"
         id="rect6485-6-4"
         style="fill:#ffffff;fill-opacity:1;stroke:none" /></clipPath><clipPath
       id="clipPath6483-1"
       clipPathUnits="userSpaceOnUse"><rect
         y="187.65627"
         x="67.578148"
         height="280"
         width="548"
         id="rect6485-6"
         style="fill:#ffffff;fill-opacity:1;stroke:none" /></clipPath><clipPath
       id="clipPath6483"
       clipPathUnits="userSpaceOnUse"><rect
         y="187.65627"
         x="67.578148"
         height="280"
         width="548"
         id="rect6485"
         style="fill:#ffffff;fill-opacity:1;stroke:none" /></clipPath><clipPath
       clipPathUnits="userSpaceOnUse"
       id="clipPath22"><path
         inkscape:connector-curvature="0"
         d="M 0,792 H 1224 V 0 H 0 Z"
         id="path24" /></clipPath><clipPath
       id="clipPath3169"
       clipPathUnits="userSpaceOnUse"><rect
         y="105.34417"
         x="48.992397"
         height="428.80975"
         width="748.77557"
         id="rect3171"
         style="fill:#f5f5f4;fill-opacity:1;stroke:#888a85;stroke-width:2;stroke-miterlimit:4;stroke-dasharray:none;stroke-dashoffset:0;stroke-opacity:1" /></clipPath><marker
       style="overflow:visible"
       id="Arrow2Lend"
       refX="0"
       refY="0"
       orient="auto"
       inkscape:stockid="Arrow2Lend"><path
         inkscape:connector-curvature="0"
         transform="matrix(-1.1,0,0,-1.1,-1.1,0)"
         d="M 8.7185878,4.0337352 -2.2072895,0.01601326 8.7185884,-4.0017078 c -1.7454984,2.3720609 -1.7354408,5.6174519 -6e-7,8.035443 z"
         style="font-size:12px;fill-rule:evenodd;stroke-width:0.625;stroke-linejoin:round"
         id="path45126" /></marker><marker
       style="overflow:visible"
       id="Arrow2Mend"
       refX="0"
       refY="0"
       orient="auto"
       inkscape:stockid="Arrow2Mend"><path
         inkscape:connector-curvature="0"
         transform="scale(-0.6)"
         d="M 8.7185878,4.0337352 -2.2072895,0.01601326 8.7185884,-4.0017078 c -1.7454984,2.3720609 -1.7354408,5.6174519 -6e-7,8.035443 z"
         style="font-size:12px;fill-rule:evenodd;stroke-width:0.625;stroke-linejoin:round"
         id="path45132" /></marker><marker
       style="overflow:visible"
       id="DotL"
       refX="0"
       refY="0"
       orient="auto"
       inkscape:stockid="DotL"><path
         inkscape:connector-curvature="0"
         transform="matrix(0.8,0,0,0.8,5.92,0.8)"
         style="fill-rule:evenodd;stroke:#000000;stroke-width:1pt;marker-start:none;marker-end:none"
         d="m -2.5,-1 c 0,2.76 -2.24,5 -5,5 -2.76,0 -5,-2.24 -5,-5 0,-2.76 2.24,-5 5,-5 2.76,0 5,2.24 5,5 z"
         id="path14326" /></marker><marker
       style="overflow:visible"
       id="DotM"
       refX="0"
       refY="0"
       orient="auto"
       inkscape:stockid="DotM"><path
         inkscape:connector-curvature="0"
         transform="matrix(0.4,0,0,0.4,2.96,0.4)"
         style="fill-rule:evenodd;stroke:#000000;stroke-width:1pt;marker-start:none;marker-end:none"
         d="m -2.5,-1 c 0,2.76 -2.24,5 -5,5 -2.76,0 -5,-2.24 -5,-5 0,-2.76 2.24,-5 5,-5 2.76,0 5,2.24 5,5 z"
         id="path14329" /></marker><marker
       style="overflow:visible"
       id="Arrow2Mend-5-9"
       refX="0"
       refY="0"
       orient="auto"
       inkscape:stockid="Arrow2Mend"><path
         inkscape:connector-curvature="0"
         transform="scale(-0.6,-0.6)"
         d="M 8.7185878,4.0337352 -2.2072895,0.01601326 8.7185884,-4.0017078 c -1.7454984,2.3720609 -1.7354408,5.6174519 -6e-7,8.035443 z"
         style="font-size:12px;fill-rule:evenodd;stroke-width:0.625;stroke-linejoin:round"
         id="path45132-1-1" /></marker><marker
       style="overflow:visible"
       id="DotM-00-2"
       refX="0"
       refY="0"
       orient="auto"
       inkscape:stockid="DotM"><path
         inkscape:connector-curvature="0"
         transform="matrix(0.4,0,0,0.4,2.96,0.4)"
         style="fill-rule:evenodd;stroke:#000000;stroke-width:1pt;marker-start:none;marker-end:none"
         d="m -2.5,-1 c 0,2.76 -2.24,5 -5,5 -2.76,0 -5,-2.24 -5,-5 0,-2.76 2.24,-5 5,-5 2.76,0 5,2.24 5,5 z"
         id="path14329-2-7" /></marker><marker
       style="overflow:visible"
       id="Arrow2Mend-07-0"
       refX="0"
       refY="0"
       orient="auto"
       inkscape:stockid="Arrow2Mend"><path
         inkscape:connector-curvature="0"
         transform="scale(-0.6,-0.6)"
         d="M 8.7185878,4.0337352 -2.2072895,0.01601326 8.7185884,-4.0017078 c -1.7454984,2.3720609 -1.7354408,5.6174519 -6e-7,8.035443 z"
         style="font-size:12px;fill-rule:evenodd;stroke-width:0.625;stroke-linejoin:round"
         id="path45132-31-9" /></marker><marker
       style="overflow:visible"
       id="DotM-0-3"
       refX="0"
       refY="0"
       orient="auto"
       inkscape:stockid="DotM"><path
         inkscape:connector-curvature="0"
         transform="matrix(0.4,0,0,0.4,2.96,0.4)"
         style="fill-rule:evenodd;stroke:#000000;stroke-width:1pt;marker-start:none;marker-end:none"
         d="m -2.5,-1 c 0,2.76 -2.24,5 -5,5 -2.76,0 -5,-2.24 -5,-5 0,-2.76 2.24,-5 5,-5 2.76,0 5,2.24 5,5 z"
         id="path14329-94-6" /></marker><marker
       style="overflow:visible"
       id="Arrow2Mend-6-0"
       refX="0"
       refY="0"
       orient="auto"
       inkscape:stockid="Arrow2Mend"><path
         inkscape:connector-curvature="0"
         transform="scale(-0.6,-0.6)"
         d="M 8.7185878,4.0337352 -2.2072895,0.01601326 8.7185884,-4.0017078 c -1.7454984,2.3720609 -1.7354408,5.6174519 -6e-7,8.035443 z"
         style="font-size:12px;fill-rule:evenodd;stroke-width:0.625;stroke-linejoin:round"
         id="path45132-8-6" /></marker><marker
       style="overflow:visible"
       id="DotM-8-2"
       refX="0"
       refY="0"
       orient="auto"
       inkscape:stockid="DotM"><path
         inkscape:connector-curvature="0"
         transform="matrix(0.4,0,0,0.4,2.96,0.4)"
         style="fill-rule:evenodd;stroke:#000000;stroke-width:1pt;marker-start:none;marker-end:none"
         d="m -2.5,-1 c 0,2.76 -2.24,5 -5,5 -2.76,0 -5,-2.24 -5,-5 0,-2.76 2.24,-5 5,-5 2.76,0 5,2.24 5,5 z"
         id="path14329-91-6" /></marker><clipPath
       clipPathUnits="userSpaceOnUse"
       id="clipPath3169-2-1"><rect
         style="fill:#f5f5f4;fill-opacity:1;stroke:#888a85;stroke-width:2;stroke-miterlimit:4;stroke-dasharray:none;stroke-dashoffset:0;stroke-opacity:1"
         id="rect3171-7-8"
         width="748.77557"
         height="428.80975"
         x="48.992397"
         y="105.34417" /></clipPath><clipPath
       id="clipPath22-7-7"
       clipPathUnits="userSpaceOnUse"><path
         id="path24-2-9"
         d="M 0,792 1224,792 1224,0 0,0 0,792 Z"
         inkscape:connector-curvature="0" /></clipPath><clipPath
       clipPathUnits="userSpaceOnUse"
       id="clipPath6483-7-2"><rect
         style="fill:#ffffff;fill-opacity:1;stroke:none"
         id="rect6485-5-0"
         width="548"
         height="280"
         x="67.578148"
         y="187.65627" /></clipPath><clipPath
       id="clipPath10152-2"
       clipPathUnits="userSpaceOnUse"><rect
         y="754.14667"
         x="-37.134048"
         height="140.17392"
         width="718.58722"
         id="rect10154-3"
         style="fill:#555753;fill-opacity:1;stroke:#555753;stroke-width:1.83322382;stroke-miterlimit:4;stroke-dasharray:none;stroke-dashoffset:0;stroke-opacity:1" /></clipPath><marker
       style="overflow:visible"
       id="Arrow2Mend-0-7"
       refX="0"
       refY="0"
       orient="auto"
       inkscape:stockid="Arrow2Mend"><path
         inkscape:connector-curvature="0"
         transform="scale(-0.6,-0.6)"
         d="M 8.7185878,4.0337352 -2.2072895,0.01601326 8.7185884,-4.0017078 c -1.7454984,2.3720609 -1.7354408,5.6174519 -6e-7,8.035443 z"
         style="font-size:12px;fill-rule:evenodd;stroke-width:0.625;stroke-linejoin:round"
         id="path45132-982-5" /></marker><marker
       style="overflow:visible"
       id="DotM-2-9"
       refX="0"
       refY="0"
       orient="auto"
       inkscape:stockid="DotM"><path
         inkscape:connector-curvature="0"
         transform="matrix(0.4,0,0,0.4,2.96,0.4)"
         style="fill-rule:evenodd;stroke:#000000;stroke-width:1pt;marker-start:none;marker-end:none"
         d="m -2.5,-1 c 0,2.76 -2.24,5 -5,5 -2.76,0 -5,-2.24 -5,-5 0,-2.76 2.24,-5 5,-5 2.76,0 5,2.24 5,5 z"
         id="path14329-95-2" /></marker><marker
       style="overflow:visible"
       id="Arrow2Mend-2-2"
       refX="0"
       refY="0"
       orient="auto"
       inkscape:stockid="Arrow2Mend"><path
         inkscape:connector-curvature="0"
         transform="scale(-0.6,-0.6)"
         d="M 8.7185878,4.0337352 -2.2072895,0.01601326 8.7185884,-4.0017078 c -1.7454984,2.3720609 -1.7354408,5.6174519 -6e-7,8.035443 z"
         style="font-size:12px;fill-rule:evenodd;stroke-width:0.625;stroke-linejoin:round"
         id="path45132-98-8" /></marker><marker
       style="overflow:visible"
       id="DotM-5-9"
       refX="0"
       refY="0"
       orient="auto"
       inkscape:stockid="DotM"><path
         inkscape:connector-curvature="0"
         transform="matrix(0.4,0,0,0.4,2.96,0.4)"
         style="fill-rule:evenodd;stroke:#000000;stroke-width:1pt;marker-start:none;marker-end:none"
         d="m -2.5,-1 c 0,2.76 -2.24,5 -5,5 -2.76,0 -5,-2.24 -5,-5 0,-2.76 2.24,-5 5,-5 2.76,0 5,2.24 5,5 z"
         id="path14329-1-7" /></marker><marker
       style="overflow:visible"
       id="Arrow2Mend-75-3"
       refX="0"
       refY="0"
       orient="auto"
       inkscape:stockid="Arrow2Mend"><path
         inkscape:connector-curvature="0"
         transform="scale(-0.6,-0.6)"
         d="M 8.7185878,4.0337352 -2.2072895,0.01601326 8.7185884,-4.0017078 c -1.7454984,2.3720609 -1.7354408,5.6174519 -6e-7,8.035443 z"
         style="font-size:12px;fill-rule:evenodd;stroke-width:0.625;stroke-linejoin:round"
         id="path45132-9-6" /></marker><marker
       style="overflow:visible"
       id="DotM-466-1"
       refX="0"
       refY="0"
       orient="auto"
       inkscape:stockid="DotM"><path
         inkscape:connector-curvature="0"
         transform="matrix(0.4,0,0,0.4,2.96,0.4)"
         style="fill-rule:evenodd;stroke:#000000;stroke-width:1pt;marker-start:none;marker-end:none"
         d="m -2.5,-1 c 0,2.76 -2.24,5 -5,5 -2.76,0 -5,-2.24 -5,-5 0,-2.76 2.24,-5 5,-5 2.76,0 5,2.24 5,5 z"
         id="path14329-32-2" /></marker><marker
       style="overflow:visible"
       id="marker32938-9"
       refX="0"
       refY="0"
       orient="auto"
       inkscape:stockid="Arrow2Mend"><path
         inkscape:connector-curvature="0"
         transform="scale(-0.6,-0.6)"
         d="M 8.7185878,4.0337352 -2.2072895,0.01601326 8.7185884,-4.0017078 c -1.7454984,2.3720609 -1.7354408,5.6174519 -6e-7,8.035443 z"
         style="font-size:12px;fill-rule:evenodd;stroke-width:0.625;stroke-linejoin:round"
         id="path32940-3" /></marker><marker
       style="overflow:visible"
       id="marker32934-1"
       refX="0"
       refY="0"
       orient="auto"
       inkscape:stockid="DotM"><path
         inkscape:connector-curvature="0"
         transform="matrix(0.4,0,0,0.4,2.96,0.4)"
         style="fill-rule:evenodd;stroke:#000000;stroke-width:1pt;marker-start:none;marker-end:none"
         d="m -2.5,-1 c 0,2.76 -2.24,5 -5,5 -2.76,0 -5,-2.24 -5,-5 0,-2.76 2.24,-5 5,-5 2.76,0 5,2.24 5,5 z"
         id="path32936-9" /></marker><marker
       style="overflow:visible"
       id="Arrow2Mend-7-4"
       refX="0"
       refY="0"
       orient="auto"
       inkscape:stockid="Arrow2Mend"><path
         inkscape:connector-curvature="0"
         transform="scale(-0.6,-0.6)"
         d="M 8.7185878,4.0337352 -2.2072895,0.01601326 8.7185884,-4.0017078 c -1.7454984,2.3720609 -1.7354408,5.6174519 -6e-7,8.035443 z"
         style="font-size:12px;fill-rule:evenodd;stroke-width:0.625;stroke-linejoin:round"
         id="path45132-2-7" /></marker><marker
       style="overflow:visible"
       id="DotM-46-8"
       refX="0"
       refY="0"
       orient="auto"
       inkscape:stockid="DotM"><path
         inkscape:connector-curvature="0"
         transform="matrix(0.4,0,0,0.4,2.96,0.4)"
         style="fill-rule:evenodd;stroke:#000000;stroke-width:1pt;marker-start:none;marker-end:none"
         d="m -2.5,-1 c 0,2.76 -2.24,5 -5,5 -2.76,0 -5,-2.24 -5,-5 0,-2.76 2.24,-5 5,-5 2.76,0 5,2.24 5,5 z"
         id="path14329-9-4" /></marker><marker
       style="overflow:visible"
       id="Arrow2Mend-3-5"
       refX="0"
       refY="0"
       orient="auto"
       inkscape:stockid="Arrow2Mend"><path
         inkscape:connector-curvature="0"
         transform="scale(-0.6,-0.6)"
         d="M 8.7185878,4.0337352 -2.2072895,0.01601326 8.7185884,-4.0017078 c -1.7454984,2.3720609 -1.7354408,5.6174519 -6e-7,8.035443 z"
         style="font-size:12px;fill-rule:evenodd;stroke-width:0.625;stroke-linejoin:round"
         id="path45132-3-0" /></marker><marker
       style="overflow:visible"
       id="DotM-42-3"
       refX="0"
       refY="0"
       orient="auto"
       inkscape:stockid="DotM"><path
         inkscape:connector-curvature="0"
         transform="matrix(0.4,0,0,0.4,2.96,0.4)"
         style="fill-rule:evenodd;stroke:#000000;stroke-width:1pt;marker-start:none;marker-end:none"
         d="m -2.5,-1 c 0,2.76 -2.24,5 -5,5 -2.76,0 -5,-2.24 -5,-5 0,-2.76 2.24,-5 5,-5 2.76,0 5,2.24 5,5 z"
         id="path14329-3-6" /></marker><marker
       style="overflow:visible"
       id="Arrow2Mend-9-1"
       refX="0"
       refY="0"
       orient="auto"
       inkscape:stockid="Arrow2Mend"><path
         inkscape:connector-curvature="0"
         transform="scale(-0.6,-0.6)"
         d="M 8.7185878,4.0337352 -2.2072895,0.01601326 8.7185884,-4.0017078 c -1.7454984,2.3720609 -1.7354408,5.6174519 -6e-7,8.035443 z"
         style="font-size:12px;fill-rule:evenodd;stroke-width:0.625;stroke-linejoin:round"
         id="path45132-4-0" /></marker><marker
       style="overflow:visible"
       id="DotM-4-6"
       refX="0"
       refY="0"
       orient="auto"
       inkscape:stockid="DotM"><path
         inkscape:connector-curvature="0"
         transform="matrix(0.4,0,0,0.4,2.96,0.4)"
         style="fill-rule:evenodd;stroke:#000000;stroke-width:1pt;marker-start:none;marker-end:none"
         d="m -2.5,-1 c 0,2.76 -2.24,5 -5,5 -2.76,0 -5,-2.24 -5,-5 0,-2.76 2.24,-5 5,-5 2.76,0 5,2.24 5,5 z"
         id="path14329-8-3" /></marker><clipPath
       id="clipPath6483-5-2"
       clipPathUnits="userSpaceOnUse"><rect
         y="187.65627"
         x="67.578148"
         height="280"
         width="548"
         id="rect6485-2-0"
         style="fill:#ffffff;fill-opacity:1;stroke:none" /></clipPath><clipPath
       id="clipPath6483-1-7-3-0-6"
       clipPathUnits="userSpaceOnUse"><rect
         y="187.65627"
         x="67.578148"
         height="280"
         width="548"
         id="rect6485-6-4-5-6-1"
         style="fill:#ffffff;fill-opacity:1;stroke:none" /></clipPath><marker
       style="overflow:visible"
       id="Arrow2Lend-0-5"
       refX="0"
       refY="0"
       orient="auto"
       inkscape:stockid="Arrow2Lend"><path
         transform="matrix(-1.1,0,0,-1.1,-1.1,0)"
         d="M 8.7185878,4.0337352 -2.2072895,0.01601326 8.7185884,-4.0017078 c -1.7454984,2.3720609 -1.7354408,5.6174519 -6e-7,8.035443 z"
         style="font-size:12px;fill-rule:evenodd;stroke-width:0.625;stroke-linejoin:round"
         id="path45126-6-5"
         inkscape:connector-curvature="0" /></marker><clipPath
       id="clipPath6483-1-7-3-9-4"
       clipPathUnits="userSpaceOnUse"><rect
         y="187.65627"
         x="67.578148"
         height="280"
         width="548"
         id="rect6485-6-4-5-8-7"
         style="fill:#ffffff;fill-opacity:1;stroke:none" /></clipPath><clipPath
       id="clipPath6483-1-7-3-6"
       clipPathUnits="userSpaceOnUse"><rect
         y="187.65627"
         x="67.578148"
         height="280"
         width="548"
         id="rect6485-6-4-5-5"
         style="fill:#ffffff;fill-opacity:1;stroke:none" /></clipPath><clipPath
       id="clipPath6483-1-7-6"
       clipPathUnits="userSpaceOnUse"><rect
         y="187.65627"
         x="67.578148"
         height="280"
         width="548"
         id="rect6485-6-4-9"
         style="fill:#ffffff;fill-opacity:1;stroke:none" /></clipPath><clipPath
       id="clipPath6483-1-3"
       clipPathUnits="userSpaceOnUse"><rect
         y="187.65627"
         x="67.578148"
         height="280"
         width="548"
         id="rect6485-6-7"
         style="fill:#ffffff;fill-opacity:1;stroke:none" /></clipPath><clipPath
       id="clipPath6483-4"
       clipPathUnits="userSpaceOnUse"><rect
         y="187.65627"
         x="67.578148"
         height="280"
         width="548"
         id="rect6485-52"
         style="fill:#ffffff;fill-opacity:1;stroke:none" /></clipPath><clipPath
       clipPathUnits="userSpaceOnUse"
       id="clipPath22-5"><path
         inkscape:connector-curvature="0"
         d="M 0,792 1224,792 1224,0 0,0 0,792 Z"
         id="path24-4" /></clipPath><clipPath
       id="clipPath3169-7"
       clipPathUnits="userSpaceOnUse"><rect
         y="105.34417"
         x="48.992397"
         height="428.80975"
         width="748.77557"
         id="rect3171-4"
         style="fill:#f5f5f4;fill-opacity:1;stroke:#888a85;stroke-width:2;stroke-miterlimit:4;stroke-dasharray:none;stroke-dashoffset:0;stroke-opacity:1" /></clipPath><marker
       style="overflow:visible"
       id="Arrow2Lend-4"
       refX="0"
       refY="0"
       orient="auto"
       inkscape:stockid="Arrow2Lend"><path
         inkscape:connector-curvature="0"
         transform="matrix(-1.1,0,0,-1.1,-1.1,0)"
         d="M 8.7185878,4.0337352 -2.2072895,0.01601326 8.7185884,-4.0017078 c -1.7454984,2.3720609 -1.7354408,5.6174519 -6e-7,8.035443 z"
         style="font-size:12px;fill-rule:evenodd;stroke-width:0.625;stroke-linejoin:round"
         id="path45126-3" /></marker><marker
       style="overflow:visible"
       id="Arrow2Mend-078"
       refX="0"
       refY="0"
       orient="auto"
       inkscape:stockid="Arrow2Mend"><path
         inkscape:connector-curvature="0"
         transform="scale(-0.6,-0.6)"
         d="M 8.7185878,4.0337352 -2.2072895,0.01601326 8.7185884,-4.0017078 c -1.7454984,2.3720609 -1.7354408,5.6174519 -6e-7,8.035443 z"
         style="font-size:12px;fill-rule:evenodd;stroke-width:0.625;stroke-linejoin:round"
         id="path45132-6" /></marker><marker
       style="overflow:visible"
       id="DotL-8"
       refX="0"
       refY="0"
       orient="auto"
       inkscape:stockid="DotL"><path
         inkscape:connector-curvature="0"
         transform="matrix(0.8,0,0,0.8,5.92,0.8)"
         style="fill-rule:evenodd;stroke:#000000;stroke-width:1pt;marker-start:none;marker-end:none"
         d="m -2.5,-1 c 0,2.76 -2.24,5 -5,5 -2.76,0 -5,-2.24 -5,-5 0,-2.76 2.24,-5 5,-5 2.76,0 5,2.24 5,5 z"
         id="path14326-8" /></marker><marker
       style="overflow:visible"
       id="DotM-43"
       refX="0"
       refY="0"
       orient="auto"
       inkscape:stockid="DotM"><path
         inkscape:connector-curvature="0"
         transform="matrix(0.4,0,0,0.4,2.96,0.4)"
         style="fill-rule:evenodd;stroke:#000000;stroke-width:1pt;marker-start:none;marker-end:none"
         d="m -2.5,-1 c 0,2.76 -2.24,5 -5,5 -2.76,0 -5,-2.24 -5,-5 0,-2.76 2.24,-5 5,-5 2.76,0 5,2.24 5,5 z"
         id="path14329-14" /></marker></defs><g
     inkscape:groupmode="layer"
     id="layer1"
     inkscape:label="Sfondo"
     style="display:inline"
     transform="translate(333.23171,-57.16822)" /><g
     inkscape:groupmode="layer"
     id="layer2"
     inkscape:label="icone"
     style="display:inline"
     transform="translate(333.23171,-57.16822)" /><g
     id="g4"
     transform="translate(1.7555313e-4,0.5)"><path
       id="path7086-3"
       d="M 3,2 H 1.5 l -3.316e-4,8.5 H 10.5 V 2 H 9"
       inkscape:connector-curvature="0"
       sodipodi:nodetypes="cccccc"
       class="IconOutline  MiniOutline"
       style="" /><rect
       id="rect4137"
       width="5"
       height="2"
       x="3.5"
       y="0.5"
       class="IconOutline  MiniOutline"
       style="" /><path
       d="M 3,4.5 H 9"
       id="path4139"
       inkscape:connector-curvature="0"
       sodipodi:nodetypes="cc"
       class="IconOutline  MiniOutline"
       style="" /><path
       d="M 3,6.5 H 9"
       id="path4139-1"
       inkscape:connector-curvature="0"
       sodipodi:nodetypes="cc"
       class="IconOutline  MiniOutline"
       style="" /><path
       d="M 3,8.5 H 9"
       id="path4139-0"
       inkscape:connector-curvature="0"
       sodipodi:nodetypes="cc"
       class="IconOutline  MiniOutline"
       style="" /></g><g
     id="g5"
     transform="translate(21.999071)"><path
       id="path5607"
       d="M 5,1.5 10.501761,1.50796 10.5,10.5 H 5"
       inkscape:connector-curvature="0"
       sodipodi:nodetypes="cccc"
       class="IconOutline  MiniOutline"
       style="" /><path
       id="path5609"
       d="m 8.5,6 h -5"
       inkscape:connector-curvature="0"
       sodipodi:nodetypes="cc"
       class="IconOutline  MiniOutline"
       style="" /><path
       id="path5611"
       d="m 4.4999599,4 -3,2 3,2"
       class="IconOutline  MiniOutline"
       style="" /></g><path
     d="M 45.978753,0.92974896 A 1.0001,1.0001 0 0 0 45.281487,2.6465458 l 3.292969,3.2929688 -3.292969,3.292969 a 1.0001,1.0001 0 1 0 1.414063,1.4140624 l 3.292969,-3.2929689 3.292969,3.2929689 A 1.0001,1.0001 0 1 0 54.69555,9.2324836 L 51.402581,5.9395146 54.69555,2.6465458 A 1.0001,1.0001 0 0 0 53.968988,0.92974896 1.0001,1.0001 0 0 0 53.281488,1.2324834 L 49.988519,4.5254521 46.69555,1.2324834 A 1.0001,1.0001 0 0 0 45.978753,0.92974896 Z"
     id="path8784"
     class="OutlineAsFill"
     style="" /><g
     id="g7160"
     transform="translate(66.080965,0.05853098)"><path
       d="M 10.970616,2.3551087 9.5394447,0.92536398 c -0.179128,-0.1791285 -0.469874,-0.1791285 -0.649002,0 L 7.5970066,2.2203698 2.5975388,7.219695 C 2.5561478,7.261087 2.5226048,7.310044 2.4996248,7.3635687 L 1.4297071,9.8632313 c -0.075077,0.1729907 -0.035256,0.3735287 0.096486,0.5051287 0.088779,0.08878 0.2051055,0.134738 0.3245722,0.134738 0.061231,0 0.1224642,-0.01227 0.1821258,-0.03668 l 2.499663,-1.0699201 c 0.053525,-0.02298 0.1026242,-0.056665 0.1438738,-0.097914 L 9.6757527,4.2992585 10.970759,3.0058226 C 11.149745,2.8249815 11.149745,2.5342367 10.970616,2.3551083 Z M 2.7245703,9.17141 3.1424889,8.1978361 3.698144,8.7534913 Z M 4.243094,8.4336292 3.4624938,7.6530289 7.9658256,3.1495541 8.7465687,3.9301544 Z m 4.9365227,-4.9366658 -0.7806,-0.7806003 0.815856,-0.8158552 0.780599,0.779173 z"
       id="path6532"
       class="OutlineAsFill"
       style="" /><path
       d="M 3.1716102,2.6885593 8.8877119,8.8813559"
       id="path7156"
       class="IconOutline  MiniOutline"
       style="" /><circle
       id="path7158"
       cx="5.9064341"
       cy="5.9813395"
       r="5"
       class="IconOutline  MiniOutline"
       style="" /></g><g
     id="g8"
     transform="translate(87.587639,0.41004959)"><path
       id="path6532-6"
       d="M 11.749015,1.7952914 10.347156,0.39482903 c -0.175459,-0.1754598 -0.4602506,-0.1754598 -0.6357099,0 L 8.4445007,1.663312 3.5474261,6.5602469 C 3.5068828,6.6007913 3.4740266,6.6487458 3.451517,6.701174 L 2.4035126,9.1496414 c -0.073539,0.1694479 -0.034534,0.3658789 0.09451,0.4947827 0.08696,0.086962 0.2009047,0.1319789 0.3179247,0.1319789 0.059977,0 0.119956,-0.012018 0.1783957,-0.035929 L 5.4428109,8.6924669 c 0.052428,-0.02251 0.1005224,-0.055504 0.1409271,-0.095909 l 4.896934,-4.896935 1.268484,-1.2669453 C 11.924476,2.2555401 11.924476,1.97075 11.749015,1.7952903 Z M 3.6718559,8.4719892 4.0812152,7.5183549 4.62549,8.0626298 Z M 5.1592789,7.7493187 4.3946661,6.9847058 8.8057659,2.573466 9.5705187,3.3380788 Z M 9.9946975,2.9137599 9.2300849,2.1491471 10.029231,1.3500012 10.793844,2.1132161 Z"
       inkscape:connector-curvature="0"
       class="OutlineAsFill"
       style="" /><path
       id="path7086"
       d="M 5,2 H 1.5 l -3.316e-4,8.5 H 10 V 7"
       inkscape:connector-curvature="0"
       sodipodi:nodetypes="ccccc"
       class="IconOutline  MiniOutline"
       style="" /></g><g
     transform="translate(-964.09413,-344.55633)"
     id="layer1-2"><rect
       y="349.09799"
       x="1075.5664"
       height="6.0000062"
       width="6.0000587"
       id="rect4200"
       class="IconOutline  MiniOutline"
       style="" /><path
       id="rect4200-1"
       d="m 1078.5663,348.09799 v -2 h 6 v 6 h -2"
       class="IconOutline  MiniOutline"
       style="" /></g><path
     d="m 137.3644,0.90277771 c -0.16558,0 -0.29888,0.13330009 -0.29888,0.29887949 v 0.7596513 c -0.38661,0.095974 -0.75872,0.2504428 -1.10835,0.4607725 l -0.53549,-0.5354922 c -0.11708,-0.1170822 -0.30633,-0.1170822 -0.42341,0 l -0.97136,0.9713572 c -0.11708,0.1170825 -0.11708,0.30633 0,0.4234126 l 0.5355,0.5354922 c -0.20869,0.3486046 -0.35339,0.7249328 -0.44832,1.1083431 h -0.75965 c -0.16558,0 -0.29888,0.1333 -0.29888,0.2988782 v 1.3698634 c 0,0.1655795 0.1333,0.2988794 0.29888,0.2988794 h 0.74719 c 0.096,0.3869534 0.25027,0.7584235 0.46078,1.1083435 l -0.5355,0.5354922 c -0.11708,0.1170816 -0.11708,0.3063301 0,0.4234133 l 0.97136,0.971357 c 0.11708,0.1170821 0.30633,0.1170821 0.42341,0 l 0.53549,-0.535493 c 0.35116,0.211788 0.72167,0.35231 1.10835,0.448319 v 0.7596521 c 0,0.165579 0.1333,0.298879 0.29888,0.298879 h 1.36986 c 0.16558,0 0.29888,-0.1333 0.29888,-0.298879 V 9.8442469 c 0.3875,-0.0955 0.75787,-0.238052 1.10834,-0.448319 l 0.5355,0.535493 c 0.11708,0.1170821 0.30633,0.1170821 0.42341,0 l 0.97136,-0.971357 c 0.11708,-0.1170832 0.11708,-0.3063317 0,-0.4234133 l -0.5355,-0.5354922 c 0.21077,-0.3492869 0.36458,-0.7237385 0.46078,-1.1083432 h 0.75965 c 0.16558,-3e-7 0.29888,-0.1333002 0.29888,-0.2988797 V 5.2240733 c 0,-0.1655794 -0.1333,-0.2988794 -0.29888,-0.2988794 h -0.75965 c -0.0954,-0.3842759 -0.2524,-0.7605237 -0.46078,-1.1083431 l 0.5355,-0.5354922 c 0.11708,-0.1170826 0.11708,-0.3063301 0,-0.4234126 l -0.97136,-0.9713572 c -0.11708,-0.1170822 -0.30633,-0.1170822 -0.42341,0 l -0.5355,0.5354922 C 139.79153,2.2120322 139.41825,2.0566035 139.03314,1.9613085 V 1.2016572 c 0,-0.1655794 -0.1333,-0.29887949 -0.29888,-0.29887949 z m 0.63512,3.11332529 c 0.48426,-0.012856 0.97812,0.150909 1.35741,0.5105849 0.75857,0.719352 0.79407,1.9188867 0.0747,2.6774599 -0.71758,0.7567003 -1.91826,0.7896491 -2.67746,0.07472 -0.75858,-0.7193519 -0.79408,-1.9188866 -0.0747,-2.6774597 0.35967,-0.3792863 0.83578,-0.5724529 1.32005,-0.5853045 z"
     id="rect3381-0"
     inkscape:connector-curvature="0"
     class="OutlineAsFill"
     style="" /><g
     id="g11"
     transform="translate(153.99997,0.04167073)"><path
       d="M 1.5000553,1.4999919 H 10.5 V 10.5 H 1.5000553 Z"
       id="rect4200-9"
       class="IconOutline  MiniOutline"
       style="" /><path
       sodipodi:nodetypes="cc"
       inkscape:connector-curvature="0"
       id="path4207"
       d="m 2,4.5 h 8"
       class="IconOutline  MiniOutline"
       style="" /></g><g
     id="g13"
     transform="translate(198.02778,-0.09722221)"><ellipse
       ry="2.2648306"
       rx="2.2341104"
       cy="6"
       cx="6"
       id="path5584"
       class="OutlineAsFill"
       style="" /><ellipse
       ry="3.7245762"
       rx="4.7838984"
       cy="6"
       cx="6"
       id="path5586"
       class="IconOutline  MiniOutline"
       style="" /></g></svg>
