<?xml version="1.0" encoding="UTF-8" standalone="no"?>
<!-- Created with Inkscape (http://www.inkscape.org/) -->

<svg
   width="48"
   height="48"
   viewBox="0 0 48.000001 48"
   version="1.1"
   id="svg1387"
   xml:space="preserve"
   xmlns="http://www.w3.org/2000/svg"
   xmlns:svg="http://www.w3.org/2000/svg"><defs
     id="FlatIconDefs"><style
       id="FlatIconStlyle"><![CDATA[
.IconOutline { 
    fill:none;
    stroke:#404040;
    stroke-linecap:round;
    stroke-width:1;
}
.DotOutline { stroke-dasharray:0.1, 2.5; }
.ThickOutline { 
    stroke-linejoin:miter;
    stroke-miterlimit:3;
    stroke-width:1;
}
.GenericFill { 
    fill:#c0c0c0;
}
.GenericFillDark { fill: #6f758e }
.OutlineAsFill { 
    fill:#404040;
}
.BgFill { 
    fill:#f0f0f0;
}
.SolidFill { fill:#3769ff }
.MeshFill { fill:#7950f2; }
.MeshFillDark { fill:#6b4cc8; }
.DynDataFill { fill:#aea72c; }
.DatumFill { 
    fill:#aacaca;
}
.DatumOutline { stroke:#15aabf; }
.PartDesignFill { 
    fill:#bacaf0;
}
.TransformFill { 
    fill:#bafaba;
}
.AdditiveFill { 
    fill:#bafaba;
}
.SubtractiveFill { 
    fill:#fababa;
}
.IntersectFill { fill: #4c6ef5; }
.ImportFill { fill:#40c057; }
.ExportFill { fill:#f03e3e; }
.ViewFill { fill: #76A8F9 }
.SketchFill { fill: #f5f4f4; }
.SketckOutline { stroke:#f03e3e; }
.SpreadsheetFill { fill: #868e96; }
.SpreadsheetLines { stroke:#495057; }
.PlaceHolder { fill: #555555; fill-opacity: 1; }
]]></style></defs><g
     id="layer1"
     style="display:none"
     transform="translate(-937.32679,-1000.2191)">&#10;     sodipodi:insensitive=&quot;true&quot;&#10;     style=&quot;display:none&quot;&gt;<rect
   width="48"
   height="48"
   class="PlaceHolder"
   id="PH_PartDesign_SubtractiveCone"
   x="937.3269"
   y="1000.2192" /> </g><g
     id="layer2"
     transform="translate(-937.32679,-1000.2191)"
     style="display:inline"><path
       d="m 961.36347,1007.0863 14.72404,31.3169 c 0.12427,0.3257 0.1553,0.667 -0.25055,1.0804 -2.29687,1.9216 -7.65852,2.7105 -14.8995,2.9227 -7.52033,-0.2935 -12.12048,-1.2945 -14.03352,-2.9462 -0.24951,-0.2568 -0.449,-0.5604 -0.41772,-1.0804 z"
       id="path2708-0-6"
       class="IconOutline  SubtractiveFill" /><path
       id="path2708-0-4-1"
       class="IconOutline  DotOutline"
       d="m 961.35542,1035.4336 c -7.52032,0.2935 -12.12016,1.2936 -14.0332,2.9453 -0.24951,0.2568 -0.44925,0.5601 -0.41797,1.0801 1.91304,1.6517 6.51288,2.6538 14.03321,2.9473 7.24097,-0.2122 12.60352,-1.0023 14.90039,-2.9239 0.40585,-0.4134 0.37427,-0.7543 0.25,-1.08 l -0.125,-0.2637 c -2.43574,-1.762 -7.64984,-2.5012 -14.60743,-2.7051 z" /><path
       id="path2708-0-5-8"
       class="IconOutline  ThickOutline"
       d="m 960.68563,1007.2402 c -4.98236,10.4812 -9.96526,20.9621 -14.94727,31.4434 -0.18939,1.2646 0.89455,2.1688 1.92561,2.6456 3.06855,1.4907 6.53875,1.7961 9.88941,2.1095 2.63105,0.2706 5.27511,0.1811 7.90626,-0.037 3.34044,-0.3128 6.82002,-0.6055 9.84508,-2.179 0.91734,-0.4396 1.95095,-1.3672 1.51972,-2.4908 -4.97385,-10.6909 -10.03053,-21.3513 -15.03694,-32.0301 -0.26726,-0.8369 -0.53595,-1.0241 -0.80713,-0.08 -0.0983,0.2063 -0.1965,0.4127 -0.29474,0.619 z" /><g
       id="g117-2-4-6-5-7"
       transform="translate(1149.9567,286.49577)"><rect
         id="rect375-7-1-6-5-9-2-9"
         width="15"
         height="15"
         x="-179.6299"
         y="746.72333"
         rx="3.9999998"
         ry="3.9999998"
         class="OutlinesFill  OutlineAsFill" /><rect
         id="rect984-7-9-0-1-3-5-2"
         width="10"
         height="3"
         x="-177.12991"
         y="752.72333"
         class="BgFill" /></g></g></svg>
