<?xml version="1.0" encoding="UTF-8" standalone="no"?>
<!-- Created with Inkscape (http://www.inkscape.org/) -->

<svg
   width="48"
   height="48"
   viewBox="0 0 48.000001 48"
   version="1.1"
   id="svg1387"
   xml:space="preserve"
   xmlns="http://www.w3.org/2000/svg"
   xmlns:svg="http://www.w3.org/2000/svg"><defs
     id="FlatIconDefs"><style
       id="FlatIconStlyle"><![CDATA[
.IconOutline { 
    fill:none;
    stroke:#404040;
    stroke-linecap:round;
    stroke-width:1;
}
.DotOutline { stroke-dasharray:0.1, 2.5; }
.ThickOutline { 
    stroke-linejoin:miter;
    stroke-miterlimit:3;
    stroke-width:1;
}
.GenericFill { 
    fill:#c0c0c0;
}
.GenericFillDark { fill: #6f758e }
.OutlineAsFill { 
    fill:#404040;
}
.BgFill { 
    fill:#f0f0f0;
}
.SolidFill { fill:#3769ff }
.MeshFill { fill:#7950f2; }
.MeshFillDark { fill:#6b4cc8; }
.DynDataFill { fill:#aea72c; }
.DatumFill { 
    fill:#aacaca;
}
.DatumOutline { stroke:#15aabf; }
.PartDesignFill { 
    fill:#bacaf0;
}
.TransformFill { 
    fill:#bafaba;
}
.AdditiveFill { 
    fill:#bafaba;
}
.SubtractiveFill { 
    fill:#fababa;
}
.IntersectFill { fill: #4c6ef5; }
.ImportFill { fill:#40c057; }
.ExportFill { fill:#f03e3e; }
.ViewFill { fill: #76A8F9 }
.SketchFill { fill: #f5f4f4; }
.SketckOutline { stroke:#f03e3e; }
.SpreadsheetFill { fill: #868e96; }
.SpreadsheetLines { stroke:#495057; }
.PlaceHolder { fill: #555555; fill-opacity: 1; }
]]></style></defs><g
     id="layer1"
     style="display:none"
     transform="translate(509.57186,-712.2191)">&#10;     sodipodi:insensitive=&quot;true&quot;&#10;     style=&quot;display:none&quot;&gt;<rect
   width="48"
   height="48"
   class="PlaceHolder"
   id="PH_PartDesign_Body_Tree"
   x="-509.5719"
   y="712.21912" /> </g><g
     id="layer2"
     transform="translate(509.57186,-712.2191)"
     style="display:inline"><g
       style="fill:none"
       id="g82"
       transform="translate(-509.53781,712.2191)"><path
         d="M 6.0070339,34.354767 23.966227,44.622079 41.840706,34.439622 41.925416,23.238908 33.623527,18.402246 33.538817,8.8986137 24.050941,3.3831094 6.1764664,13.650426 Z"
         id="path927-3"
         class="PartDesignFill  IconOutline" /><path
         id="path927-3-9"
         class="IconOutline  ThickOutline"
         d="M 23.677734,2.7324219 C 17.595133,6.2267033 11.511884,9.7198583 5.4296875,13.214844 5.3701396,20.406242 5.3133222,27.597663 5.2539062,34.789062 11.492408,38.35329 17.728697,41.921396 23.966797,45.486328 30.17344,41.950334 36.3805,38.415061 42.585938,34.876953 c 0.03262,-4.022775 0.06118,-8.045584 0.09375,-12.068359 -2.770886,-1.612071 -5.54025,-3.22676 -8.310547,-4.839844 -0.02804,-3.167968 -0.05573,-6.33594 -0.08398,-9.5039062 C 30.87468,6.4812014 27.462848,4.4998886 24.052734,2.515625 c -0.125,0.072266 -0.25,0.1445313 -0.375,0.2167969 z" /><path
         d="m 6.3035309,13.820135 9.6573051,5.600354 -0.338856,9.588483 8.471316,4.666962 -0.169423,10.437025"
         id="path1079-3"
         class="IconOutline" /><path
         d="M 33.242316,8.983464 15.791409,19.420489"
         id="path1081-8"
         class="IconOutline" /><path
         d="M 41.798351,23.408618 24.008587,33.845643"
         id="path1083-0"
         class="IconOutline" /><path
         d="M 15.62198,28.994829 33.581173,18.642662"
         id="path1139-5"
         class="IconOutline" /></g></g></svg>
