<?xml version="1.0" encoding="UTF-8" standalone="no"?>
<!-- Created with Inkscape (http://www.inkscape.org/) -->

<svg
   width="48"
   height="48"
   viewBox="0 0 48.000001 48"
   version="1.1"
   id="svg1387"
   xml:space="preserve"
   xmlns="http://www.w3.org/2000/svg"
   xmlns:svg="http://www.w3.org/2000/svg"><defs
     id="FlatIconDefs"><style
       id="FlatIconStlyle"><![CDATA[
.IconOutline { 
    fill:none;
    stroke:#404040;
    stroke-linecap:round;
    stroke-width:1;
}
.DotOutline { stroke-dasharray:0.1, 2.5; }
.ThickOutline { 
    stroke-linejoin:miter;
    stroke-miterlimit:3;
    stroke-width:1;
}
.GenericFill { 
    fill:#c0c0c0;
}
.GenericFillDark { fill: #6f758e }
.OutlineAsFill { 
    fill:#404040;
}
.BgFill { 
    fill:#f0f0f0;
}
.SolidFill { fill:#3769ff }
.MeshFill { fill:#7950f2; }
.MeshFillDark { fill:#6b4cc8; }
.DynDataFill { fill:#aea72c; }
.DatumFill { 
    fill:#aacaca;
}
.DatumOutline { stroke:#15aabf; }
.PartDesignFill { 
    fill:#bacaf0;
}
.TransformFill { 
    fill:#bafaba;
}
.AdditiveFill { 
    fill:#bafaba;
}
.SubtractiveFill { 
    fill:#fababa;
}
.IntersectFill { fill: #4c6ef5; }
.ImportFill { fill:#40c057; }
.ExportFill { fill:#f03e3e; }
.ViewFill { fill: #76A8F9 }
.SketchFill { fill: #f5f4f4; }
.SketckOutline { stroke:#f03e3e; }
.SpreadsheetFill { fill: #868e96; }
.SpreadsheetLines { stroke:#495057; }
.PlaceHolder { fill: #555555; fill-opacity: 1; }
]]></style></defs><g
     id="layer1"
     style="display:none"
     transform="translate(-169.32674,-1000.2191)">&#10;     sodipodi:insensitive=&quot;true&quot;&#10;     style=&quot;display:none&quot;&gt;<rect
   width="48"
   height="48"
   class="PlaceHolder"
   id="PH_PartDesign_MultiTransform"
   x="169.32674"
   y="1000.2191" /> </g><g
     id="layer2"
     transform="translate(-169.32674,-1000.2191)"
     style="display:inline"><g
       id="g99"
       transform="translate(-55.910698,0.38775)"><path
         d="m 238.80905,1016.108 v -12.1043 h 12.10426 l 4.85816,5.2192 v 11.7433 h -12.10426 z"
         id="path146-0-7-2"
         class="IconOutline  PartDesignFill" /><path
         id="path121-6-8-8"
         class="IconOutline"
         d="m 243.66721,1009.2229 v 11.7433 m 0,-11.7433 h 12.10426 m -16.96242,-5.2192 4.85816,5.2192" /><path
         d="m 252.39177,1025.372 v -10.1924 h 10.19234 l 4.09081,4.3949 v 9.8883 h -10.19235 z"
         id="path146-0-5-9"
         class="IconOutline  TransformFill" /><path
         id="path121-6-9-3"
         class="IconOutline"
         d="m 256.48257,1019.5745 v 9.8883 m 0,-9.8883 h 10.19235 m -14.28315,-4.3949 4.0908,4.3949" /><path
         d="m 231.80145,1036.5907 v -17.6123 h 17.61225 l 7.06887,7.5943 v 17.0868 h -17.61225 z"
         id="path146-0-6"
         class="IconOutline  TransformFill" /><path
         id="path146-0-7-2-2"
         class="IconOutline    ThickOutline"
         d="m 238.05859,1004.0039 c 0,4.138 0,8.276 0,12.4141 0.60313,0.6032 1.2057,1.207 1.8086,1.8105 -2.9388,0 -5.87761,0 -8.81641,0 0,6.2246 0,12.4492 0,18.6738 2.50096,2.5043 5.0036,5.0069 7.50781,7.5079 6.22461,0 12.44922,0 18.67383,0 0,-4.7325 0,-9.4649 0,-14.1973 3.39714,0 6.79427,0 10.19141,0 0,-3.6445 0,-7.2891 0,-10.9336 -1.50409,-1.617 -3.00825,-3.2339 -4.51367,-4.8496 -2.12956,0 -4.25912,0 -6.38868,0 0,-1.834 0,-3.668 0,-5.502 -1.76046,-1.8918 -3.52141,-3.7832 -5.2832,-5.6738 -4.39323,0 -8.78646,0 -13.17969,0 0,0.25 0,0.5 0,0.75 z" /><path
         id="path121-6-0"
         style="stroke-linejoin:miter;stroke-opacity:1"
         class="IconOutline"
         d="m 238.87032,1026.5727 v 17.0868 m 0,-17.0868 h 17.61225 m -24.68112,-7.5943 7.06887,7.5943" /></g></g></svg>
