<?xml version="1.0" encoding="UTF-8" standalone="no"?>
<!-- Created with Inkscape (http://www.inkscape.org/) -->

<svg
   width="48"
   height="48"
   viewBox="0 0 48.000001 48"
   version="1.1"
   id="svg1387"
   xml:space="preserve"
   xmlns="http://www.w3.org/2000/svg"
   xmlns:svg="http://www.w3.org/2000/svg"><defs
     id="FlatIconDefs"><style
       id="FlatIconStlyle"><![CDATA[
.IconOutline { 
    fill:none;
    stroke:#404040;
    stroke-linecap:round;
    stroke-width:1;
}
.DotOutline { stroke-dasharray:0.1, 2.5; }
.ThickOutline { 
    stroke-linejoin:miter;
    stroke-miterlimit:3;
    stroke-width:1;
}
.GenericFill { 
    fill:#c0c0c0;
}
.GenericFillDark { fill: #6f758e }
.OutlineAsFill { 
    fill:#404040;
}
.BgFill { 
    fill:#f0f0f0;
}
.SolidFill { fill:#3769ff }
.MeshFill { fill:#7950f2; }
.MeshFillDark { fill:#6b4cc8; }
.DynDataFill { fill:#aea72c; }
.DatumFill { 
    fill:#aacaca;
}
.DatumOutline { stroke:#15aabf; }
.PartDesignFill { 
    fill:#bacaf0;
}
.TransformFill { 
    fill:#bafaba;
}
.AdditiveFill { 
    fill:#bafaba;
}
.SubtractiveFill { 
    fill:#fababa;
}
.IntersectFill { fill: #4c6ef5; }
.ImportFill { fill:#40c057; }
.ExportFill { fill:#f03e3e; }
.ViewFill { fill: #76A8F9 }
.SketchFill { fill: #f5f4f4; }
.SketckOutline { stroke:#f03e3e; }
.SpreadsheetFill { fill: #868e96; }
.SpreadsheetLines { stroke:#495057; }
.PlaceHolder { fill: #555555; fill-opacity: 1; }
]]></style></defs><g
     id="layer1"
     style="display:none"
     transform="translate(214.67331,-1576.2191)">&#10;     sodipodi:insensitive=&quot;true&quot;&#10;     style=&quot;display:none&quot;&gt;<rect
   width="48"
   height="48"
   class="PlaceHolder"
   id="PH_PartDesign_Draft"
   x="-214.67328"
   y="1576.219" /> </g><g
     id="layer2"
     transform="translate(214.67331,-1576.2191)"
     style="display:inline"><g
       id="g48"
       transform="translate(2.5666414,5.54395)"><path
         id="path46"
         class="IconOutline  PartDesignFill  SubtractiveFill"
         d="m -197.52922,1576.2185 -13.80664,29.1465 7.76367,7.7656 h 28.42578 v -28.4258 h -13.89648 z" /><path
         id="path46-0"
         class="IconOutline  ThickOutline"
         d="m -198.20703,1575.8984 c -4.67796,9.8743 -9.35414,19.7494 -14.0332,29.6231 2.78483,2.7881 5.57129,5.5745 8.35937,8.3594 9.82813,0 19.65625,0 29.48438,0 0,-9.8282 0,-19.6563 0,-29.4844 -2.97532,-2.9759 -5.95047,-5.9519 -8.92579,-8.9277 -4.89388,0 -9.78776,-1e-4 -14.68164,0 -0.0677,0.1432 -0.13541,0.2864 -0.20312,0.4296 z" /><path
         d="m -197.52966,1576.2191 h 13.89592 l 8.48671,8.4867 h -13.89592 z"
         id="path47"
         class="IconOutline  PartDesignFill" /><path
         d="m -189.04295,1584.7058 -14.52923,28.4248"
         id="path48"
         class="IconOutline" /></g></g></svg>
