<?xml version="1.0" encoding="UTF-8" standalone="no"?>
<!-- Created with Inkscape (http://www.inkscape.org/) -->

<svg
   width="48"
   height="48"
   viewBox="0 0 48.000001 48"
   version="1.1"
   id="svg1387"
   xml:space="preserve"
   xmlns="http://www.w3.org/2000/svg"
   xmlns:svg="http://www.w3.org/2000/svg"><defs
     id="FlatIconDefs"><style
       id="FlatIconStlyle"><![CDATA[
.IconOutline { 
    fill:none;
    stroke:#404040;
    stroke-linecap:round;
    stroke-width:1;
}
.DotOutline { stroke-dasharray:0.1, 2.5; }
.ThickOutline { 
    stroke-linejoin:miter;
    stroke-miterlimit:3;
    stroke-width:1;
}
.GenericFill { 
    fill:#c0c0c0;
}
.GenericFillDark { fill: #6f758e }
.OutlineAsFill { 
    fill:#404040;
}
.BgFill { 
    fill:#f0f0f0;
}
.SolidFill { fill:#3769ff }
.MeshFill { fill:#7950f2; }
.MeshFillDark { fill:#6b4cc8; }
.DynDataFill { fill:#aea72c; }
.DatumFill { 
    fill:#aacaca;
}
.DatumOutline { stroke:#15aabf; }
.PartDesignFill { 
    fill:#bacaf0;
}
.TransformFill { 
    fill:#bafaba;
}
.AdditiveFill { 
    fill:#bafaba;
}
.SubtractiveFill { 
    fill:#fababa;
}
.IntersectFill { fill: #4c6ef5; }
.ImportFill { fill:#40c057; }
.ExportFill { fill:#f03e3e; }
.ViewFill { fill: #76A8F9 }
.SketchFill { fill: #f5f4f4; }
.SketckOutline { stroke:#f03e3e; }
.SpreadsheetFill { fill: #868e96; }
.SpreadsheetLines { stroke:#495057; }
.PlaceHolder { fill: #555555; fill-opacity: 1; }
]]></style></defs><g
     id="layer1"
     style="display:none"
     transform="translate(-169.32675,-1288.2191)">&#10;     sodipodi:insensitive=&quot;true&quot;&#10;     style=&quot;display:none&quot;&gt;<rect
   width="48"
   height="48"
   class="PlaceHolder"
   id="PH_PartDesign_Sprocket"
   x="169.32689"
   y="1288.219" /> </g><g
     id="layer2"
     transform="translate(-169.32675,-1288.2191)"
     style="display:inline"><g
       id="g9"
       transform="translate(0.52809746,-2.4433)"><path
         id="rect8"
         style="stroke-miterlimit:1.9"
         d="m 173.12132,1295.6192 v 8.067 c 2.07589,1.9961 3.80391,2.145 5.92341,2.485 0.34069,0.055 0.67734,0.1254 1.01304,0.1953 0.0894,-0.076 0.18324,-0.1476 0.27733,-0.2185 0.0639,-0.048 0.12706,-0.098 0.19266,-0.1462 0.0719,-0.052 0.14784,-0.1035 0.22189,-0.1544 0.32483,-0.2233 0.66687,-0.44 1.02177,-0.6699 0.70016,-0.4539 1.34874,-0.9523 1.90928,-1.4916 0.37615,-0.3621 0.62212,-0.7213 0.75905,-1.075 0.0913,-0.2358 0.13391,-0.4707 0.13423,-0.6994 4.1e-4,-0.2287 -0.0417,-0.4536 -0.11972,-0.6729 -0.0389,-0.1089 -0.0868,-0.2167 -0.14304,-0.3234 -0.0562,-0.2242 -0.14498,-0.4411 -0.2715,-0.6496 -0.37952,-0.6258 -1.09603,-1.167 -2.26836,-1.5324 -0.21751,-0.069 -0.43992,-0.1327 -0.66269,-0.1923 h -0.002 c -0.22278,-0.06 -0.44736,-0.1159 -0.67439,-0.1689 h -0.002 c -0.45588,-0.1046 -0.91737,-0.1932 -1.38381,-0.2681 -0.52888,-0.085 -1.03518,-0.1578 -1.52683,-0.2506 h -0.002 c -0.49159,-0.092 -0.97068,-0.2058 -1.44801,-0.3699 h -0.002 c -0.23909,-0.08 -0.47538,-0.1791 -0.71525,-0.2912 -0.23914,-0.1124 -0.48123,-0.2411 -0.72401,-0.3906 h -0.002 c -0.24291,-0.1495 -0.48629,-0.3204 -0.7357,-0.5156 h -0.002 c -0.25004,-0.1958 -0.50246,-0.4178 -0.76197,-0.6671 z m 15.65954,13.4421 c -0.19826,0 -0.40295,0 -0.61599,0.02 -0.77278,0.055 -1.53508,0.1681 -2.28587,0.3088 -0.002,6e-4 -0.006,-7e-4 -0.008,0 -0.17205,0.032 -0.34651,0.057 -0.51674,0.092 -2.08027,0.4433 -3.68492,0.9141 -6.91893,-0.092 h -0.002 v 8.0667 h 0.002 c 3.23399,1.0073 4.83866,0.5368 6.91893,0.092 0.9156,-0.1946 1.85891,-0.3344 2.81135,-0.4019 1.70439,-0.1208 2.92981,0.3066 3.76892,1.005 0.16893,0.098 0.32199,0.2068 0.4671,0.3203 -0.005,-0.015 -0.005,-0.018 -0.008,-0.026 -0.0496,-0.1184 -0.0944,-0.2326 -0.13139,-0.3438 -0.006,-0.019 -0.015,-0.04 -0.0205,-0.057 -0.0397,-0.1254 -0.0688,-0.2489 -0.0934,-0.3671 -0.0259,-0.1253 -0.0448,-0.2436 -0.0554,-0.3611 -0.0205,-0.2229 -0.012,-0.4337 0.0119,-0.6381 0.015,-0.1183 0.0355,-0.2331 0.0612,-0.3466 4.2e-4,0 -4.3e-4,0 0,0 0.12871,-0.5636 0.38302,-1.0874 0.63643,-1.6634 0.27983,-0.6364 0.4836,-1.2958 0.58094,-1.9577 0.17423,-1.1845 -0.44318,-2.0362 -1.44799,-2.6192 -0.34059,-0.2835 -0.74917,-0.5207 -1.22324,-0.6963 h -0.002 c -0.13032,-0.048 -0.26505,-0.092 -0.40579,-0.1313 -0.006,0 -0.0134,0 -0.0205,0 -0.0282,-0.015 -0.0591,-0.015 -0.0876,-0.022 -0.12196,-0.032 -0.24666,-0.057 -0.3766,-0.081 -0.3205,-0.057 -0.6652,-0.088 -1.03638,-0.091 z m 14.91801,6.1382 c -0.1943,3e-4 -0.39171,0.016 -0.58972,0.036 -0.038,0 -0.0757,0.016 -0.11384,0.018 -0.15609,0.02 -0.31212,0.046 -0.47001,0.082 -0.0574,0.015 -0.11467,0.025 -0.17225,0.039 -0.15566,0.039 -0.31313,0.088 -0.47001,0.1431 -0.0409,0.015 -0.0818,0.025 -0.12258,0.039 -0.20407,0.076 -0.40772,0.162 -0.61306,0.2651 -0.77619,0.3897 -1.49272,0.8391 -2.14574,1.3256 -0.36109,0.269 -0.6975,0.5284 -1.05099,0.7718 -0.52828,0.3668 -1.10115,0.695 -1.84503,0.9587 -0.24718,0.088 -0.51684,0.1667 -0.80868,0.2389 -0.25949,0.063 -0.54698,0.1196 -0.84955,0.169 -0.0473,0.015 -0.0887,0.019 -0.1372,0.026 -0.31449,0.049 -0.66296,0.09 -1.03055,0.1222 -0.0292,0 -0.0522,0 -0.0819,0.015 0.002,0 0.002,0.015 0.006,0.018 l -0.26275,0.016 v 2.9163 c -0.0451,0.1147 -0.0901,0.2301 -0.14005,0.3438 -0.63585,1.4455 -1.30947,2.5595 0.14005,4.8069 3.52551,-0.2512 4.57697,-1.2165 6.06063,-2.322 0.65301,-0.4865 1.36956,-0.9359 2.14574,-1.3256 1.3889,-0.6969 2.75878,-0.753 3.98786,-0.4398 1.28978,0.1558 2.43702,0.6792 3.13833,1.7654 0.39191,0.6072 0.68957,1.2485 0.90502,1.8965 0.48945,1.4731 0.70677,2.671 3.57915,4.1137 v -8.0669 c -0.35818,-0.1799 -0.67627,-0.3568 -0.95755,-0.5304 h -0.002 c -0.23967,-0.1476 -0.44279,-0.2952 -0.63348,-0.4398 v -3.3502 l -2.03481,0.071 c -0.0411,-0.116 -0.0822,-0.2312 -0.12842,-0.3467 -0.19295,-0.4823 -0.43299,-0.9578 -0.72691,-1.4129 -0.17455,-0.2703 -0.37919,-0.5072 -0.6043,-0.7109 h -0.002 c -0.11205,-0.1014 -0.23032,-0.1939 -0.35325,-0.2796 h -0.002 c -0.37169,-0.2588 -0.789,-0.4478 -1.2378,-0.5798 h -0.002 c -0.2999,-0.088 -0.61176,-0.1503 -0.93421,-0.1893 -0.19801,-0.051 -0.40229,-0.087 -0.60724,-0.1161 -0.0617,-0.015 -0.12451,-0.019 -0.18683,-0.026 -0.2118,-0.023 -0.42488,-0.042 -0.64225,-0.039 z"
         class="IconOutline  PartDesignFill" /><path
         id="path154-9-4-7-7"
         style="stroke-linejoin:miter;stroke-opacity:1"
         d="m 173.12007,1295.6192 c 2.07591,1.9963 3.8039,2.145 5.92342,2.4852 0.93286,0.1497 1.85316,0.3569 2.7267,0.6292 1.56312,0.4874 2.31561,1.2858 2.53984,2.1821 0.45069,0.8541 0.3725,1.8054 -0.63056,2.7705 -0.56056,0.5393 -1.20912,1.038 -1.90928,1.4917 -1.59082,1.0311 -2.97816,1.7626 -3.33978,4.2126 h 0.002 c 3.23401,1.0072 4.83863,0.5357 6.91891,0.092 0.91562,-0.1945 1.85891,-0.3344 2.81136,-0.402 1.70441,-0.1208 2.92981,0.3067 3.76893,1.005 1.00483,0.5833 1.62222,1.4348 1.448,2.6191 -0.0973,0.6621 -0.30111,1.3215 -0.58095,1.9578 -0.63584,1.4454 -1.30948,2.5596 0.14006,4.8068 3.52552,-0.2512 4.57696,-1.2164 6.06061,-2.3217 0.65303,-0.4866 1.36956,-0.936 2.14575,-1.3256 1.38891,-0.6971 2.75878,-0.7532 3.98787,-0.4399 1.28979,0.1558 2.43701,0.6793 3.13833,1.7655 0.3919,0.607 0.68958,1.2483 0.905,1.8966 0.48947,1.4729 0.70676,2.6709 3.57917,4.1136 v -27.5396 z"
         class="IconOutline  PartDesignFill" /><path
         style="stroke-linejoin:miter;stroke-opacity:1"
         d="m 192.09294,1317.3172 -0.1428,10.5198"
         id="path9"
         class="IconOutline" /><path
         id="rect8-6"
         class="IconOutline    ThickOutline"
         d="m 172.375,1294.8711 c -0.005,3.0442 -6.3e-4,6.097 -0.002,9.1445 1.45548,1.5189 3.42313,2.4819 5.51035,2.7273 0.68265,6e-4 0.75079,0.2183 0.33963,0.7509 -0.42589,0.8203 -0.51283,1.7526 -0.69569,2.6449 0.36032,0.2584 0.0553,1.1822 0.15625,1.7 0,2.1221 0,4.2442 0,6.3664 1.11993,-0.024 2.16862,0.5238 3.29688,0.5547 3.10126,0.3709 6.0923,-1.4262 9.18359,-0.6993 0.76064,0.2696 1.61032,0.6564 1.92401,1.4418 0.23102,0.8639 0.0379,1.8438 0.10138,2.7536 -0.6285,1.2972 -1.20577,2.8078 -0.61677,4.2321 0.2193,0.6652 0.6071,1.2547 0.96638,1.8499 2.23473,-0.1062 4.5478,-0.5938 6.31054,-2.0585 1.66584,-1.2736 3.6774,-2.6699 5.88911,-2.1329 1.27715,0.1259 2.62202,0.6866 3.16949,1.9316 0.76857,1.415 0.90593,3.2033 2.21103,4.2964 0.96848,0.9345 2.21938,1.4771 3.38858,2.1079 -5e-4,-12.5377 -10e-4,-25.0755 -0.002,-37.6133 -13.70963,0 -27.42449,0 -41.13086,0 z" /></g></g></svg>
