<?xml version="1.0" encoding="UTF-8" standalone="no"?>
<!-- Created with Inkscape (http://www.inkscape.org/) -->

<svg
   width="48"
   height="48"
   viewBox="0 0 48.000001 48"
   version="1.1"
   id="svg1387"
   xml:space="preserve"
   xmlns="http://www.w3.org/2000/svg"
   xmlns:svg="http://www.w3.org/2000/svg"><defs
     id="FlatIconDefs"><style
       id="FlatIconStlyle"><![CDATA[
.IconOutline { 
    fill:none;
    stroke:#404040;
    stroke-linecap:round;
    stroke-width:1;
}
.DotOutline { stroke-dasharray:0.1, 2.5; }
.ThickOutline { 
    stroke-linejoin:miter;
    stroke-miterlimit:3;
    stroke-width:1;
}
.GenericFill { 
    fill:#c0c0c0;
}
.GenericFillDark { fill: #6f758e }
.OutlineAsFill { 
    fill:#404040;
}
.BgFill { 
    fill:#f0f0f0;
}
.SolidFill { fill:#3769ff }
.MeshFill { fill:#7950f2; }
.MeshFillDark { fill:#6b4cc8; }
.DynDataFill { fill:#aea72c; }
.DatumFill { 
    fill:#aacaca;
}
.DatumOutline { stroke:#15aabf; }
.PartDesignFill { 
    fill:#bacaf0;
}
.TransformFill { 
    fill:#bafaba;
}
.AdditiveFill { 
    fill:#bafaba;
}
.SubtractiveFill { 
    fill:#fababa;
}
.IntersectFill { fill: #4c6ef5; }
.ImportFill { fill:#40c057; }
.ExportFill { fill:#f03e3e; }
.ViewFill { fill: #76A8F9 }
.SketchFill { fill: #f5f4f4; }
.SketckOutline { stroke:#f03e3e; }
.SpreadsheetFill { fill: #868e96; }
.SpreadsheetLines { stroke:#495057; }
.PlaceHolder { fill: #555555; fill-opacity: 1; }
]]></style></defs><g
     id="layer1"
     style="display:none"
     transform="translate(-937.32679,-616.2191)">&#10;     sodipodi:insensitive=&quot;true&quot;&#10;     style=&quot;display:none&quot;&gt;<rect
   width="48"
   height="48"
   class="PlaceHolder"
   id="PH_PartDesign_Hole"
   x="937.32666"
   y="616.21912" /> </g><g
     id="layer2"
     transform="translate(-937.32679,-616.2191)"
     style="display:inline"><g
       id="g80"
       transform="translate(-88.357912,-1.8911302)"><path
         id="path80-8"
         class="IconOutline  PartDesignFill"
         d="m 1061.7369,623.49074 -30.4707,1.92382 -0.6152,32.54688 7.0019,2.76953 31.086,-1.96094 v -32.50976 z m -7.4512,11.73632 a 7.4023547,8.7018266 24.204977 0 1 2.0821,0.41016 7.4023547,8.7018266 24.204977 0 1 3.7109,10.70508 7.4023547,8.7018266 24.204977 0 1 -10.1406,5.46094 7.4023547,8.7018266 24.204977 0 1 -3.7129,-10.70508 7.4023547,8.7018266 24.204977 0 1 8.0605,-5.8711 z" /><path
         id="path80"
         class="IconOutline  ThickOutline"
         d="m 1061.6895,622.74219 c -10.3868,0.65541 -20.7734,1.31231 -31.1602,1.96679 -0.2141,11.25259 -0.4257,22.50521 -0.6387,33.75782 2.5476,1.0077 5.0955,2.01446 7.6426,3.02343 10.6516,-0.67451 21.3032,-1.34748 31.9551,-2.01757 0,-11.24089 0,-22.48177 0,-33.72266 -2.5444,-1.00633 -5.089,-2.01187 -7.6328,-3.01953 l -0.1,0.007 z" /><path
         d="m 1052.6576,635.98419 c 1.1514,2.68255 1.9898,4.72038 0.9397,7.97854 -1.1152,2.76618 -3.5812,4.72484 -6.5922,5.26831 5.5286,4.96025 9.7104,3.10624 13.0735,-2.88991 1.5561,-8.37186 -1.4831,-11.1338 -7.421,-10.35694 z"
         id="path1188-2"
         class="SubtractiveFill" /><path
         d="m 1037.6526,660.73084 c 0.077,-0.46167 0.6155,-32.5476 0.6155,-32.5476 l -7.0019,-2.77001"
         id="path368-4"
         class="IconOutline" /><path
         d="m 1038.2681,628.18324 30.4701,-1.92361"
         id="path424-7"
         class="IconOutline" /><ellipse
         id="path478-7"
         cx="1216.6603"
         cy="229.30312"
         rx="7.406116"
         ry="8.6986256"
         transform="matrix(0.93526028,0.35396073,-0.36956391,0.92920531,0,0)"
         class="IconOutline" /><path
         d="m 1052.6576,635.98419 c 3.4895,5.77065 0.3828,12.36963 -5.6525,13.24685"
         id="path1088-5"
         class="IconOutline" /></g></g></svg>
