<?xml version="1.0" encoding="UTF-8" standalone="no"?>
<!-- Created with Inkscape (http://www.inkscape.org/) -->

<svg
   width="48"
   height="48"
   viewBox="0 0 48.000001 48"
   version="1.1"
   id="svg1387"
   xml:space="preserve"
   xmlns="http://www.w3.org/2000/svg"
   xmlns:svg="http://www.w3.org/2000/svg"><defs
     id="FlatIconDefs"><style
       id="FlatIconStlyle"><![CDATA[
.IconOutline { 
    fill:none;
    stroke:#404040;
    stroke-linecap:round;
    stroke-width:1;
}
.DotOutline { stroke-dasharray:0.1, 2.5; }
.ThickOutline { 
    stroke-linejoin:miter;
    stroke-miterlimit:3;
    stroke-width:1;
}
.GenericFill { 
    fill:#c0c0c0;
}
.GenericFillDark { fill: #6f758e }
.OutlineAsFill { 
    fill:#404040;
}
.BgFill { 
    fill:#f0f0f0;
}
.SolidFill { fill:#3769ff }
.MeshFill { fill:#7950f2; }
.MeshFillDark { fill:#6b4cc8; }
.DynDataFill { fill:#aea72c; }
.DatumFill { 
    fill:#aacaca;
}
.DatumOutline { stroke:#15aabf; }
.PartDesignFill { 
    fill:#bacaf0;
}
.TransformFill { 
    fill:#bafaba;
}
.AdditiveFill { 
    fill:#bafaba;
}
.SubtractiveFill { 
    fill:#fababa;
}
.IntersectFill { fill: #4c6ef5; }
.ImportFill { fill:#40c057; }
.ExportFill { fill:#f03e3e; }
.ViewFill { fill: #76A8F9 }
.SketchFill { fill: #f5f4f4; }
.SketckOutline { stroke:#f03e3e; }
.SpreadsheetFill { fill: #868e96; }
.SpreadsheetLines { stroke:#495057; }
.PlaceHolder { fill: #555555; fill-opacity: 1; }
]]></style></defs><g
     id="layer1"
     style="display:none"
     transform="translate(214.67331,-1672.2191)">&#10;     sodipodi:insensitive=&quot;true&quot;&#10;     style=&quot;display:none&quot;&gt;<rect
   width="48"
   height="48"
   class="PlaceHolder"
   id="PH_PartDesign_Chamfer"
   x="-214.67322"
   y="1672.2191" /> </g><g
     id="layer2"
     transform="translate(214.67331,-1672.2191)"
     style="display:inline"><g
       id="g51"><path
         d="m -180.22774,1676.9634 8.88274,8.7225 v 29.7591 l -28.40061,0.037 -10.23281,-8.9332 0.2038,-8.5174 14.33832,-20.9788 z"
         id="path1977-6-5"
         class="IconOutline  PartDesignFill" /><path
         id="path1977-6-5-8"
         class="IconOutline  ThickOutline"
         d="m -180.23242,1676.2129 c -5.19987,0.031 -10.39974,0.062 -15.59961,0.092 -4.89713,7.1612 -9.79211,14.3239 -14.6875,21.4863 -0.0732,3.0306 -0.14549,6.0612 -0.2168,9.0918 3.56945,3.1168 7.13905,6.2334 10.70899,9.3496 9.81054,-0.013 19.62109,-0.024 29.43164,-0.039 0,-10.2741 0,-20.5482 0,-30.8223 -3.10922,-3.0536 -6.21885,-6.1067 -9.32813,-9.1602 -0.10286,7e-4 -0.20573,0 -0.30859,0 z" /><path
         d="m -185.54746,1685.6859 -10.16555,-8.4006 -14.06161,20.7464 9.93257,8.6712 z"
         id="path4-2-2-9"
         class="IconOutline  SubtractiveFill" /><path
         d="M -185.54746,1685.6859 H -171.345"
         id="path49"
         class="IconOutline" /><path
         d="m -199.84205,1706.7029 0.0964,8.7794"
         id="path50"
         class="IconOutline" /></g></g></svg>
