<?xml version="1.0" encoding="UTF-8" standalone="no"?>
<!-- Created with Inkscape (http://www.inkscape.org/) -->

<svg
   width="48"
   height="48"
   viewBox="0 0 48.000001 48"
   version="1.1"
   id="svg1387"
   xml:space="preserve"
   xmlns="http://www.w3.org/2000/svg"
   xmlns:svg="http://www.w3.org/2000/svg"><defs
     id="FlatIconDefs"><style
       id="FlatIconStlyle"><![CDATA[
.IconOutline { 
    fill:none;
    stroke:#404040;
    stroke-linecap:round;
    stroke-width:1;
}
.DotOutline { stroke-dasharray:0.1, 2.5; }
.ThickOutline { 
    stroke-linejoin:miter;
    stroke-miterlimit:3;
    stroke-width:1;
}
.GenericFill { 
    fill:#c0c0c0;
}
.GenericFillDark { fill: #6f758e }
.OutlineAsFill { 
    fill:#404040;
}
.BgFill { 
    fill:#f0f0f0;
}
.SolidFill { fill:#3769ff }
.MeshFill { fill:#7950f2; }
.MeshFillDark { fill:#6b4cc8; }
.DynDataFill { fill:#aea72c; }
.DatumFill { 
    fill:#aacaca;
}
.DatumOutline { stroke:#15aabf; }
.PartDesignFill { 
    fill:#bacaf0;
}
.TransformFill { 
    fill:#bafaba;
}
.AdditiveFill { 
    fill:#bafaba;
}
.SubtractiveFill { 
    fill:#fababa;
}
.IntersectFill { fill: #4c6ef5; }
.ImportFill { fill:#40c057; }
.ExportFill { fill:#f03e3e; }
.ViewFill { fill: #76A8F9 }
.SketchFill { fill: #f5f4f4; }
.SketckOutline { stroke:#f03e3e; }
.SpreadsheetFill { fill: #868e96; }
.SpreadsheetLines { stroke:#495057; }
.PlaceHolder { fill: #555555; fill-opacity: 1; }
]]></style></defs><g
     id="layer1"
     style="display:none"
     transform="translate(-553.32674,-1576.2191)">&#10;     sodipodi:insensitive=&quot;true&quot;&#10;     style=&quot;display:none&quot;&gt;<rect
   width="48"
   height="48"
   class="PlaceHolder"
   id="PH_PartDesign_AdditiveWedge"
   x="553.32684"
   y="1576.2191" /> </g><g
     id="layer2"
     transform="translate(-553.32674,-1576.2191)"
     style="display:inline"><path
       d="m 570.9909,1581.1924 h 12.6717 l 9.95635,23.2984 v 15.5585 h -32.58439 v -15.5585 z"
       id="path2"
       class="IconOutline  AdditiveFill" /><path
       id="path2-3"
       class="IconOutline    ThickOutline"
       d="m 570.30078,1580.8984 c -3.33867,7.8125 -6.67631,15.6254 -10.01562,23.4375 0,5.4877 0,10.9753 0,16.4629 11.36132,0 22.72265,0 34.08398,0 0,-5.4876 0,-10.9752 0,-16.4629 -3.40528,-7.9637 -6.80709,-15.929 -10.21289,-23.8925 -4.55404,0 -9.10807,0 -13.66211,0 -0.0644,0.1517 -0.12891,0.3033 -0.19336,0.455 z" /><path
       d="m 570.9909,1592.0362 v -10.8438 h 12.6717 v 10.8438 z"
       id="path4-0"
       class="IconOutline" /><path
       d="m 570.9909,1592.0362 -9.95634,28.0131"
       id="path4"
       class="IconOutline" /><path
       d="m 583.6626,1592.0362 9.95635,28.0131"
       id="path5"
       class="IconOutline" /><g
       id="g3"
       transform="translate(-3.174414e-5,-1.6210937e-5)"><rect
         id="rect375-7-1-6-5-8"
         width="15"
         height="15"
         x="586.32678"
         y="1609.2191"
         rx="3.9999998"
         ry="3.9999998"
         class="OutlinesFill  OutlineAsFill" /><rect
         id="rect984-7-9-0-1-9"
         width="10"
         height="3"
         x="588.82672"
         y="1615.2191"
         class="BgFill" /><rect
         id="rect984-3-5-9-6-0-7"
         width="10"
         height="3"
         x="1611.7191"
         y="-595.32672"
         transform="rotate(90)"
         class="BgFill" /></g></g></svg>
