<?xml version="1.0" encoding="UTF-8" standalone="no"?>
<!-- Created with Inkscape (http://www.inkscape.org/) -->

<svg
   width="48"
   height="48"
   viewBox="0 0 48.000001 48"
   version="1.1"
   id="svg1387"
   xml:space="preserve"
   xmlns="http://www.w3.org/2000/svg"
   xmlns:svg="http://www.w3.org/2000/svg"><defs
     id="FlatIconDefs"><style
       id="FlatIconStlyle"><![CDATA[
.IconOutline { 
    fill:none;
    stroke:#404040;
    stroke-linecap:round;
    stroke-width:1;
}
.DotOutline { stroke-dasharray:0.1, 2.5; }
.ThickOutline { 
    stroke-linejoin:miter;
    stroke-miterlimit:3;
    stroke-width:1;
}
.GenericFill { 
    fill:#c0c0c0;
}
.GenericFillDark { fill: #6f758e }
.OutlineAsFill { 
    fill:#404040;
}
.BgFill { 
    fill:#f0f0f0;
}
.SolidFill { fill:#3769ff }
.MeshFill { fill:#7950f2; }
.MeshFillDark { fill:#6b4cc8; }
.DynDataFill { fill:#aea72c; }
.DatumFill { 
    fill:#aacaca;
}
.DatumOutline { stroke:#15aabf; }
.PartDesignFill { 
    fill:#bacaf0;
}
.TransformFill { 
    fill:#bafaba;
}
.AdditiveFill { 
    fill:#bafaba;
}
.SubtractiveFill { 
    fill:#fababa;
}
.IntersectFill { fill: #4c6ef5; }
.ImportFill { fill:#40c057; }
.ExportFill { fill:#f03e3e; }
.ViewFill { fill: #76A8F9 }
.SketchFill { fill: #f5f4f4; }
.SketckOutline { stroke:#f03e3e; }
.SpreadsheetFill { fill: #868e96; }
.SpreadsheetLines { stroke:#495057; }
.PlaceHolder { fill: #555555; fill-opacity: 1; }
]]></style></defs><g
     id="layer1"
     style="display:none"
     transform="translate(-169.32674,-808.2191)">&#10;     sodipodi:insensitive=&quot;true&quot;&#10;     style=&quot;display:none&quot;&gt;<rect
   width="48"
   height="48"
   class="PlaceHolder"
   id="PH_PartDesign_LinearPattern"
   x="169.32681"
   y="808.21912" /> </g><g
     id="layer2"
     transform="translate(-169.32674,-808.2191)"
     style="display:inline"><path
       d="m 172.6415,825.13415 v -13.91504 h 13.91504 l 5.58494,6.00004 v 13.49995 h -13.91504 z"
       id="path146-0-7"
       class="IconOutline  PartDesignFill" /><path
       id="path121-6-8"
       class="IconOutline"
       d="m 178.22644,817.21914 v 13.49996 m 0,-13.49995 h 13.91504 m -19.49998,-6.00008 5.58494,6.00007" /><path
       d="m 183.47645,836.38415 v -13.91504 h 13.91504 l 5.58495,6.00004 v 13.49994 H 189.0614 Z"
       id="path146-0-5"
       class="IconOutline  TransformFill" /><path
       id="path121-6-9"
       class="IconOutline"
       d="m 189.0614,828.46914 v 13.49995 m 0,-13.49994 h 13.91504 m -19.49999,-6.00008 5.58495,6.00007" /><path
       d="m 194.31139,847.63416 v -13.91504 h 13.91504 l 5.58495,6.00005 v 13.49994 h -13.91504 z"
       id="path146-0"
       class="IconOutline  TransformFill" /><path
       id="path146-0-7-5"
       class="IconOutline  ThickOutline"
       d="m 171.89135,811.21875 c 0,4.74219 0,9.48438 0,14.22656 2.00617,2.00945 4.01402,4.01724 6.02344,6.02344 1.60352,0 3.20703,0 4.81055,0 0,1.74219 0,3.48437 0,5.22656 2.00837,2.0079 4.01701,4.01554 6.02539,6.02344 1.60351,0 3.20703,0 4.81054,0 0,1.74219 0,3.48437 0,5.22656 2.00617,2.00945 4.01403,4.01724 6.02344,6.02344 4.99219,0 9.98438,0 14.97656,0 0,-4.84831 0,-9.69661 0,-14.54492 -2.00268,-2.15222 -4.00575,-4.30409 -6.00976,-6.45508 -1.60873,0 -3.21745,0 -4.82617,0 0,-1.59831 0,-3.19661 0,-4.79492 -2.00213,-2.15214 -4.00436,-4.30418 -6.00782,-6.45508 -1.60872,0 -3.21744,0 -4.82617,0 0,-1.59831 0,-3.19661 0,-4.79492 -2.00269,-2.15222 -4.00575,-4.30409 -6.00976,-6.45508 -4.99675,0 -9.99349,0 -14.99024,0 0,0.25 0,0.5 0,0.75 z" /><path
       id="path121-6"
       style="stroke-linejoin:miter;stroke-opacity:1"
       class="IconOutline"
       d="m 199.89634,839.71916 v 13.49995 m 0,-13.49994 h 13.91504 m -19.49999,-6.00008 5.58495,6.00007" /></g></svg>
