<?xml version="1.0" encoding="UTF-8" standalone="no"?>
<!-- Created with Inkscape (http://www.inkscape.org/) -->

<svg
   width="48"
   height="48"
   viewBox="0 0 48.000001 48"
   version="1.1"
   id="svg1387"
   xml:space="preserve"
   xmlns="http://www.w3.org/2000/svg"
   xmlns:svg="http://www.w3.org/2000/svg"><defs
     id="FlatIconDefs"><style
       id="FlatIconStlyle"><![CDATA[
.IconOutline { 
    fill:none;
    stroke:#404040;
    stroke-linecap:round;
    stroke-width:1;
}
.DotOutline { stroke-dasharray:0.1, 2.5; }
.ThickOutline { 
    stroke-linejoin:miter;
    stroke-miterlimit:3;
    stroke-width:1;
}
.GenericFill { 
    fill:#c0c0c0;
}
.GenericFillDark { fill: #6f758e }
.OutlineAsFill { 
    fill:#404040;
}
.BgFill { 
    fill:#f0f0f0;
}
.SolidFill { fill:#3769ff }
.MeshFill { fill:#7950f2; }
.MeshFillDark { fill:#6b4cc8; }
.DynDataFill { fill:#aea72c; }
.DatumFill { 
    fill:#aacaca;
}
.DatumOutline { stroke:#15aabf; }
.PartDesignFill { 
    fill:#bacaf0;
}
.TransformFill { 
    fill:#bafaba;
}
.AdditiveFill { 
    fill:#bafaba;
}
.SubtractiveFill { 
    fill:#fababa;
}
.IntersectFill { fill: #4c6ef5; }
.ImportFill { fill:#40c057; }
.ExportFill { fill:#f03e3e; }
.ViewFill { fill: #76A8F9 }
.SketchFill { fill: #f5f4f4; }
.SketckOutline { stroke:#f03e3e; }
.SpreadsheetFill { fill: #868e96; }
.SpreadsheetLines { stroke:#495057; }
.PlaceHolder { fill: #555555; fill-opacity: 1; }
]]></style></defs><g
     id="layer1"
     style="display:none"
     transform="translate(-553.32674,-1288.2191)">&#10;     sodipodi:insensitive=&quot;true&quot;&#10;     style=&quot;display:none&quot;&gt;<rect
   width="48"
   height="48"
   class="PlaceHolder"
   id="PH_PartDesign_AdditiveLoft"
   x="553.32684"
   y="1288.2191" /> </g><g
     id="layer2"
     transform="translate(-553.32674,-1288.2191)"
     style="display:inline"><g
       id="g26"
       transform="translate(172.91441,-72.046554)"><path
         d="m 416.5636,1369.357 c 0,-3.3549 -5.43946,-6.0746 -12.14944,-6.0746 -6.70999,0 -12.14946,2.7197 -12.14946,6.0746 v 2.9876 c 0,6.0578 -2.61695,10.5467 -4.76022,16.2125 l -2.83318,7.49 19.74286,8.999 19.74284,-8.999 -2.83325,-7.49 c -2.14316,-5.6658 -4.76015,-10.1547 -4.76015,-16.2125 z"
         id="path2-5-2"
         class="IconOutline  AdditiveFill" /><path
         id="path2-5-2-3"
         class="IconOutline  ThickOutline"
         d="m 403.09766,1362.5723 c -3.68482,0.2192 -7.60949,1.1055 -10.32463,3.7736 -1.0998,1.1677 -1.43631,2.8436 -1.24792,4.3978 0.0544,3.0668 -0.26034,6.0794 -1.33171,8.9358 -1.50855,4.3104 -3.45741,8.4518 -4.96205,12.7649 -0.50352,1.331 -1.0075,2.6619 -1.51065,3.9931 6.89775,3.1446 13.79633,6.2874 20.69336,9.4336 6.89727,-3.145 13.79416,-6.2909 20.69336,-9.4316 -1.91688,-5.1248 -3.91122,-10.3351 -5.98437,-15.3262 -0.77496,-1.9834 -1.40575,-4.3138 -1.66407,-6.4649 -0.24923,-1.6768 -0.13965,-3.3688 -0.13281,-5.0996 -0.0146,-1.3991 -0.63958,-2.7471 -1.73436,-3.6256 -2.31664,-2.1049 -5.50679,-2.8584 -8.53033,-3.2471 -1.31489,-0.136 -2.64351,-0.1772 -3.96382,-0.1038 z" /><path
         id="path25"
         d="m 416.07806,1368.5686 a 11.6639,5.1557459 0 0 1 -11.6639,5.1557 11.6639,5.1557459 0 0 1 -11.66391,-5.1557 11.6639,5.1557459 0 0 1 11.66391,-5.1558 11.6639,5.1557459 0 0 1 11.6639,5.1558 z"
         class="IconOutline" /><path
         d="m 404.41416,1405.0461 v -31.3218"
         id="path26"
         class="IconOutline" /></g><g
       id="g117-2-4-2-1"
       transform="translate(765.95665,574.49577)"><rect
         id="rect375-7-1-6-5-6-9"
         width="15"
         height="15"
         x="-179.6299"
         y="746.72333"
         rx="3.9999998"
         ry="3.9999998"
         class="OutlinesFill  OutlineAsFill" /><rect
         id="rect984-7-9-0-1-1-4"
         width="10"
         height="3"
         x="-177.12991"
         y="752.72333"
         class="BgFill" /><rect
         id="rect984-3-5-9-6-0-8-7"
         width="10"
         height="3"
         x="749.22333"
         y="170.62991"
         transform="rotate(90)"
         class="BgFill" /></g></g></svg>
