<?xml version="1.0" encoding="UTF-8" standalone="no"?>
<!-- Created with Inkscape (http://www.inkscape.org/) -->

<svg
   width="48"
   height="48"
   viewBox="0 0 48.000001 48"
   version="1.1"
   id="svg1387"
   xml:space="preserve"
   xmlns="http://www.w3.org/2000/svg"
   xmlns:svg="http://www.w3.org/2000/svg"><defs
     id="FlatIconDefs"><style
       id="FlatIconStlyle"><![CDATA[
.IconOutline { 
    fill:none;
    stroke:#404040;
    stroke-linecap:round;
    stroke-width:1;
}
.DotOutline { stroke-dasharray:0.1, 2.5; }
.ThickOutline { 
    stroke-linejoin:miter;
    stroke-miterlimit:3;
    stroke-width:1;
}
.GenericFill { 
    fill:#c0c0c0;
}
.GenericFillDark { fill: #6f758e }
.OutlineAsFill { 
    fill:#404040;
}
.BgFill { 
    fill:#f0f0f0;
}
.SolidFill { fill:#3769ff }
.MeshFill { fill:#7950f2; }
.MeshFillDark { fill:#6b4cc8; }
.DynDataFill { fill:#aea72c; }
.DatumFill { 
    fill:#aacaca;
}
.DatumOutline { stroke:#15aabf; }
.PartDesignFill { 
    fill:#bacaf0;
}
.TransformFill { 
    fill:#bafaba;
}
.AdditiveFill { 
    fill:#bafaba;
}
.SubtractiveFill { 
    fill:#fababa;
}
.IntersectFill { fill: #4c6ef5; }
.ImportFill { fill:#40c057; }
.ExportFill { fill:#f03e3e; }
.ViewFill { fill: #76A8F9 }
.SketchFill { fill: #f5f4f4; }
.SketckOutline { stroke:#f03e3e; }
.SpreadsheetFill { fill: #868e96; }
.SpreadsheetLines { stroke:#495057; }
.PlaceHolder { fill: #555555; fill-opacity: 1; }
]]></style></defs><g
     id="layer1"
     style="display:none"
     transform="translate(-169.32675,-904.2191)">&#10;     sodipodi:insensitive=&quot;true&quot;&#10;     style=&quot;display:none&quot;&gt;<rect
   width="48"
   height="48"
   class="PlaceHolder"
   id="PH_PartDesign_Scaled"
   x="169.32678"
   y="904.21912" /> </g><g
     id="layer2"
     transform="translate(-169.32675,-904.2191)"
     style="display:inline"><path
       d="m 179.41651,933.52987 v -20.46309 l 20.03903,-5.23495 11.93296,8.82351 v 19.85263 l -20.03903,5.23497 z"
       id="path146-0-8-3"
       class="IconOutline  TransformFill" /><path
       id="path121-6-7-9"
       style="stroke-linejoin:miter;stroke-opacity:1"
       class="IconOutline"
       d="m 191.34942,921.89029 5e-5,19.85265 m -5e-5,-19.85265 -11.93291,-8.82346 m 31.97199,3.58851 -20.03908,5.23495" /><path
       d="m 173.26068,944.15591 v -12.9025 l 12.63512,-3.30077 7.52404,5.56345 v 12.5176 l -12.63512,3.30078 z"
       id="path146-0-8"
       class="IconOutline  PartDesignFill" /><path
       id="path146-0-8-3-3"
       class="IconOutline  ThickOutline"
       d="m 199.26758,907.10547 c -6.86653,1.79364 -13.73311,3.58712 -20.59961,5.38086 0,5.52669 0,11.05338 0,16.58008 -2.05208,0.53584 -4.10423,1.07137 -6.15625,1.60742 0,4.62565 0,9.2513 0,13.87695 2.71066,1.86469 5.42088,3.73002 8.13086,5.5957 4.5095,-1.17624 9.01818,-2.35563 13.52734,-3.5332 0,-1.61068 0,-3.22135 0,-4.83203 5.98958,-1.56448 11.9792,-3.12877 17.96875,-4.69336 0,-6.93685 0,-13.8737 0,-20.81055 -4.17508,-3.08642 -8.34937,-6.17391 -12.52344,-9.26172 -0.11588,0.0299 -0.23177,0.0599 -0.34765,0.0898 z" /><path
       id="path121-6-7"
       style="stroke-linejoin:miter;stroke-opacity:1"
       class="IconOutline"
       d="m 180.78474,936.81687 -2e-5,12.5176 m 2e-5,-12.5176 -7.52406,-5.56346 m 20.15916,2.26268 -12.6351,3.30078" /></g></svg>
