<?xml version="1.0" encoding="UTF-8" standalone="no"?>
<!-- Created with Inkscape (http://www.inkscape.org/) -->

<svg
   width="48"
   height="48"
   viewBox="0 0 48.000001 48"
   version="1.1"
   id="svg1387"
   xml:space="preserve"
   xmlns="http://www.w3.org/2000/svg"
   xmlns:svg="http://www.w3.org/2000/svg"><defs
     id="FlatIconDefs"><style
       id="FlatIconStlyle"><![CDATA[
.IconOutline { 
    fill:none;
    stroke:#404040;
    stroke-linecap:round;
    stroke-width:1;
}
.DotOutline { stroke-dasharray:0.1, 2.5; }
.ThickOutline { 
    stroke-linejoin:miter;
    stroke-miterlimit:3;
    stroke-width:1;
}
.GenericFill { 
    fill:#c0c0c0;
}
.GenericFillDark { fill: #6f758e }
.OutlineAsFill { 
    fill:#404040;
}
.BgFill { 
    fill:#f0f0f0;
}
.SolidFill { fill:#3769ff }
.MeshFill { fill:#7950f2; }
.MeshFillDark { fill:#6b4cc8; }
.DynDataFill { fill:#aea72c; }
.DatumFill { 
    fill:#aacaca;
}
.DatumOutline { stroke:#15aabf; }
.PartDesignFill { 
    fill:#bacaf0;
}
.TransformFill { 
    fill:#bafaba;
}
.AdditiveFill { 
    fill:#bafaba;
}
.SubtractiveFill { 
    fill:#fababa;
}
.IntersectFill { fill: #4c6ef5; }
.ImportFill { fill:#40c057; }
.ExportFill { fill:#f03e3e; }
.ViewFill { fill: #76A8F9 }
.SketchFill { fill: #f5f4f4; }
.SketckOutline { stroke:#f03e3e; }
.SpreadsheetFill { fill: #868e96; }
.SpreadsheetLines { stroke:#495057; }
.PlaceHolder { fill: #555555; fill-opacity: 1; }
]]></style></defs><g
     id="layer1"
     style="display:none"
     transform="translate(214.67331,-904.2191)">&#10;     sodipodi:insensitive=&quot;true&quot;&#10;     style=&quot;display:none&quot;&gt;<rect
   width="48"
   height="48"
   class="PlaceHolder"
   id="PH_PartDesign_ShapeBinder"
   x="-214.67317"
   y="904.21912" /> </g><g
     id="layer2"
     transform="translate(214.67331,-904.2191)"
     style="display:inline"><g
       style="fill:none"
       id="g74"
       transform="matrix(1.5,0,0,1.5,-215.36326,903.03222)"><path
         d="M 3,18.5858 V 3 H 13.5858 L 17,6.41421 V 13 c 0,4.9706 -4.0294,9 -9,9 H 6.41421 Z"
         fill="#4d4d4d"
         stroke="#f2f2f2"
         stroke-width="2"
         id="path20265" /><path
         d="M 17,7 H 7 v 14"
         stroke="#f2f2f2"
         id="path20267" /><path
         d="M 7,7 3,3"
         stroke="#f2f2f2"
         id="path20269" /><path
         d="M 29.5,7.5 H 21 V 21 h 0.5 c 4.4183,0 8,-3.5817 8,-8 z"
         stroke="#f2f2f2"
         stroke-width="1.5"
         id="path20271"
         style="fill:#37b24d" /><path
         d="M 16,7.5 H 7.5 V 21 H 8 c 4.4183,0 8,-3.5817 8,-8 z"
         id="path20273"
         style="fill:#adb5bd" /><path
         d="M 11,24.5 V 28 c 0,1.1046 0.8954,2 2,2 h 10 c 1.1046,0 2,-0.8954 2,-2 v -4.5"
         stroke="#f2f2f2"
         stroke-width="1.5"
         id="path20275" /><path
         d="m 22,26 3,-4 3,4 z"
         fill="#f2f2f2"
         id="path20277" /></g></g></svg>
