<?xml version="1.0" encoding="UTF-8" standalone="no"?>
<!-- Created with Inkscape (http://www.inkscape.org/) -->

<svg
   width="48"
   height="48"
   viewBox="0 0 48.000001 48"
   version="1.1"
   id="svg1387"
   xml:space="preserve"
   xmlns="http://www.w3.org/2000/svg"
   xmlns:svg="http://www.w3.org/2000/svg"><defs
     id="FlatIconDefs"><style
       id="FlatIconStlyle"><![CDATA[
.IconOutline { 
    fill:none;
    stroke:#404040;
    stroke-linecap:round;
    stroke-width:1;
}
.DotOutline { stroke-dasharray:0.1, 2.5; }
.ThickOutline { 
    stroke-linejoin:miter;
    stroke-miterlimit:3;
    stroke-width:1;
}
.GenericFill { 
    fill:#c0c0c0;
}
.GenericFillDark { fill: #6f758e }
.OutlineAsFill { 
    fill:#404040;
}
.BgFill { 
    fill:#f0f0f0;
}
.SolidFill { fill:#3769ff }
.MeshFill { fill:#7950f2; }
.MeshFillDark { fill:#6b4cc8; }
.DynDataFill { fill:#aea72c; }
.DatumFill { 
    fill:#aacaca;
}
.DatumOutline { stroke:#15aabf; }
.PartDesignFill { 
    fill:#bacaf0;
}
.TransformFill { 
    fill:#bafaba;
}
.AdditiveFill { 
    fill:#bafaba;
}
.SubtractiveFill { 
    fill:#fababa;
}
.IntersectFill { fill: #4c6ef5; }
.ImportFill { fill:#40c057; }
.ExportFill { fill:#f03e3e; }
.ViewFill { fill: #76A8F9 }
.SketchFill { fill: #f5f4f4; }
.SketckOutline { stroke:#f03e3e; }
.SpreadsheetFill { fill: #868e96; }
.SpreadsheetLines { stroke:#495057; }
.PlaceHolder { fill: #555555; fill-opacity: 1; }
]]></style></defs><g
     id="layer1"
     style="display:none"
     transform="translate(214.67331,-1192.2191)">&#10;     sodipodi:insensitive=&quot;true&quot;&#10;     style=&quot;display:none&quot;&gt;<rect
   width="48"
   height="48"
   class="PlaceHolder"
   id="PH_PartDesign_Boolean"
   x="-214.6731"
   y="1192.2191" /> </g><g
     id="layer2"
     transform="translate(214.67331,-1192.2191)"
     style="display:inline"><path
       d="m -209.01317,1197.7858 h 20.22693 l 6.18322,6.1879 v 4.0904 h 4.08741 l 6.07641,6.75 0.10678,19.6801 -19.65319,0.1588 -6.75694,-6.3467 v -4.0905 h -4.0874 l -6.18322,-6.1877 z"
       id="path1481-7"
       class="BgFill"
       style="stroke-width:0.999999" /><path
       d="m -183.26337,1214.8141 v -10.2112 h -19.56659 l 1e-5,19.6129 h 10.81102 l 0.0333,10.4372 19.65319,-0.1588 -0.10678,-19.6801 z"
       id="path1649-9"
       class="IconOutline  AdditiveFill" /><path
       id="path1481-7-4"
       class="IconOutline  ThickOutline"
       d="m -209.76367,1197.7852 c 0,6.8509 0,13.7018 0,20.5527 2.20784,2.2088 4.4152,4.4181 6.62305,6.6269 1.21614,0 2.43229,0 3.64843,0 0,1.222 0,2.4441 0,3.6661 2.40304,2.2584 4.80702,4.5159 7.21094,6.7734 6.90105,-0.054 13.80208,-0.1112 20.70313,-0.166 -0.0375,-6.9043 -0.0748,-13.8086 -0.11329,-20.7129 -2.16304,-2.404 -4.32755,-4.8066 -6.49023,-7.2109 -1.22396,0 -2.44792,0 -3.67188,0 0,-1.2168 0,-2.4336 0,-3.6504 -2.20792,-2.2094 -4.41512,-4.4196 -6.62304,-6.6289 -7.09571,0 -14.19141,0 -21.28711,0 0,0.25 0,0.5 0,0.75 z" /></g></svg>
