<?xml version="1.0" encoding="UTF-8" standalone="no"?>
<!-- Created with Inkscape (http://www.inkscape.org/) -->

<svg
   width="48"
   height="48"
   viewBox="0 0 48.000001 48"
   version="1.1"
   id="svg1387"
   xml:space="preserve"
   xmlns="http://www.w3.org/2000/svg"
   xmlns:svg="http://www.w3.org/2000/svg"><defs
     id="FlatIconDefs"><style
       id="FlatIconStlyle"><![CDATA[
.IconOutline { 
    fill:none;
    stroke:#404040;
    stroke-linecap:round;
    stroke-width:1;
}
.DotOutline { stroke-dasharray:0.1, 2.5; }
.ThickOutline { 
    stroke-linejoin:miter;
    stroke-miterlimit:3;
    stroke-width:1;
}
.GenericFill { 
    fill:#c0c0c0;
}
.GenericFillDark { fill: #6f758e }
.OutlineAsFill { 
    fill:#404040;
}
.BgFill { 
    fill:#f0f0f0;
}
.SolidFill { fill:#3769ff }
.MeshFill { fill:#7950f2; }
.MeshFillDark { fill:#6b4cc8; }
.DynDataFill { fill:#aea72c; }
.DatumFill { 
    fill:#aacaca;
}
.DatumOutline { stroke:#15aabf; }
.PartDesignFill { 
    fill:#bacaf0;
}
.TransformFill { 
    fill:#bafaba;
}
.AdditiveFill { 
    fill:#bafaba;
}
.SubtractiveFill { 
    fill:#fababa;
}
.IntersectFill { fill: #4c6ef5; }
.ImportFill { fill:#40c057; }
.ExportFill { fill:#f03e3e; }
.ViewFill { fill: #76A8F9 }
.SketchFill { fill: #f5f4f4; }
.SketckOutline { stroke:#f03e3e; }
.SpreadsheetFill { fill: #868e96; }
.SpreadsheetLines { stroke:#495057; }
.PlaceHolder { fill: #555555; fill-opacity: 1; }
]]></style></defs><g
     id="layer1"
     style="display:none"
     transform="translate(-553.3268,-1864.2191)">&#10;     sodipodi:insensitive=&quot;true&quot;&#10;     style=&quot;display:none&quot;&gt;<rect
   width="48"
   height="48"
   class="PlaceHolder"
   id="PH_PartDesign_AdditivePipe"
   x="553.32684"
   y="1864.219" /> </g><g
     id="layer2"
     transform="translate(-553.3268,-1864.2191)"
     style="display:inline"><path
       id="path24"
       style="color:#000000;stroke-linejoin:round;-inkscape-stroke:none;paint-order:markers fill stroke"
       class="IconOutline  AdditiveFill"
       d="m 588.86914,1873.7949 c -1.5561,0.047 -2.92304,1.1224 -3.47941,2.5542 -1.18655,2.3452 -2.3731,4.6904 -3.55965,7.0357 -0.58134,0.1708 -1.18253,0.4801 -1.66016,-0.072 -2.29259,-1.3972 -4.52891,-2.8969 -6.85693,-4.2297 -2.37655,-1.1752 -5.47203,-0.5362 -7.13557,1.5455 -1.16067,1.5306 -1.81702,3.3764 -2.74766,5.0495 -1.73915,3.4975 -3.57711,6.9508 -5.25398,10.4762 -0.64231,2.0869 0.83411,4.1627 2.47616,5.3113 1.8128,1.129 4.11362,1.4915 6.19572,1.0344 1.24343,-0.2619 2.14937,-1.2633 2.57841,-2.4216 1.0943,-2.1628 2.18861,-4.3257 3.28291,-6.4886 0.58134,-0.1708 1.18253,-0.4801 1.66019,0.072 2.29718,1.3999 4.539,2.9039 6.87248,4.2358 2.17342,1.0578 4.95022,0.6292 6.67437,-1.0733 0.57641,-0.5408 1.16757,-1.4154 1.5231,-2.23 2.30032,-4.5948 4.68095,-9.1526 6.93197,-13.77 0.72617,-1.6775 -0.0617,-3.605 -1.42083,-4.7021 -1.68245,-1.4007 -3.84397,-2.4581 -6.08112,-2.3272 z" /><path
       id="path24-5"
       style="color:#000000;-inkscape-stroke:none;paint-order:markers fill stroke"
       class="IconOutline  ThickOutline"
       d="m 588.83789,1873.0449 c -1.92149,0.046 -3.58461,1.4507 -4.24112,3.2105 -1.14583,2.263 -2.28881,4.5275 -3.43661,6.7895 -2.63452,-1.5773 -5.15996,-3.3499 -7.86834,-4.7953 -2.83987,-1.2081 -6.44929,-0.1733 -8.10237,2.4633 -1.26279,2.0809 -2.21585,4.3326 -3.36254,6.4785 -1.47763,2.9688 -3.0764,5.8938 -4.42261,8.9238 -0.62273,2.547 1.17529,5.059 3.32197,6.2581 1.98749,1.0693 4.41605,1.3498 6.596,0.7771 1.36678,-0.4192 2.36421,-1.5638 2.84653,-2.8765 1.06933,-2.1148 2.13918,-4.2293 3.20815,-6.3442 2.647,1.5814 5.16139,3.3608 7.86364,4.7861 2.92798,1.2705 6.66314,0.081 8.26651,-2.6928 1.06388,-1.821 1.8953,-3.7672 2.89478,-5.6246 1.59392,-3.2193 3.32483,-6.3793 4.7962,-9.6545 0.64081,-1.9884 -0.34889,-4.1649 -1.98053,-5.36 -1.76856,-1.4672 -4.05401,-2.4472 -6.37966,-2.339 z" /><path
       id="path234"
       class="IconOutline"
       d="m 588.77148,1873.9355 c -1.40811,0.1003 -3.13638,0.8556 -3.25542,2.4602 -0.12794,1.7388 1.47525,2.9189 2.81967,3.6954 1.98158,1.0479 4.26034,1.9541 6.53732,1.5515 1.527,-0.2741 2.12045,-2.1387 1.52228,-3.4395 -1.04949,-2.4525 -3.67006,-4.0258 -6.27226,-4.267 -0.44905,-0.045 -0.90212,-0.035 -1.35159,-6e-4 z" /><path
       id="path234-37"
       class="IconOutline  DotOutline"
       d="m 558.0375,1897.0592 c -0.24689,2.1668 1.59218,3.8765 3.37882,4.7506 2.05322,1.0145 4.70117,1.3632 6.73602,0.1277 1.22433,-0.7457 1.23898,-2.4832 0.39735,-3.5231 -1.46311,-1.9782 -3.80156,-3.3039 -6.23222,-3.6384 -0.41967,-0.059 -1.63421,0.087 -2.05683,0.1091 1.42439,-0.5364 -1.81019,0.6486 -2.22314,2.1741 z" /><g
       id="g117-2-4-22-3-3-3"
       transform="translate(765.95665,1150.4958)"><rect
         id="rect375-7-1-6-5-8-6-1-6"
         width="15"
         height="15"
         x="-179.6299"
         y="746.72333"
         rx="3.9999998"
         ry="3.9999998"
         class="OutlinesFill  OutlineAsFill" /><rect
         id="rect984-7-9-0-1-9-1-8-7"
         width="10"
         height="3"
         x="-177.12991"
         y="752.72333"
         class="BgFill" /><rect
         id="rect984-3-5-9-6-0-7-2-9-5"
         width="10"
         height="3"
         x="749.22333"
         y="170.62991"
         transform="rotate(90)"
         class="BgFill" /></g></g></svg>
