<?xml version="1.0" encoding="UTF-8" standalone="no"?>
<!-- Created with Inkscape (http://www.inkscape.org/) -->

<svg
   width="48"
   height="48"
   viewBox="0 0 48.000001 48"
   version="1.1"
   id="svg1387"
   xml:space="preserve"
   xmlns="http://www.w3.org/2000/svg"
   xmlns:svg="http://www.w3.org/2000/svg"><defs
     id="FlatIconDefs"><style
       id="FlatIconStlyle"><![CDATA[
.IconOutline { 
    fill:none;
    stroke:#404040;
    stroke-linecap:round;
    stroke-width:1;
}
.DotOutline { stroke-dasharray:0.1, 2.5; }
.ThickOutline { 
    stroke-linejoin:miter;
    stroke-miterlimit:3;
    stroke-width:1;
}
.GenericFill { 
    fill:#c0c0c0;
}
.GenericFillDark { fill: #6f758e }
.OutlineAsFill { 
    fill:#404040;
}
.BgFill { 
    fill:#f0f0f0;
}
.SolidFill { fill:#3769ff }
.MeshFill { fill:#7950f2; }
.MeshFillDark { fill:#6b4cc8; }
.DynDataFill { fill:#aea72c; }
.DatumFill { 
    fill:#aacaca;
}
.DatumOutline { stroke:#15aabf; }
.PartDesignFill { 
    fill:#bacaf0;
}
.TransformFill { 
    fill:#bafaba;
}
.AdditiveFill { 
    fill:#bafaba;
}
.SubtractiveFill { 
    fill:#fababa;
}
.IntersectFill { fill: #4c6ef5; }
.ImportFill { fill:#40c057; }
.ExportFill { fill:#f03e3e; }
.ViewFill { fill: #76A8F9 }
.SketchFill { fill: #f5f4f4; }
.SketckOutline { stroke:#f03e3e; }
.SpreadsheetFill { fill: #868e96; }
.SpreadsheetLines { stroke:#495057; }
.PlaceHolder { fill: #555555; fill-opacity: 1; }
]]></style></defs><g
     id="layer1"
     style="display:none"
     transform="translate(-937.32679,-1096.2191)">&#10;     sodipodi:insensitive=&quot;true&quot;&#10;     style=&quot;display:none&quot;&gt;<rect
   width="48"
   height="48"
   class="PlaceHolder"
   id="PH_PartDesign_SubtractiveCylinder"
   x="937.32684"
   y="1096.2191" /> </g><g
     id="layer2"
     transform="translate(-937.32679,-1096.2191)"
     style="display:inline"><path
       id="ellipse13930-4-0-7-9-2-9-2"
       d="m 947.98412,1107.0232 v 26.3931 a 13.342469,5.2692409 0 0 0 13.34277,5.2679 13.342469,5.2692409 0 0 0 13.34265,-5.2679 v -26.3931 a 13.342469,5.2692409 0 0 1 -13.34265,5.268 13.342469,5.2692409 0 0 1 -13.34277,-5.268 z"
       class="IconOutline  SubtractiveFill" /><path
       id="ellipse13930-4-0-7-9-28-3"
       d="m 974.6693,1107.022 a 13.342469,5.2692409 0 0 1 -13.34241,5.2692 13.342469,5.2692409 0 0 1 -13.34252,-5.2692 13.342469,5.2692409 0 0 1 13.34252,-5.2693 13.342469,5.2692409 0 0 1 13.34241,5.2693 z"
       class="SubtractiveFill" /><path
       id="ellipse13930-4-0-7-9-2-9-6-7"
       class="IconOutline  ThickOutline"
       d="m 960.40828,1101.0137 c -3.77555,0.1255 -7.75874,0.6237 -10.96875,2.7734 -1.26118,0.8696 -2.42403,2.252 -2.19748,3.8871 0.0113,8.7034 -0.0354,17.4087 0.0119,26.111 0.3482,2.0459 2.34515,3.1958 4.09482,3.944 4.24788,1.668 8.93198,1.9419 13.43942,1.5237 3.11994,-0.3673 6.38879,-0.9996 8.96343,-2.9122 1.10017,-0.8079 1.84116,-2.1348 1.66639,-3.5247 -0.0144,-8.7197 0.0287,-17.4412 -0.0215,-26.1598 -0.34211,-2.0473 -2.3418,-3.2026 -4.09315,-3.9472 -3.44059,-1.3841 -7.21345,-1.7558 -10.89513,-1.6953 z" /><path
       id="ellipse13930-4-3-5"
       d="m 974.66954,1107.0232 a 13.342469,5.2692409 0 0 1 -13.34242,5.2693 13.342469,5.2692409 0 0 1 -13.34252,-5.2693 13.342469,5.2692409 0 0 1 13.34252,-5.2692 13.342469,5.2692409 0 0 1 13.34242,5.2692 z"
       class="IconOutline" /><g
       id="g117-2-4-6-9"
       transform="translate(1149.9567,382.49577)"><rect
         id="rect375-7-1-6-5-9-22"
         width="15"
         height="15"
         x="-179.6299"
         y="746.72333"
         rx="3.9999998"
         ry="3.9999998"
         class="OutlinesFill  OutlineAsFill" /><rect
         id="rect984-7-9-0-1-3-8"
         width="10"
         height="3"
         x="-177.12991"
         y="752.72333"
         class="BgFill" /></g></g></svg>
