<?xml version="1.0" encoding="UTF-8" standalone="no"?>
<!-- Created with Inkscape (http://www.inkscape.org/) -->

<svg
   width="48"
   height="48"
   viewBox="0 0 48.000001 48"
   version="1.1"
   id="svg1387"
   xml:space="preserve"
   xmlns="http://www.w3.org/2000/svg"
   xmlns:svg="http://www.w3.org/2000/svg"><defs
     id="FlatIconDefs"><style
       id="FlatIconStlyle"><![CDATA[
.IconOutline { 
    fill:none;
    stroke:#404040;
    stroke-linecap:round;
    stroke-width:1;
}
.DotOutline { stroke-dasharray:0.1, 2.5; }
.ThickOutline { 
    stroke-linejoin:miter;
    stroke-miterlimit:3;
    stroke-width:1;
}
.GenericFill { 
    fill:#c0c0c0;
}
.GenericFillDark { fill: #6f758e }
.OutlineAsFill { 
    fill:#404040;
}
.BgFill { 
    fill:#f0f0f0;
}
.SolidFill { fill:#3769ff }
.MeshFill { fill:#7950f2; }
.MeshFillDark { fill:#6b4cc8; }
.DynDataFill { fill:#aea72c; }
.DatumFill { 
    fill:#aacaca;
}
.DatumOutline { stroke:#15aabf; }
.PartDesignFill { 
    fill:#bacaf0;
}
.TransformFill { 
    fill:#bafaba;
}
.AdditiveFill { 
    fill:#bafaba;
}
.SubtractiveFill { 
    fill:#fababa;
}
.IntersectFill { fill: #4c6ef5; }
.ImportFill { fill:#40c057; }
.ExportFill { fill:#f03e3e; }
.ViewFill { fill: #76A8F9 }
.SketchFill { fill: #f5f4f4; }
.SketckOutline { stroke:#f03e3e; }
.SpreadsheetFill { fill: #868e96; }
.SpreadsheetLines { stroke:#495057; }
.PlaceHolder { fill: #555555; fill-opacity: 1; }
]]></style></defs><g
     id="layer1"
     style="display:none"
     transform="translate(-937.32679,-712.2191)">&#10;     sodipodi:insensitive=&quot;true&quot;&#10;     style=&quot;display:none&quot;&gt;<rect
   width="48"
   height="48"
   class="PlaceHolder"
   id="PH_PartDesign_Pocket"
   x="937.32672"
   y="712.21912" /> </g><g
     id="layer2"
     transform="translate(-937.32679,-712.2191)"
     style="display:inline"><g
       id="g109"><path
         d="m 943.47945,750.79223 23.66869,4.23213 11.85016,-8.01722 0.22312,-25.39539 -23.47763,-4.19791 -12.31571,8.33218 z"
         id="path1072-3-6"
         class="IconOutline  PartDesignFill" /><path
         d="m 954.33506,741.13123 12.70076,2.27099 6.35886,-4.30209 0.11973,-13.62732 -12.59823,-2.25261 -6.60868,4.47109 z"
         id="path1072-3-6-2"
         class="IconOutline  SubtractiveFill" /><path
         id="path37"
         d="m 954.33506,741.13119 6.58112,-4.26227 12.4785,2.23123 m -12.4785,-15.87994 v 13.64873"
         class="IconOutline" /><path
         id="path40"
         class="IconOutline"
         d="m 967.03582,743.40222 0.11232,11.62218 m 6.36627,-29.55156 5.70701,-3.86109 m -35.79334,4.13424 10.87942,1.94526" /><path
         id="path1072-3-6-1"
         class="IconOutline    ThickOutline"
         d="m 955.32422,716.79297 c -4.21559,2.85142 -8.4304,5.704 -12.64649,8.55469 0.0162,8.6914 0.0341,17.38281 0.0527,26.07422 8.19557,1.46273 16.39024,2.93055 24.58594,4.39257 4.14304,-2.80139 8.28513,-5.60419 12.42773,-8.40625 0.0785,-8.80793 0.15418,-17.61589 0.23242,-26.42382 -8.13354,-1.45332 -16.26656,-2.9096 -24.40039,-4.36133 -0.084,0.0566 -0.16797,0.11328 -0.25195,0.16992 z" /></g></g></svg>
