<?xml version="1.0" encoding="UTF-8" standalone="no"?>
<!-- Created with Inkscape (http://www.inkscape.org/) -->

<svg
   width="48"
   height="48"
   viewBox="0 0 48.000001 48"
   version="1.1"
   id="svg1387"
   xml:space="preserve"
   xmlns="http://www.w3.org/2000/svg"
   xmlns:svg="http://www.w3.org/2000/svg"><defs
     id="FlatIconDefs"><style
       id="FlatIconStlyle"><![CDATA[
.IconOutline { 
    fill:none;
    stroke:#404040;
    stroke-linecap:round;
    stroke-width:1;
}
.DotOutline { stroke-dasharray:0.1, 2.5; }
.ThickOutline { 
    stroke-linejoin:miter;
    stroke-miterlimit:3;
    stroke-width:1;
}
.GenericFill { 
    fill:#c0c0c0;
}
.GenericFillDark { fill: #6f758e }
.OutlineAsFill { 
    fill:#404040;
}
.BgFill { 
    fill:#f0f0f0;
}
.SolidFill { fill:#3769ff }
.MeshFill { fill:#7950f2; }
.MeshFillDark { fill:#6b4cc8; }
.DynDataFill { fill:#aea72c; }
.DatumFill { 
    fill:#aacaca;
}
.DatumOutline { stroke:#15aabf; }
.PartDesignFill { 
    fill:#bacaf0;
}
.TransformFill { 
    fill:#bafaba;
}
.AdditiveFill { 
    fill:#bafaba;
}
.SubtractiveFill { 
    fill:#fababa;
}
.IntersectFill { fill: #4c6ef5; }
.ImportFill { fill:#40c057; }
.ExportFill { fill:#f03e3e; }
.ViewFill { fill: #76A8F9 }
.SketchFill { fill: #f5f4f4; }
.SketckOutline { stroke:#f03e3e; }
.SpreadsheetFill { fill: #868e96; }
.SpreadsheetLines { stroke:#495057; }
.PlaceHolder { fill: #555555; fill-opacity: 1; }
]]></style></defs><g
     id="layer1"
     style="display:none"
     transform="translate(-169.32674,-1192.2191)">&#10;     sodipodi:insensitive=&quot;true&quot;&#10;     style=&quot;display:none&quot;&gt; <rect
   width="48"
   height="48"
   class="PlaceHolder"
   id="PH_PartDesign_InvoluteGear"
   x="169.32686"
   y="1192.2191"
   style="display:inline" /></g><g
     id="layer2"
     transform="translate(-169.32674,-1192.2191)"
     style="display:inline"><g
       id="g19"><path
         id="path177-3-6-7-1"
         style="opacity:0.864211;stroke-linejoin:miter;stroke-opacity:1"
         d="m 172.79483,1206.6642 0.0302,1.2634 c 3.12142,1.4394 5.8318,2.0804 8.21528,2.0855 l 3.04369,-0.3052 c 1.12027,-0.1161 2.03606,0.1712 2.58126,1.1848 l 0.27506,0.7919 0.33247,0.7828 c 0.2559,1.0676 -0.33085,1.6359 -1.38432,1.9254 l -2.85934,0.7919 c -2.06053,0.8339 -3.94655,2.334 -5.61587,4.6667 l 0.88258,1.1063 0.93395,1.0851 c 3.7371,0.1602 6.54945,-0.2267 8.61728,-1.0519 l 2.41501,-1.327 c 0.88693,-0.49 1.88284,-0.5601 3.083,0.1269 l 0.81005,0.5924 0.8463,0.5623 c 0.98843,0.8353 0.88873,1.5316 0.18438,2.1489 l -1.90421,1.6806 c -1.18545,1.4394 -1.74128,3.3953 -1.51127,5.9967 l 1.55963,0.6498 1.58987,0.6136 c 3.3514,-1.162 5.50588,-2.477 6.704,-3.9112 l 1.1395,-1.9858 c 0.41592,-0.7334 1.22897,-1.1423 2.7626,-0.9642 l 1.12438,0.2328 1.1395,0.1903 c 1.45611,0.3795 1.86824,1.0157 1.70169,1.7955 l -0.44128,2.1187 c 0.008,1.6592 0.93059,3.5459 2.99837,5.7187 l 1.81653,0.022 v -28.5871 z"
         class="PartDesignFill  IconOutline" /><path
         id="path177-3-6-7-7-2"
         class="PartDesignFill  IconOutline"
         d="m 172.82603,1197.1694 v 9.4922 h -0.0312 l 0.0312,1.2637 c 1.6401,0.7563 3.16254,1.2879 4.58789,1.6269 v 10.2969 l 0.88281,1.1074 0.9336,1.084 c 3.73708,0.1602 6.54937,-0.2256 8.61718,-1.0508 l 2.41407,-1.3281 c 0.81092,-0.4481 1.71529,-0.5376 2.78125,-0.025 l -1.27149,0.375 v 8.6797 c -0.06,0.644 -0.0661,1.3326 0,2.0801 l 1.55859,0.6484 1.58985,0.6133 c 3.35139,-1.162 5.50696,-2.4759 6.70508,-3.9101 l 1.13867,-1.9864 c 0.41592,-0.7335 1.23004,-1.143 2.76367,-0.9648 l 1.12305,0.2344 1.14062,0.1894 c 1.45611,0.3795 1.86772,1.0151 1.70117,1.7949 l -0.4414,2.1192 c 0.008,1.6592 0.93028,3.5459 2.99804,5.7187 l 1.81641,0.024 v -28.586 h -12.42773 l 0.15625,-9.4962 z" /><path
         id="path177-3-6-7-1-0"
         d="m 172.82606,1197.1679 0.0302,1.2634 c 3.12142,1.4394 5.8318,2.0804 8.21528,2.0855 l 3.04369,-0.3052 c 1.12027,-0.1161 2.03606,0.1712 2.58126,1.1848 l 0.27506,0.7919 0.33247,0.7828 c 0.2559,1.0676 -0.33085,1.6359 -1.38432,1.9254 l -2.85934,0.7919 c -2.06053,0.8339 -3.94655,2.334 -5.61587,4.6666 l 0.88258,1.1064 0.93395,1.0851 c 3.7371,0.1602 6.54945,-0.2267 8.61728,-1.0519 l 2.41501,-1.327 c 0.88693,-0.4901 1.88284,-0.5601 3.083,0.1269 l 0.81005,0.5924 0.8463,0.5623 c 0.98843,0.8353 0.88873,1.5316 0.18438,2.1489 l -1.90421,1.6806 c -1.18545,1.4394 -1.74128,3.3953 -1.51127,5.9967 l 1.55963,0.6498 1.58987,0.6136 c 3.3514,-1.162 5.50588,-2.477 6.704,-3.9112 l 1.1395,-1.9858 c 0.41592,-0.7334 1.22897,-1.1423 2.7626,-0.9642 l 1.12438,0.2328 1.1395,0.1903 c 1.45611,0.3795 1.86824,1.0157 1.70169,1.7955 l -0.44128,2.1187 c 0.008,1.6592 0.93059,3.5459 2.99837,5.7187 l 1.81653,0.022 v -28.5871 z"
         class="PartDesignFill  IconOutline" /><path
         id="path177-3-6-7-7-2-5"
         class="IconOutline  ThickOutline"
         d="m 172.82541,1196.4191 c -0.86722,-0.2672 -0.79886,0.4011 -0.75,1.05 0,2.814 0,5.628 0,8.4421 -0.0987,0.7365 0.0247,1.6905 0.0117,2.5118 1.48793,0.6652 2.99624,1.2989 4.57617,1.7128 0,3.3249 0,6.6497 0,9.9747 0.71157,0.9121 1.44794,1.8035 2.21484,2.6699 3.16123,0.1051 6.45973,0.063 9.4177,-1.183 0.90873,-0.4725 1.77556,-1.0341 2.71316,-1.4459 0.0291,3.4047 0.0117,6.8129 -0.0151,10.215 -0.0892,0.6844 0.14543,1.138 0.85708,1.2511 1.03994,0.3976 2.09918,0.9422 3.15619,1.181 2.63928,-0.9657 5.43469,-2.0731 7.26747,-4.3034 0.53246,-0.7754 0.82053,-1.7589 1.5293,-2.3886 1.26224,-0.5698 2.62091,0.1264 3.90808,0.2501 0.50228,0.121 1.32891,0.4286 0.99841,1.1039 -0.24818,1.1539 -0.6147,2.342 -0.20923,3.5073 0.53515,1.9522 1.84922,3.5619 3.21485,5.0059 0.96615,0.012 1.93229,0.025 2.89843,0.037 0.0208,-3.1582 -0.0417,-6.3998 0.0312,-9.5059 0,-10.0293 0,-20.0586 0,-30.0879 -13.9401,6e-4 -27.88021,0 -41.82031,0 z" /><path
         style="stroke-linejoin:miter;stroke-opacity:1"
         d="m 194.95106,1222.5389 -0.0312,9.4963"
         id="path19"
         class="IconOutline" /><path
         style="stroke-linejoin:miter;stroke-opacity:1"
         d="m 179.26153,1212.5442 -0.0312,9.4963"
         id="path19-1"
         class="IconOutline" /><path
         style="stroke-linejoin:miter;stroke-opacity:1"
         d="m 209.08145,1220.015 -0.0312,9.4963"
         id="path19-6"
         class="IconOutline" /><path
         style="stroke-linejoin:miter;stroke-opacity:1"
         d="m 212.07979,1225.7337 -0.0312,9.4963"
         id="path19-6-4"
         class="IconOutline" /></g></g></svg>
