<?xml version="1.0" encoding="UTF-8" standalone="no"?>
<!-- Created with Inkscape (http://www.inkscape.org/) -->

<svg
   width="48"
   height="48"
   viewBox="0 0 48.000001 48"
   version="1.1"
   id="svg1387"
   xml:space="preserve"
   xmlns="http://www.w3.org/2000/svg"
   xmlns:svg="http://www.w3.org/2000/svg"><defs
     id="FlatIconDefs"><style
       id="FlatIconStlyle"><![CDATA[
.IconOutline { 
    fill:none;
    stroke:#404040;
    stroke-linecap:round;
    stroke-width:1;
}
.DotOutline { stroke-dasharray:0.1, 2.5; }
.ThickOutline { 
    stroke-linejoin:miter;
    stroke-miterlimit:3;
    stroke-width:1;
}
.GenericFill { 
    fill:#c0c0c0;
}
.GenericFillDark { fill: #6f758e }
.OutlineAsFill { 
    fill:#404040;
}
.BgFill { 
    fill:#f0f0f0;
}
.SolidFill { fill:#3769ff }
.MeshFill { fill:#7950f2; }
.MeshFillDark { fill:#6b4cc8; }
.DynDataFill { fill:#aea72c; }
.DatumFill { 
    fill:#aacaca;
}
.DatumOutline { stroke:#15aabf; }
.PartDesignFill { 
    fill:#bacaf0;
}
.TransformFill { 
    fill:#bafaba;
}
.AdditiveFill { 
    fill:#bafaba;
}
.SubtractiveFill { 
    fill:#fababa;
}
.IntersectFill { fill: #4c6ef5; }
.ImportFill { fill:#40c057; }
.ExportFill { fill:#f03e3e; }
.ViewFill { fill: #76A8F9 }
.SketchFill { fill: #f5f4f4; }
.SketckOutline { stroke:#f03e3e; }
.SpreadsheetFill { fill: #868e96; }
.SpreadsheetLines { stroke:#495057; }
.PlaceHolder { fill: #555555; fill-opacity: 1; }
]]></style></defs><g
     id="layer1"
     style="display:none"
     transform="translate(-169.32678,-1960.2191)">&#10;     sodipodi:insensitive=&quot;true&quot;&#10;     style=&quot;display:none&quot;&gt;<rect
   width="48"
   height="48"
   class="PlaceHolder"
   id="PH_WizardShaft"
   x="169.32677"
   y="1960.2191" /> </g><g
     id="layer2"
     transform="translate(-169.32678,-1960.2191)"
     style="display:inline"><g
       id="g20"
       transform="translate(-7.7734585e-6,96.000016)"><path
         d="m 199.77967,1873.7714 c 1.2768,-0.4274 2.6717,-0.4515 4.08416,-0.07 4.46849,1.2059 8.33973,6.2106 9.31895,12.0475 0.97918,5.837 -1.19547,10.9457 -5.23479,12.298 l -13.79984,4.6198 c -2.65641,0.8893 -5.74341,0.01 -8.36966,-2.3841 l -4.13958,1.3859 c -2.93724,0.9833 -6.44475,-1.567 -7.83417,-5.6963 -1.38947,-4.1292 -0.13472,-8.2738 2.80257,-9.2571 l 4.13958,-1.3859 c 0.64646,-3.4895 2.57654,-6.0484 5.23296,-6.9377 l 13.79982,-4.6198"
         id="path1-9"
         class="PartDesignFill" /><path
         id="path1-9-5"
         class="IconOutline  ThickOutline"
         d="m 201.73242,1872.6855 c -2.06369,0.058 -3.93466,1.0614 -5.8897,1.613 -3.58347,1.2278 -7.20479,2.3558 -10.765,3.645 -2.71676,1.205 -4.38433,3.9905 -4.97811,6.8124 -1.54927,0.5859 -3.20228,0.928 -4.67969,1.6855 -2.40521,1.48 -3.15483,4.5785 -2.87629,7.2296 0.37654,3.4973 2.34368,7.0806 5.67317,8.5263 1.43913,0.6368 3.09086,0.5133 4.51366,-0.1039 0.96094,-0.3215 1.92188,-0.643 2.88282,-0.9645 2.4047,2.1363 5.93782,3.3473 9.05792,2.1528 4.70746,-1.5999 9.44713,-3.1147 14.13485,-4.7667 3.19132,-1.3963 4.8938,-4.877 5.25011,-8.1941 0.58555,-5.3691 -1.44013,-11.0099 -5.39014,-14.7096 -1.88061,-1.7246 -4.33293,-2.9769 -6.9336,-2.9258 z" /><path
         d="m 199.77967,1873.7714 c 1.2768,-0.4274 2.6717,-0.4515 4.08416,-0.07 4.46849,1.2059 8.33973,6.2106 9.31895,12.0475 0.97918,5.837 -1.19547,10.9457 -5.23479,12.298 l -13.79984,4.6198 c 4.03938,-1.3523 6.214,-6.4611 5.23482,-12.298 -0.97922,-5.8369 -4.85045,-10.8417 -9.31896,-12.0475 -1.41246,-0.3812 -2.80736,-0.3571 -4.08416,0.07 l 13.79982,-4.6198"
         id="path2-7"
         class="IconOutline" /><path
         d="m 176.60731,1886.7148 4.13958,-1.3859 6.8013,-2.2768 c 0.78652,-0.2633 1.64576,-0.2781 2.51582,-0.043 2.75257,0.7428 5.13723,3.8257 5.7404,7.4212 0.60318,3.5955 -0.73637,6.7425 -3.22459,7.5755 l -6.80133,2.2768 -4.13958,1.3858 c 2.48824,-0.833 3.82778,-3.9799 3.22463,-7.5754 -0.6032,-3.5955 -2.98787,-6.6784 -5.74046,-7.4212 -0.87006,-0.2348 -1.72925,-0.22 -2.51577,0.043"
         id="path3-7"
         class="IconOutline" /><path
         d="m 180.74689,1885.3289 6.8013,-2.2768 c 0.78652,-0.2633 1.64576,-0.2781 2.51582,-0.043 2.75257,0.7428 5.13723,3.8257 5.7404,7.4212 0.60318,3.5955 -0.73637,6.7425 -3.22459,7.5755 l -6.80133,2.2768 c 2.62625,2.394 5.71325,3.2734 8.36966,2.3841 4.03938,-1.3523 6.214,-6.4611 5.23482,-12.298 -0.97922,-5.8369 -4.85045,-10.8417 -9.31896,-12.0475 -1.41246,-0.3812 -2.80736,-0.3571 -4.08416,0.07 -2.65642,0.8893 -4.5865,3.4482 -5.23296,6.9377"
         id="path4-3"
         class="IconOutline" /><path
         d="m 179.12308,1886.6715 c 2.75259,0.7428 5.13726,3.8257 5.74046,7.4212 0.60315,3.5955 -0.73639,6.7425 -3.22463,7.5755 -2.93724,0.9833 -6.44475,-1.567 -7.83417,-5.6963 -1.38947,-4.1292 -0.13472,-8.2738 2.80257,-9.2571 0.78652,-0.2633 1.64571,-0.2781 2.51577,-0.043"
         id="path5-6"
         class="IconOutline" /></g></g></svg>
