<?xml version="1.0" encoding="UTF-8" standalone="no"?>
<!-- Created with Inkscape (http://www.inkscape.org/) -->

<svg
   width="48"
   height="48"
   viewBox="0 0 48.000001 48"
   version="1.1"
   id="svg1387"
   xml:space="preserve"
   xmlns="http://www.w3.org/2000/svg"
   xmlns:svg="http://www.w3.org/2000/svg"><defs
     id="MeshDefs"><style
       id="GR-Mesh"><![CDATA[.IconOutline {
  stroke:#f5f4f4;
  fill:none;
  stroke-width:1.5;
}

.ThinDotOutline {
  stroke-dasharray:0.1, 2.5;
  stroke-linecap:round;
  stroke-width:1.5;
}

.ThickDotOutline {
  stroke-dasharray:0.1, 5;
  stroke-linecap:round;
  stroke-width:3;
}
.ThickOutline {
  stroke-linejoin:miter;
  stroke-miterlimit:3;
  stroke-opacity:1;
  stroke-width:3;
}

.MeshFillArea {
  display:inline;
  fill:#7950f2;
  fill-opacity:1;
}

.MeshFillAreaDark {
  display:inline;
  fill:#6b4cc8;
  fill-opacity:1;
}

.BgFillArea {
  fill: #495057;
 }

.ImportArrow {
  fill:#40c057;
  fill-opacity:1;
  stroke:none;
}
.ExportArrow {
  fill:#f03e3e;
  fill-opacity:1;
  stroke:none;
}
.GenericArrow {
  fill:#F5F4F4;
  fill-opacity:1;
  stroke:none;
}
]]></style></defs><g
     id="layer2"
     style="display:inline"
     transform="translate(-490.76137,-638.87104)"><path
       d="m 530.83927,678.80719 v -24.22512 l -7.42301,-7.9619 h -24.69874 v 24.45141 l 7.7077,7.77391 z"
       id="path1390-81-6"
       class="MeshFillArea"
       style="stroke-width:1" /><path
       id="path11729-2-2"
       class="MeshFillAreaDark"
       d="m 506.4252,678.84549 24.41407,-0.0383 -24.43105,-24.08714 z m -7.70768,-32.22532 7.6907,8.09985 17.00804,-8.09985 z m 0,24.45141 7.7077,7.77391 -7.7077,-32.22532 z"
       style="stroke-width:1" /><path
       id="path1807-9-3-1"
       class="IconOutline"
       d="m 506.39124,654.85799 -7.08821,-7.55049 m 31.51928,7.41254 -24.41409,-2e-5 m 0,0 v 24.26343 m 24.41397,-0.0383 V 654.72 l -7.42289,-7.9619 h -24.69877 v 24.45141 l 7.70769,7.77391 z" /><path
       id="path1390-81-6-1"
       class="IconOutline ThickOutline"
       d="m 497.9668,646.62109 c 0,8.25326 0,16.50651 0,24.75977 2.71533,2.73844 5.43112,5.47643 8.14648,8.21484 8.49219,-0.0129 16.98438,-0.026 25.47656,-0.041 0,-8.42253 0,-16.84505 0,-25.26758 -2.6149,-2.80626 -5.23146,-5.61096 -7.84765,-8.41602 -8.5918,0 -17.1836,0 -25.77539,0 0,0.25 0,0.5 0,0.75 z" /><g
       id="g14404"
       transform="translate(-427.47687,-10.512619)"><path
         d="m 950.41245,684.43529 c 0,-1.5892 1.2882,-2.87742 2.8774,-2.87742 h 10.071 c 1.5892,0 2.8774,1.28822 2.8774,2.87742 v 10.07095 c 0,1.5892 -1.2882,2.87742 -2.8774,2.87742 h -10.071 c -1.5892,0 -2.8774,-1.28822 -2.8774,-2.87742 z"
         fill="#f2f2f2"
         id="path12-71"
         style="display:inline;stroke-width:1.51825" /><rect
         x="953.93311"
         y="688.37268"
         width="8.7844658"
         height="2.1961164"
         id="rect517-6"
         style="display:inline;fill:#343a40;stroke-width:1.63179" /><rect
         x="685.07849"
         y="-959.42334"
         width="8.7844658"
         height="2.1961164"
         id="rect517-6-6"
         style="display:inline;fill:#343a40;stroke-width:1.63179"
         transform="rotate(90)" /></g></g></svg>
