<?xml version="1.0" encoding="UTF-8" standalone="no"?>
<!-- Created with Inkscape (http://www.inkscape.org/) -->

<svg
   width="48.000061"
   height="48"
   viewBox="0 0 48.000062 48"
   version="1.1"
   id="svg1387"
   xml:space="preserve"
   xmlns="http://www.w3.org/2000/svg"
   xmlns:svg="http://www.w3.org/2000/svg"><defs
     id="MeshDefs"><style
       id="GR-Mesh"><![CDATA[.IconOutline {
  stroke:#f5f4f4;
  fill:none;
  stroke-width:1.5;
}

.ThinDotOutline {
  stroke-dasharray:0.1, 2.5;
  stroke-linecap:round;
  stroke-width:1.5;
}

.ThickDotOutline {
  stroke-dasharray:0.1, 5;
  stroke-linecap:round;
  stroke-width:3;
}
.ThickOutline {
  stroke-linejoin:miter;
  stroke-miterlimit:3;
  stroke-opacity:1;
  stroke-width:3;
}

.MeshFillArea {
  display:inline;
  fill:#7950f2;
  fill-opacity:1;
}

.MeshFillAreaDark {
  display:inline;
  fill:#6b4cc8;
  fill-opacity:1;
}

.BgFillArea {
  fill: #495057;
 }

.ImportArrow {
  fill:#40c057;
  fill-opacity:1;
  stroke:none;
}
.ExportArrow {
  fill:#f03e3e;
  fill-opacity:1;
  stroke:none;
}
.GenericArrow {
  fill:#F5F4F4;
  fill-opacity:1;
  stroke:none;
}
]]></style></defs><g
     id="layer2"
     style="display:inline"
     transform="translate(-202.76131,-926.87104)"><path
       d="m 209.24907,953.18686 5.51946,-21.50466 29.036,1.03359 -13.036,10.96641 z"
       id="path306-4-3-6-8"
       class="MeshFillArea " /><path
       d="m 209.24907,953.18686 5.51946,-21.50466 16,12 z"
       id="path306-4-3-6-8-5"
       class="MeshFillAreaDark" /><path
       style="fill:#f03e3e;fill-opacity:1;stroke:#f2f2f2;stroke-width:3;stroke-linecap:square;stroke-linejoin:miter;stroke-dasharray:none;stroke-opacity:0.992157;paint-order:markers fill stroke"
       d="m 233.76765,968.68203 -17,-8 27,-9 z"
       id="path630" /><path
       d="m 234.93558,961.9227 c 0,-1.5892 1.28822,-2.87742 2.87742,-2.87742 h 10.07096 c 1.5892,0 2.87742,1.28822 2.87742,2.87742 v 10.07096 c 0,1.5892 -1.28822,2.87742 -2.87742,2.87742 H 237.813 c -1.5892,0 -2.87742,-1.28822 -2.87742,-2.87742 z"
       fill="#f2f2f2"
       id="path12"
       style="stroke-width:1.51825" /><rect
       x="238.45624"
       y="965.86011"
       width="8.7844658"
       height="2.1961164"
       id="rect517"
       style="fill:#343a40;stroke-width:1.63179" /><path
       d="m 209.24907,953.18686 5.51946,-21.50466 29.036,1.03359 -13.036,10.96641 z"
       id="path306-4-3-6"
       class="IconOutline ThickOutline" /></g></svg>
