<?xml version="1.0" encoding="UTF-8" standalone="no"?>
<!-- Created with Inkscape (http://www.inkscape.org/) -->

<svg
   width="48"
   height="48"
   viewBox="0 0 48.000001 48"
   version="1.1"
   id="svg1387"
   xml:space="preserve"
   xmlns="http://www.w3.org/2000/svg"
   xmlns:svg="http://www.w3.org/2000/svg"><defs
     id="MeshDefs"><style
       id="GR-Mesh"><![CDATA[.IconOutline {
  stroke:#f5f4f4;
  fill:none;
  stroke-width:1.5;
}

.ThinDotOutline {
  stroke-dasharray:0.1, 2.5;
  stroke-linecap:round;
  stroke-width:1.5;
}

.ThickDotOutline {
  stroke-dasharray:0.1, 5;
  stroke-linecap:round;
  stroke-width:3;
}
.ThickOutline {
  stroke-linejoin:miter;
  stroke-miterlimit:3;
  stroke-opacity:1;
  stroke-width:3;
}

.MeshFillArea {
  display:inline;
  fill:#7950f2;
  fill-opacity:1;
}

.MeshFillAreaDark {
  display:inline;
  fill:#6b4cc8;
  fill-opacity:1;
}

.BgFillArea {
  fill: #495057;
 }

.ImportArrow {
  fill:#40c057;
  fill-opacity:1;
  stroke:none;
}
.ExportArrow {
  fill:#f03e3e;
  fill-opacity:1;
  stroke:none;
}
.GenericArrow {
  fill:#F5F4F4;
  fill-opacity:1;
  stroke:none;
}
]]></style></defs><g
     id="layer2"
     style="display:inline"
     transform="translate(-58.761345,-566.87104)"><g
       id="g11785"
       transform="translate(-647.85571,387.50835)"><path
         d="m 744.11614,209.81537 v 2.51173 h -0.77676 c -3.64451,0 -7.26529,-0.58762 -10.72281,-1.74012 l -6.08252,-2.02747 7.53518,-4.39552 z"
         fill="#f2f2f2"
         id="path8"
         style="stroke-width:1.57302" /><g
         id="g2666"
         transform="matrix(1.3030621,0,-0.24199716,1.4352206,716.45691,179.91981)"
         style="stroke-width:1.09686"><g
           id="rect1871"><path
             id="path2728"
             d="m 15.667304,4.6667361 5.47e-4,5.2651422 C 16.830605,9.609674 18.031254,9.3647808 19.26283,9.2011 l 5.128685,-0.6804267 0.659372,3.5504667 -9.383199,5.591747 -3.2e-4,10.337043 H 26.6661 l -6.4e-5,-23.3331939 z m 6.749399,6.2789779 -2.444215,0.325244 c -1.489236,0.197925 -2.930046,0.525472 -4.30492,0.975732 l 8.6e-5,2.720346 z"
             class="MeshFillArea" /><path
             id="path2730"
             style="color:#000000;fill:#f2f2f2;fill-opacity:0.992157;stroke-linecap:square;paint-order:markers fill stroke"
             d="m 14.570276,3.5698882 -4e-4,1.0954871 -4.87e-4,5.5985517 c 0.71586,-0.23402 1.448714,-0.4362515 2.195295,-0.6083019 l -3.51e-4,-3.892041 h 8.805881 l 1.03e-4,21.1381379 h -8.807379 l 5.25e-4,-9.892045 -2.192795,1.307781 -3.69e-4,10.780681 h 13.193082 l -2.3e-5,-25.5282508 z m 2.193261,8.3474758 c -0.605654,0.16559 -1.200777,0.353429 -1.782198,0.564754 l -0.41137,0.149694 6.64e-4,2.989795 2.192796,-1.30778 z" /></g></g><g
         id="g299"
         style="stroke-width:1.25254"
         transform="matrix(1.2774055,0,0,1.2774055,707.88469,183.08913)"><path
           d="m 10.084322,9.6800686 c 0,2.4433884 -1.9807424,4.4241104 -4.4241094,4.4241104 -2.4433669,0 -4.4241097,-1.980722 -4.4241097,-4.4241104 0,-2.4433657 1.9807428,-4.4241086 4.4241097,-4.4241086 2.443367,0 4.4241094,1.9807429 4.4241094,4.4241086 z"
           fill="#4d4d4d"
           id="path2"
           style="stroke-width:1.23142" /><path
           d="m 10.084322,22.460835 c 0,2.443384 -1.9807424,4.424109 -4.4241094,4.424109 -2.4433669,0 -4.4241097,-1.980725 -4.4241097,-4.424109 0,-2.443389 1.9807428,-4.424113 4.4241097,-4.424113 2.443367,0 4.4241094,1.980724 4.4241094,4.424113 z"
           fill="#4d4d4d"
           id="path4-7"
           style="stroke-width:1.23142" /><path
           fill-rule="evenodd"
           clip-rule="evenodd"
           d="m 8.4075862,13.147982 c -0.7546553,0.598631 -1.7092599,0.956197 -2.7473736,0.956197 -2.4433669,0 -4.4241097,-1.980722 -4.4241097,-4.4241104 0,-2.4433657 1.9807428,-4.4241086 4.4241097,-4.4241086 2.443367,0 4.4241094,1.9807429 4.4241094,4.4241086 0,0.254121 -0.02144,0.5032684 -0.06253,0.7456104 l 3.99507,1.712229 5.159299,-1.934712 C 20.974714,9.5287166 22.841198,9.0514713 24.74268,8.7798312 L 28.763902,8.2053654 V 10.171637 L 9.9305614,21.300438 c 0.1002836,0.369758 0.1537626,0.758882 0.1537626,1.160397 0,2.443384 -1.9807424,4.424109 -4.4241093,4.424109 -2.4433669,0 -4.4241097,-1.980725 -4.4241097,-4.424109 0,-2.443389 1.9807428,-4.424113 4.4241097,-4.424113 0.9856828,0 1.8960666,0.32237 2.6315107,0.867322 L 11.06746,17.053587 11.559028,15.087316 Z M 8.118053,9.6800686 c 0,1.3574154 -1.1004155,2.4578394 -2.4578404,2.4578394 -1.357425,0 -2.4578382,-1.100424 -2.4578382,-2.4578394 0,-1.3574234 1.1004132,-2.4578394 2.4578382,-2.4578394 1.3574249,0 2.4578404,1.100416 2.4578404,2.4578394 z M 5.6602126,24.918672 c 1.3574249,0 2.4578404,-1.100423 2.4578404,-2.457837 0,-1.357418 -1.1004155,-2.457842 -2.4578404,-2.457842 -1.357425,0 -2.4578382,1.100424 -2.4578382,2.457842 0,1.357414 1.1004132,2.457837 2.4578382,2.457837 z"
           fill="#f2f2f2"
           id="path6"
           style="stroke-width:1.23142" /><circle
           cx="15.000004"
           cy="15.087317"
           fill="#4d4d4d"
           id="circle10"
           r="0.9831357"
           style="stroke-width:1.23142" /></g></g></g></svg>
