<?xml version="1.0" encoding="UTF-8" standalone="no"?>
<!-- Created with Inkscape (http://www.inkscape.org/) -->

<svg
   width="48"
   height="48"
   viewBox="0 0 48.000001 48"
   version="1.1"
   id="svg1387"
   xml:space="preserve"
   xmlns="http://www.w3.org/2000/svg"
   xmlns:svg="http://www.w3.org/2000/svg"><defs
     id="MeshDefs"><style
       id="GR-Mesh"><![CDATA[.IconOutline {
  stroke:#f5f4f4;
  fill:none;
  stroke-width:1.5;
}

.ThinDotOutline {
  stroke-dasharray:0.1, 2.5;
  stroke-linecap:round;
  stroke-width:1.5;
}

.ThickDotOutline {
  stroke-dasharray:0.1, 5;
  stroke-linecap:round;
  stroke-width:3;
}
.ThickOutline {
  stroke-linejoin:miter;
  stroke-miterlimit:3;
  stroke-opacity:1;
  stroke-width:3;
}

.MeshFillArea {
  display:inline;
  fill:#7950f2;
  fill-opacity:1;
}

.MeshFillAreaDark {
  display:inline;
  fill:#6b4cc8;
  fill-opacity:1;
}

.BgFillArea {
  fill: #495057;
 }

.ImportArrow {
  fill:#40c057;
  fill-opacity:1;
  stroke:none;
}
.ExportArrow {
  fill:#f03e3e;
  fill-opacity:1;
  stroke:none;
}
.GenericArrow {
  fill:#F5F4F4;
  fill-opacity:1;
  stroke:none;
}
]]></style></defs><g
     id="layer2"
     style="display:inline"
     transform="translate(-346.7614,-566.87104)"><circle
       id="path3189-4-3"
       cx="370.76144"
       cy="590.86987"
       r="18.049824"
       class="MeshFillArea"
       style="stroke-width:1" /><path
       id="path3189-7-2-6-7"
       d="m 370.76266,572.82009 a 6.1159724,18.049822 0 0 1 6.11705,18.0487 6.1159724,18.049822 0 0 1 -0.063,2.51535 c 2.83627,-0.15427 5.45499,-0.39708 7.51018,-0.73243 a 13.66397,18.049822 0 0 1 -13.56667,16.26802 18.049822,18.049822 0 0 0 18.05089,-18.04869 c 0,0.73306 -1.74096,1.32893 -4.45062,1.77395 a 13.66397,18.049822 0 0 0 0.0676,-1.7762 13.66397,18.049822 0 0 0 -13.6653,-18.0487 z m 0,0 a 13.66397,18.049822 0 0 0 -13.66311,18.0487 13.66397,18.049822 0 0 0 0.0963,1.93075 c -2.73053,-0.44219 -4.48411,-1.07814 -4.48411,-1.9285 a 18.049822,18.049822 0 0 0 18.04871,18.04869 13.66397,18.049822 0 0 1 -13.55784,-16.11794 c 2.05439,0.33231 4.67197,0.54729 7.50571,0.66523 a 6.1159724,18.049822 0 0 0 6.05213,15.45271 6.1159724,18.049822 0 0 0 6.0565,-15.53559 c -3.89936,0.21217 -8.20181,0.24489 -12.10186,0.0829 a 6.1159724,18.049822 0 0 1 -0.0676,-2.59823 6.1159724,18.049822 0 0 1 6.11475,-18.04869 z"
       class="MeshFillAreaDark"
       style="stroke-width:1" /><circle
       id="path3189-4-7-4"
       cx="370.76132"
       cy="590.87103"
       r="18.049824"
       class="IconOutline ThickOutline" /><path
       id="path15707"
       d="m 359.39529,583.93788 c 1.13684,-3.01712 5.06798,-6.19809 7.95493,-6.43168"
       class="IconOutline ThickOutline" /></g></svg>
