<?xml version="1.0" encoding="UTF-8" standalone="no"?>
<!-- Created with Inkscape (http://www.inkscape.org/) -->

<svg
   width="48"
   height="48"
   viewBox="0 0 48.000001 48"
   version="1.1"
   id="svg1387"
   xml:space="preserve"
   xmlns="http://www.w3.org/2000/svg"
   xmlns:svg="http://www.w3.org/2000/svg"><defs
     id="MeshDefs"><style
       id="GR-Mesh"><![CDATA[.IconOutline {
  stroke:#f5f4f4;
  fill:none;
  stroke-width:1.5;
}

.ThinDotOutline {
  stroke-dasharray:0.1, 2.5;
  stroke-linecap:round;
  stroke-width:1.5;
}

.ThickDotOutline {
  stroke-dasharray:0.1, 5;
  stroke-linecap:round;
  stroke-width:3;
}
.ThickOutline {
  stroke-linejoin:miter;
  stroke-miterlimit:3;
  stroke-opacity:1;
  stroke-width:3;
}

.MeshFillArea {
  display:inline;
  fill:#7950f2;
  fill-opacity:1;
}

.MeshFillAreaDark {
  display:inline;
  fill:#6b4cc8;
  fill-opacity:1;
}

.BgFillArea {
  fill: #495057;
 }

.ImportArrow {
  fill:#40c057;
  fill-opacity:1;
  stroke:none;
}
.ExportArrow {
  fill:#f03e3e;
  fill-opacity:1;
  stroke:none;
}
.GenericArrow {
  fill:#F5F4F4;
  fill-opacity:1;
  stroke:none;
}
]]></style></defs><g
     id="layer2"
     style="display:inline"
     transform="translate(-58.761345,-782.87104)"><path
       id="ellipse13930-4-0-7-9-2-9-6"
       style="display:inline;fill:#7950f2;fill-opacity:1;stroke-width:1"
       class="MeshFillArea"
       d="m 72.399311,798.5319 v 21.65628 a 10.893088,4.3235723 0 0 0 10.89332,4.32248 10.893088,4.3235723 0 0 0 10.89323,-4.32248 V 798.5319 a 10.893088,4.3235723 0 0 1 -10.89323,4.32248 10.893088,4.3235723 0 0 1 -10.89332,-4.32248 z" /><path
       id="ellipse13930-4-0-7-9-2-85"
       class="MeshFillAreaDark"
       d="m 72.399311,798.5319 v 1.09636 l 1.03632,0.72263 c -0.67047,-0.56701 -1.0299,-1.18716 -1.03632,-1.81899 z m 21.78655,0 c -0.01,0.86269 -0.66638,1.7047 -1.89001,2.41769 l 0.0156,0.004 v 0.002 0.12966 c 0.50906,4.60416 1.02961,9.19977 1.87473,13.55281 z m -1.87473,2.55307 c 0,-0.0337 -0.01,-0.0674 -0.0117,-0.10106 l -9.00701,23.52675 c 3.75131,2e-5 7.05907,-0.75156 9.0185,-1.89717 z m -9.0185,23.42569 v -21.65628 c -3.61034,-0.004 -6.98158,-0.71703 -9.00136,-1.90479 z m -9.00136,-23.56107 c -1.02396,5.48216 -1.37872,10.57211 -1.89196,16.05059 v 3.188 c 0.01,0.86276 0.66764,1.70477 1.89196,2.41769 z"
       style="display:inline;fill:#6b4cc8;fill-opacity:1;stroke-width:1" /><path
       id="ellipse13930-6-2-5-1"
       d="m 83.292421,804.52816 c -6.0165,2.2e-4 -10.89322,1.93639 -10.89206,4.3244 v 11.33372 c -8.6e-4,2.38801 4.87559,4.32416 10.89206,4.32438 6.01705,10e-5 10.89465,-1.93615 10.89352,-4.32438 v -11.33372 c 8.6e-4,-2.38823 -4.87644,-4.3245 -10.89352,-4.3244 z"
       class="IconOutline"
       style="display:inline;fill:none;stroke:#f5f4f4;stroke-width:1.5" /><path
       id="path127368-6-8-3-8"
       style="display:inline;fill:#4c6ef5;fill-opacity:1;stroke:#f5f4f4;stroke-width:1.49999;stroke-linecap:round;stroke-linejoin:miter;stroke-dasharray:none;stroke-opacity:1"
       d="m 68.880871,797.75115 -4.68873,14.98139 34.04283,0.23873 3.187639,-14.78069 z" /><path
       id="ellipse13930-4-0-7-9-28-3"
       d="m 94.185671,798.53081 a 10.893088,4.3235723 0 0 1 -10.89304,4.32357 10.893088,4.3235723 0 0 1 -10.89313,-4.32357 10.893088,4.3235723 0 0 1 10.89313,-4.32357 10.893088,4.3235723 0 0 1 10.89304,4.32357 z"
       class="MeshFillArea"
       style="display:inline;fill:#7950f2;fill-opacity:1;stroke-width:1" /><path
       id="ellipse13930-4-0-7-6"
       class="MeshFillAreaDark"
       d="m 83.292631,794.2075 v 4.3244 l 9.0185,-2.42343 a 10.893088,4.3235723 0 0 0 -9.0185,-1.90097 z m 0,4.3244 v 4.32248 a 10.893088,4.3235723 0 0 0 9.0185,-1.90098 z m 0,0 -9.00331,-2.4196 a 10.893088,4.3235723 0 0 0 -1.89001,2.4196 10.893088,4.3235723 0 0 0 1.89196,2.41769 z"
       style="display:inline;fill:#6b4cc8;fill-opacity:1;stroke-width:1" /><path
       id="ellipse13930-4-0-7-9-2-9-6-5"
       style="display:inline;fill:#7950f2;fill-opacity:1;stroke-width:1"
       class="MeshFillArea"
       d="m 94.186321,793.5555 a 10.893088,4.3235723 0 0 1 -10.89302,4.32125 10.893088,4.3235723 0 0 1 -10.89134,-4.31283 v 11.32644 c -8.6e-4,2.388 4.87487,4.32271 10.89134,4.32293 6.01704,10e-5 10.89414,-1.9347 10.89302,-4.32293 z" /><path
       id="ellipse13930-4-0-7-9-28-3-9"
       d="m 94.186041,793.55391 a 10.893088,4.3235723 0 0 1 -10.89303,4.32358 10.893088,4.3235723 0 0 1 -10.89313,-4.32358 10.893088,4.3235723 0 0 1 10.89313,-4.32357 10.893088,4.3235723 0 0 1 10.89303,4.32357 z"
       class="MeshFillArea"
       style="display:inline;fill:#7950f2;fill-opacity:1;stroke-width:1" /><path
       id="ellipse13930-4-0-7-9-2-9-6-0"
       class="IconOutline ThickOutline"
       d="m 81.720703,788.52539 c -2.883792,0.22226 -5.911272,0.67302 -8.356734,2.32116 -1.104799,0.69802 -1.879329,1.95186 -1.711625,3.28431 0,0.9694 0,1.9388 0,2.9082 -1.106771,-0.015 -2.213549,-0.0294 -3.320313,-0.0449 -1.717799,5.49399 -3.438907,10.98695 -5.158203,16.48047 2.825508,0.0213 5.651043,0.0388 8.476563,0.0586 0.03211,2.32652 -0.06389,4.66446 0.04733,6.98392 0.250258,1.69581 1.918104,2.68733 3.366284,3.31032 3.693282,1.46976 7.791392,1.66473 11.705375,1.20648 2.476843,-0.36504 5.102994,-0.92888 7.04335,-2.60864 0.89445,-0.74078 1.240483,-1.90788 1.122816,-3.03778 0,-1.89674 0,-3.79349 0,-5.69023 1.301433,0.009 2.602859,0.019 3.904297,0.0273 1.166407,-5.42509 2.338947,-10.84887 3.507817,-16.27344 -2.470073,-0.0319 -4.940107,-0.0666 -7.410161,-0.0996 -0.05917,-1.47744 0.118636,-2.97775 -0.08789,-4.4414 -0.0911,-0.3362 -0.322565,-0.92153 -0.528397,-0.84244 -0.383619,-1.01021 -1.490241,-1.49759 -2.386736,-1.97851 -3.180641,-1.42319 -6.769609,-1.71553 -10.213773,-1.56382 z" /><path
       id="ellipse13930-4-0-7-9-2-85-8"
       style="display:inline;fill:#6b4cc8;fill-opacity:1;stroke-width:1"
       class="MeshFillAreaDark"
       d="m 72.400281,793.5555 v 1.09546 l 1.03639,0.72357 c -0.67046,-0.567 -1.02997,-1.1872 -1.03639,-1.81903 z m 21.78604,0 c -0.01,0.86269 -0.66666,1.70342 -1.89029,2.4164 l 0.0151,0.005 v 0.002 0.12957 c 0.37938,3.43122 0.76583,6.85735 1.28754,10.18219 0.37943,-0.43974 0.58792,-0.91089 0.58768,-1.40171 z m -1.87522,2.5527 c 0,-0.0337 -0.01,-0.0673 -0.0118,-0.10096 l -4.93417,12.89138 c 2.01892,-0.32339 3.73899,-0.87779 4.94589,-1.58344 z m -18.01885,-0.1363 4.93919,12.92672 c 1.25591,0.20068 2.62499,0.31462 4.06186,0.31467 v -11.33654 c -3.61034,-0.004 -6.98127,-0.71708 -9.00105,-1.90485 z m 0,0 c -0.65544,3.5091 -1.03541,6.85873 -1.35954,10.25119 0.32219,0.39455 0.78222,0.76475 1.35954,1.1005 z" /><path
       id="ellipse13930-4-0-7-6-4"
       class="MeshFillAreaDark"
       d="m 83.293011,789.2306 v 4.3244 l 9.0185,-2.42343 a 10.893088,4.3235723 0 0 0 -9.0185,-1.90097 z m 0,4.3244 v 4.32249 a 10.893088,4.3235723 0 0 0 9.0185,-1.90099 z m 0,0 -9.00331,-2.4196 a 10.893088,4.3235723 0 0 0 -1.89002,2.4196 10.893088,4.3235723 0 0 0 1.89197,2.41769 z"
       style="display:inline;fill:#6b4cc8;fill-opacity:1;stroke-width:1" /><path
       id="ellipse13930-4-3-1-1"
       d="m 94.186241,793.555 a 10.893088,4.3235723 0 0 1 -10.89303,4.32358 10.893088,4.3235723 0 0 1 -10.89314,-4.32358 10.893088,4.3235723 0 0 1 10.89314,-4.32358 10.893088,4.3235723 0 0 1 10.89303,4.32358 z"
       class="IconOutline"
       style="display:inline;fill:none;stroke:#f5f4f4;stroke-width:1.5" /><path
       id="ellipse13930-4-0-7-9-2-9-6-5-3"
       class="IconOutline"
       d="m 94.186321,793.5555 a 10.893088,4.3235723 0 0 1 -10.89302,4.32125 10.893088,4.3235723 0 0 1 -10.89134,-4.31283 v 11.32644 c -8.6e-4,2.388 4.87487,4.32271 10.89134,4.32293 6.01704,10e-5 10.89414,-1.9347 10.89302,-4.32293 z" /></g></svg>
