<?xml version="1.0" encoding="UTF-8" standalone="no"?>
<!-- Created with Inkscape (http://www.inkscape.org/) -->

<svg
   width="48"
   height="48"
   viewBox="0 0 48.000001 48"
   version="1.1"
   id="svg1387"
   xml:space="preserve"
   xmlns="http://www.w3.org/2000/svg"
   xmlns:svg="http://www.w3.org/2000/svg"><defs
     id="MeshDefs"><style
       id="GR-Mesh"><![CDATA[.IconOutline {
  stroke:#f5f4f4;
  fill:none;
  stroke-width:1.5;
}

.ThinDotOutline {
  stroke-dasharray:0.1, 2.5;
  stroke-linecap:round;
  stroke-width:1.5;
}

.ThickDotOutline {
  stroke-dasharray:0.1, 5;
  stroke-linecap:round;
  stroke-width:3;
}
.ThickOutline {
  stroke-linejoin:miter;
  stroke-miterlimit:3;
  stroke-opacity:1;
  stroke-width:3;
}

.MeshFillArea {
  display:inline;
  fill:#7950f2;
  fill-opacity:1;
}

.MeshFillAreaDark {
  display:inline;
  fill:#6b4cc8;
  fill-opacity:1;
}

.BgFillArea {
  fill: #495057;
 }

.ImportArrow {
  fill:#40c057;
  fill-opacity:1;
  stroke:none;
}
.ExportArrow {
  fill:#f03e3e;
  fill-opacity:1;
  stroke:none;
}
.GenericArrow {
  fill:#F5F4F4;
  fill-opacity:1;
  stroke:none;
}
]]></style></defs><g
     id="layer2"
     style="display:inline"
     transform="translate(85.238653,-566.87104)"><g
       id="Mesh_Union"
       transform="matrix(0.90171156,0,0,0.90158723,-1329.8982,-496.62915)"><path
         id="path110304-88"
         d="m 1413.3045,1185.1712 a 14.673633,14.632992 0 0 0 -14.5411,12.9473 14.673633,14.632992 0 0 0 -12.8496,14.4902 14.673633,14.632992 0 0 0 14.6719,14.6328 14.673633,14.632992 0 0 0 14.5411,-12.9472 14.673633,14.632992 0 0 0 12.8515,-14.4903 14.673633,14.632992 0 0 0 -14.6738,-14.6328 z"
         class="MeshFillArea" /><path
         id="path110304-2-3"
         d="m 1400.5856,1197.9759 a 14.673633,14.632992 0 0 0 -1.8222,0.1426 14.673633,14.632992 0 0 0 -0.1328,1.6874 14.673633,14.632992 0 0 0 14.6738,14.6329 14.673633,14.632992 0 0 0 1.8223,-0.1426 14.673633,14.632992 0 0 0 0.1328,-1.6875 14.673633,14.632992 0 0 0 -14.6739,-14.6328 z"
         class="IconOutline ThinDotOutline" /><path
         id="path110304-88-3"
         d="m 1413.3061,1185.1713 a 14.673633,14.632992 0 0 0 -14.5411,12.9473 14.673633,14.632992 0 0 0 -12.8496,14.4902 14.673633,14.632992 0 0 0 14.6719,14.6328 14.673633,14.632992 0 0 0 14.5411,-12.9472 14.673633,14.632992 0 0 0 12.8515,-14.4903 14.673633,14.632992 0 0 0 -14.6738,-14.6328 z"
         class="IconOutline ThickOutline" /></g></g></svg>
