<?xml version="1.0" encoding="UTF-8" standalone="no"?>
<!-- Created with Inkscape (http://www.inkscape.org/) -->

<svg
   width="48"
   height="48"
   viewBox="0 0 48.000001 48"
   version="1.1"
   id="svg1387"
   xml:space="preserve"
   xmlns="http://www.w3.org/2000/svg"
   xmlns:svg="http://www.w3.org/2000/svg"><defs
     id="MeshDefs"><style
       id="GR-Mesh"><![CDATA[.IconOutline {
  stroke:#f5f4f4;
  fill:none;
  stroke-width:1.5;
}

.ThinDotOutline {
  stroke-dasharray:0.1, 2.5;
  stroke-linecap:round;
  stroke-width:1.5;
}

.ThickDotOutline {
  stroke-dasharray:0.1, 5;
  stroke-linecap:round;
  stroke-width:3;
}
.ThickOutline {
  stroke-linejoin:miter;
  stroke-miterlimit:3;
  stroke-opacity:1;
  stroke-width:3;
}

.MeshFillArea {
  display:inline;
  fill:#7950f2;
  fill-opacity:1;
}

.MeshFillAreaDark {
  display:inline;
  fill:#6b4cc8;
  fill-opacity:1;
}

.BgFillArea {
  fill: #495057;
 }

.ImportArrow {
  fill:#40c057;
  fill-opacity:1;
  stroke:none;
}
.ExportArrow {
  fill:#f03e3e;
  fill-opacity:1;
  stroke:none;
}
.GenericArrow {
  fill:#F5F4F4;
  fill-opacity:1;
  stroke:none;
}
]]></style></defs><g
     id="layer2"
     style="display:inline"
     transform="translate(229.23865,-926.87104)"><path
       id="ellipse13930-4-0-7-9-2-9-8"
       style="display:inline;fill:#7950f2;fill-opacity:1;stroke-width:1"
       class="MeshFillArea"
       d="m -207.00992,935.54911 v 19.9415 a 10.07262,3.9812281 0 0 0 10.07284,3.98023 10.07262,3.9812281 0 0 0 10.07275,-3.98023 v -19.9415 a 10.07262,3.9812281 0 0 1 -10.07275,3.98022 10.07262,3.9812281 0 0 1 -10.07284,-3.98022 z" /><path
       id="ellipse13930-4-0-7-9-28-6"
       d="m -186.86451,935.5481 a 10.07262,3.9812281 0 0 1 -10.07257,3.98123 10.07262,3.9812281 0 0 1 -10.07266,-3.98123 10.07262,3.9812281 0 0 1 10.07266,-3.98122 10.07262,3.9812281 0 0 1 10.07257,3.98122 z"
       class="MeshFillArea"
       style="display:inline;fill:#7950f2;fill-opacity:1;stroke-width:1" /><path
       id="ellipse13930-4-0-7-9-2-8"
       class="MeshFillAreaDark"
       d="m -207.00992,935.54911 v 1.00956 l 0.95828,0.6654 c -0.61997,-0.52212 -0.95234,-1.09315 -0.95828,-1.67496 z m 20.14559,0 c -0.01,0.79438 -0.61619,1.56971 -1.74764,2.22625 l 0.0144,0.004 v 0.002 0.11939 c 0.47071,4.23961 0.95205,8.47133 1.73352,12.4797 z m -1.73352,2.35091 c 0,-0.031 -0.01,-0.062 -0.0107,-0.0931 l -8.3286,21.66388 c 3.46876,2e-5 6.52738,-0.69206 8.33923,-1.74695 z m -8.33923,21.57082 v -19.94151 c -3.33841,-0.004 -6.45572,-0.66026 -8.32338,-1.75397 z m -8.32338,-21.69548 c -0.94684,5.04807 -1.27488,9.735 -1.74946,14.77969 v 2.93556 c 0.01,0.79446 0.61735,1.5698 1.74946,2.22626 z"
       style="display:inline;fill:#6b4cc8;fill-opacity:1;stroke-width:1" /><path
       id="ellipse13930-4-0-7-8"
       class="MeshFillAreaDark"
       d="m -196.93708,931.56712 v 3.98199 l 8.33923,-2.23154 a 10.07262,3.9812281 0 0 0 -8.33923,-1.75045 z m 0,3.98199 v 3.98022 a 10.07262,3.9812281 0 0 0 8.33923,-1.75046 z m 0,0 -8.32517,-2.22802 a 10.07262,3.9812281 0 0 0 -1.74767,2.22802 10.07262,3.9812281 0 0 0 1.74946,2.22625 z"
       style="display:inline;fill:#6b4cc8;fill-opacity:1;stroke-width:1" /><path
       id="ellipse13930-6-2-5-4"
       d="m -196.93708,931.56712 a 10.07262,3.9812281 0 0 0 -10.07167,3.98199 v 20.76567 a 10.07262,3.9812281 0 0 0 10.07167,3.98198 10.07262,3.9812281 0 0 0 10.07303,-3.98198 v -20.76567 a 10.07262,3.9812281 0 0 0 -10.07303,-3.98199 z"
       class="IconOutline"
       style="display:inline;fill:none;stroke:#f5f4f4;stroke-width:1.5" /><path
       id="ellipse13930-4-3-3"
       d="m -186.86433,935.54911 a 10.07262,3.9812281 0 0 1 -10.07257,3.98123 10.07262,3.9812281 0 0 1 -10.07267,-3.98123 10.07262,3.9812281 0 0 1 10.07267,-3.98124 10.07262,3.9812281 0 0 1 10.07257,3.98124 z"
       class="IconOutline"
       style="display:inline;fill:none;stroke:#f5f4f4;stroke-width:1.5" /><path
       d="m -197.39199,969.88267 v -19.22688 l -5.88654,-6.31916 h -19.58642 v 19.40647 l 6.11232,6.16996 z"
       id="path1390-81-6-5-1"
       class="MeshFillArea"
       style="display:inline;fill:#7950f2;fill-opacity:1;stroke-width:1" /><path
       id="path11729-2-2-2-4"
       class="MeshFillAreaDark"
       d="m -216.75265,969.91306 19.36066,-0.0304 -19.37413,-19.11736 z m -6.1123,-25.57643 6.09883,6.42866 13.48759,-6.42866 z m 0,19.40647 6.11232,6.16996 -6.11232,-25.57643 z"
       style="display:inline;fill:#6b4cc8;fill-opacity:1;stroke-width:1" /><path
       id="path1807-9-3-1-5-9"
       class="IconOutline"
       d="m -216.77958,950.87479 -5.62103,-5.99263 m 24.99517,5.88314 -19.36068,-10e-6 m 0,0 v 19.25725 m 19.36058,-0.0303 v -19.22692 l -5.88643,-6.31918 h -19.58645 v 19.40648 l 6.1123,6.16996 z"
       style="display:inline;fill:none;stroke:#f5f4f4;stroke-width:1.5" /><g
       id="g15608-2-7"
       transform="translate(-670.83035,-14.59107)"
       style="display:inline"><path
         d="m 473.7659,976.51374 c 0,-1.5892 1.28822,-2.87742 2.87742,-2.87742 h 10.07096 c 1.5892,0 2.87742,1.28822 2.87742,2.87742 v 10.07096 c 0,1.5892 -1.28822,2.87741 -2.87742,2.87741 h -10.07096 c -1.5892,0 -2.87742,-1.28821 -2.87742,-2.87741 z"
         fill="#f2f2f2"
         id="path12-6-3-1"
         style="display:inline;stroke-width:1.51825" /><rect
         x="477.28656"
         y="980.45117"
         width="8.7844658"
         height="2.1961164"
         id="rect517-4-2-7"
         style="display:inline;fill:#343a40;stroke-width:1.63179" /><rect
         x="-985.94141"
         y="480.58072"
         width="8.7844658"
         height="2.1961164"
         id="rect517-4-3-2-2"
         style="display:inline;fill:#343a40;stroke-width:1.63179"
         transform="rotate(-90)" /></g><path
       id="ellipse13930-4-0-7-9-2-9-8-1"
       class="IconOutline ThickOutline"
       d="m -197.98242,930.83789 c -2.88052,0.16815 -5.92661,0.59119 -8.34708,2.27942 -0.98026,0.66872 -1.59547,1.83453 -1.43027,3.03152 0,2.47903 0,4.95807 0,7.43711 -5.28515,0 -10.57031,0 -15.85546,0 0,6.82226 0,13.64453 0,20.46679 2.18309,2.20363 4.3657,4.40774 6.54882,6.61133 6.80795,-0.0103 13.61589,-0.0208 20.42383,-0.0332 0,-3.47201 0,-6.94401 0,-10.41602 3.05784,-0.0747 6.279,-0.47327 8.90715,-2.15409 1.06668,-0.66957 1.80702,-1.88378 1.6202,-3.17052 -0.0171,-6.56253 0.0341,-13.12891 -0.0254,-19.68906 -0.34842,-1.81338 -2.22412,-2.73105 -3.7962,-3.30758 -2.56974,-0.90146 -5.33744,-1.14084 -8.0456,-1.0557 z" /></g></svg>
