<?xml version="1.0" encoding="UTF-8" standalone="no"?>
<!-- Created with Inkscape (http://www.inkscape.org/) -->

<svg
   width="48.000015"
   height="48"
   viewBox="0 0 48.000016 48"
   version="1.1"
   id="svg1387"
   xml:space="preserve"
   xmlns="http://www.w3.org/2000/svg"
   xmlns:svg="http://www.w3.org/2000/svg"><defs
     id="MeshDefs"><style
       id="GR-Mesh"><![CDATA[.IconOutline {
  stroke:#f5f4f4;
  fill:none;
  stroke-width:1.5;
}

.ThinDotOutline {
  stroke-dasharray:0.1, 2.5;
  stroke-linecap:round;
  stroke-width:1.5;
}

.ThickDotOutline {
  stroke-dasharray:0.1, 5;
  stroke-linecap:round;
  stroke-width:3;
}
.ThickOutline {
  stroke-linejoin:miter;
  stroke-miterlimit:3;
  stroke-opacity:1;
  stroke-width:3;
}

.MeshFillArea {
  display:inline;
  fill:#7950f2;
  fill-opacity:1;
}

.MeshFillAreaDark {
  display:inline;
  fill:#6b4cc8;
  fill-opacity:1;
}

.BgFillArea {
  fill: #495057;
 }

.ImportArrow {
  fill:#40c057;
  fill-opacity:1;
  stroke:none;
}
.ExportArrow {
  fill:#f03e3e;
  fill-opacity:1;
  stroke:none;
}
.GenericArrow {
  fill:#F5F4F4;
  fill-opacity:1;
  stroke:none;
}
]]></style></defs><g
     id="layer2"
     style="display:inline"
     transform="translate(85.238653,-638.87104)"><g
       id="Mesh_Intersection"
       transform="matrix(0.90173179,0,0,0.90161035,-1484.0184,-415.62527)"
       style="display:inline;stroke-width:1.10905"><path
         id="path110304-1"
         d="m 1584.1906,1175.1548 a 14.673633,14.632992 0 0 0 -14.541,12.9453 14.673633,14.632992 0 0 0 -12.8516,14.4903 14.673633,14.632992 0 0 0 14.6738,14.6327 14.673633,14.632992 0 0 0 14.5411,-12.9453 14.673633,14.632992 0 0 0 12.8496,-14.4902 14.673633,14.632992 0 0 0 -14.6719,-14.6328 z"
         class="BgFillArea" /><path
         id="path110304-2"
         d="m 1571.4684,1187.9584 a 14.673633,14.632992 0 0 0 -1.8222,0.1426 14.673633,14.632992 0 0 0 -0.1329,1.6875 14.673633,14.632992 0 0 0 14.6739,14.6328 14.673633,14.632992 0 0 0 1.8223,-0.1426 14.673633,14.632992 0 0 0 0.1327,-1.6874 14.673633,14.632992 0 0 0 -14.6738,-14.6329 z"
         class="MeshFillArea IconOutline ThinDotOutline" /><path
         id="path110304-88-3-6"
         d="m 1584.1886,1175.1543 a 14.673304,14.632617 0 0 0 -14.5408,12.9469 14.673304,14.632617 0 0 0 -12.8493,14.4899 14.673304,14.632617 0 0 0 14.6716,14.6324 14.673304,14.632617 0 0 0 14.5408,-12.9469 14.673304,14.632617 0 0 0 12.8512,-14.4899 14.673304,14.632617 0 0 0 -14.6735,-14.6324 z"
         class="IconOutline ThickOutline" /></g></g></svg>
