<?xml version="1.0" encoding="UTF-8" standalone="no"?>
<!-- Created with Inkscape (http://www.inkscape.org/) -->

<svg
   width="12"
   height="12"
   viewBox="0 0 12 12"
   version="1.1"
   id="svg1387"
   xml:space="preserve"
   xmlns="http://www.w3.org/2000/svg"
   xmlns:svg="http://www.w3.org/2000/svg"><defs
     id="FlatIconDefs"><style
       id="FlatIconStlyle"><![CDATA[.IconOutline { stroke:#f5f4f4;  fill:none;  stroke-width:1.5; }
.ThinDotOutline { stroke-dasharray:0.1, 2.5;  stroke-linecap:round; }
.ThickDotOutline { stroke-dasharray:0.1, 5;  stroke-linecap:round;  stroke-width:3; }
.ThickOutline { stroke-linejoin:miter;  stroke-miterlimit:3;  stroke-width:3; }
.MiniOutline { stroke-width: 1;stroke-linecap: round; }
.CornerButton { stroke-width: 8;  stroke-linejoin: round; }
.OutlineAsFill { fill: #f5f4f4; }
.MeshFillArea { fill:#7950f2; }
.MeshFillAreaDark { fill:#6b4cc8; }
.DynDataFillArea { fill:#aea72c; }
.PartFillArea { fill:#3769ff }
.BgFillArea { fill: #495057; }
.AdditiveFillArea { fill: #40c057 }
.SubtractArea { fill: #f03e3e; }
.IntersectArea { fill: #4c6ef5; }
.ImportArrow { fill:#40c057; }
.ExportArrow { fill:#f03e3e; }
.GenericArrow { fill:#F5F4F4; }
.SketchFill { fill: #f5f4f4; }
.SketckOutline { stroke:#f03e3e; }
.SpreadsheetFill { fill: #868e96; }
.SpreadsheetLines { stroke:#495057; }
]]></style></defs><path
     d="M 1.978753,0.92974896 A 1.0001,1.0001 0 0 0 1.281487,2.6465458 L 4.574456,5.9395146 1.281487,9.2324836 A 1.0001,1.0001 0 1 0 2.69555,10.646546 L 5.988519,7.3535771 9.281488,10.646546 A 1.0001,1.0001 0 1 0 10.69555,9.2324836 L 7.402581,5.9395146 10.69555,2.6465458 A 1.0001,1.0001 0 0 0 9.968988,0.92974896 1.0001,1.0001 0 0 0 9.281488,1.2324834 L 5.988519,4.5254521 2.69555,1.2324834 A 1.0001,1.0001 0 0 0 1.978753,0.92974896 Z"
     id="path8784"
     class="OutlineAsFill" /></svg>
