<?xml version="1.0" encoding="UTF-8" standalone="no"?>
<!-- Created with Inkscape (http://www.inkscape.org/) -->

<svg
   width="12"
   height="12"
   viewBox="0 0 12 12"
   version="1.1"
   id="svg1387"
   xml:space="preserve"
   xmlns="http://www.w3.org/2000/svg"
   xmlns:svg="http://www.w3.org/2000/svg"><defs
     id="FlatIconDefs"><style
       id="FlatIconStlyle"><![CDATA[.IconOutline { stroke:#f5f4f4;  fill:none;  stroke-width:1.5; }
.ThinDotOutline { stroke-dasharray:0.1, 2.5;  stroke-linecap:round; }
.ThickDotOutline { stroke-dasharray:0.1, 5;  stroke-linecap:round;  stroke-width:3; }
.ThickOutline { stroke-linejoin:miter;  stroke-miterlimit:3;  stroke-width:3; }
.MiniOutline { stroke-width: 1;stroke-linecap: round; }
.CornerButton { stroke-width: 8;  stroke-linejoin: round; }
.OutlineAsFill { fill: #f5f4f4; }
.MeshFillArea { fill:#7950f2; }
.MeshFillAreaDark { fill:#6b4cc8; }
.DynDataFillArea { fill:#aea72c; }
.PartFillArea { fill:#3769ff }
.BgFillArea { fill: #495057; }
.AdditiveFillArea { fill: #40c057 }
.SubtractArea { fill: #f03e3e; }
.IntersectArea { fill: #4c6ef5; }
.ImportArrow { fill:#40c057; }
.ExportArrow { fill:#f03e3e; }
.GenericArrow { fill:#F5F4F4; }
.SketchFill { fill: #f5f4f4; }
.SketckOutline { stroke:#f03e3e; }
.SpreadsheetFill { fill: #868e96; }
.SpreadsheetLines { stroke:#495057; }
]]></style></defs><path
     d="m 5.3644,0.90277771 c -0.16558,0 -0.29888,0.13330009 -0.29888,0.29887949 V 1.9613085 C 4.67891,2.0572825 4.3068,2.2117513 3.95717,2.422081 L 3.42168,1.8865888 c -0.11708,-0.1170822 -0.30633,-0.1170822 -0.42341,0 L 2.02691,2.857946 c -0.11708,0.1170825 -0.11708,0.30633 0,0.4234126 l 0.5355,0.5354922 C 2.35372,4.1654554 2.20902,4.5417836 2.11409,4.9251939 H 1.35444 c -0.16558,0 -0.29888,0.1333 -0.29888,0.2988782 v 1.3698634 c 0,0.1655795 0.1333,0.2988794 0.29888,0.2988794 h 0.74719 c 0.096,0.3869534 0.25027,0.7584235 0.46078,1.1083435 l -0.5355,0.5354922 c -0.11708,0.1170816 -0.11708,0.3063301 0,0.4234133 l 0.97136,0.971357 c 0.11708,0.1170821 0.30633,0.1170821 0.42341,0 l 0.53549,-0.535493 c 0.35116,0.211788 0.72167,0.35231 1.10835,0.448319 v 0.7596521 c 0,0.165579 0.1333,0.298879 0.29888,0.298879 h 1.36986 c 0.16558,0 0.29888,-0.1333 0.29888,-0.298879 V 9.8442469 c 0.3875,-0.0955 0.75787,-0.238052 1.10834,-0.448319 l 0.5355,0.535493 c 0.11708,0.1170821 0.30633,0.1170821 0.42341,0 l 0.97136,-0.971357 c 0.11708,-0.1170832 0.11708,-0.3063317 0,-0.4234133 L 9.53625,8.0011584 C 9.74702,7.6518715 9.90083,7.2774199 9.99703,6.8928152 h 0.75965 c 0.16558,-3e-7 0.29888,-0.1333002 0.29888,-0.2988797 V 5.2240733 c 0,-0.1655794 -0.1333,-0.2988794 -0.29888,-0.2988794 H 9.99703 C 9.90163,4.540918 9.74463,4.1646702 9.53625,3.8168508 l 0.5355,-0.5354922 c 0.11708,-0.1170826 0.11708,-0.3063301 0,-0.4234126 L 9.10039,1.8865888 c -0.11708,-0.1170822 -0.30633,-0.1170822 -0.42341,0 L 8.14148,2.422081 C 7.79153,2.2120322 7.41825,2.0566035 7.03314,1.9613085 V 1.2016572 c 0,-0.1655794 -0.1333,-0.29887949 -0.29888,-0.29887949 z M 5.99952,4.016103 C 6.48378,4.003247 6.97764,4.167012 7.35693,4.5266879 8.1155,5.2460399 8.151,6.4455746 7.43163,7.2041478 6.71405,7.9608481 5.51337,7.9937969 4.75417,7.2788678 3.99559,6.5595159 3.96009,5.3599812 4.67947,4.6014081 5.03914,4.2221218 5.51525,4.0289552 5.99952,4.016103 Z"
     id="rect3381-0"
     class="OutlineAsFill" /></svg>
